if (_typeface_js && _typeface_js.loadFace) _typeface_js.loadFace({"glyphs":{"\u0000":{"x_min":0,"x_max":0,"ha":0},"ƣ":{"x_min":0,"x_max":1041.625,"ha":1215,"o":"m 0 173 l 0 520 l 173 520 l 173 694 l 1041 694 l 1041 -173 l 868 -173 l 868 520 l 694 520 l 694 173 l 521 173 l 521 0 l 173 0 l 173 173 l 0 173 m 173 180 l 521 180 l 521 514 l 173 514 l 173 180 "},"ǻ":{"x_min":0,"x_max":694.625,"ha":868,"o":"m 0 173 l 0 521 l 174 521 l 174 695 l 0 695 l 0 868 l 174 868 l 174 1215 l 347 1215 l 347 1388 l 520 1388 l 520 1215 l 347 1215 l 347 1042 l 520 1042 l 520 868 l 694 868 l 694 695 l 520 695 l 520 521 l 694 521 l 694 0 l 174 0 l 174 173 l 0 173 m 173 180 l 521 180 l 521 514 l 173 514 l 173 180 m 173 701 l 521 701 l 521 862 l 173 862 l 173 701 "},"Á":{"x_min":0,"x_max":867.625,"ha":1042,"o":"m 0 0 l 0 694 l 173 694 l 173 868 l 694 868 l 694 694 l 867 694 l 867 0 l 694 0 l 694 347 l 173 347 l 173 0 l 0 0 m 173 520 l 694 520 l 694 688 l 173 688 l 173 520 m 347 1042 l 347 1215 l 521 1215 l 521 1388 l 694 1388 l 694 1215 l 520 1215 l 520 1042 l 347 1042 "},"ѩ":{"x_min":0,"x_max":1562.625,"ha":1736,"o":"m 0 0 l 0 694 l 173 694 l 173 520 l 868 520 l 868 694 l 1041 694 l 1041 520 l 1215 520 l 1215 347 l 1388 347 l 1388 173 l 1562 173 l 1562 0 l 1389 0 l 1389 174 l 1215 174 l 1215 347 l 1041 347 l 1041 0 l 868 0 l 868 347 l 694 347 l 694 174 l 520 174 l 520 0 l 347 0 l 347 173 l 521 173 l 521 347 l 173 347 l 173 0 l 0 0 m 868 354 l 1042 354 l 1042 514 l 868 514 l 868 354 "},"ĥ":{"x_min":0,"x_max":694.625,"ha":868,"o":"m 0 0 l 0 868 l 173 868 l 173 694 l 521 694 l 521 521 l 694 521 l 694 0 l 521 0 l 521 521 l 173 521 l 173 0 l 0 0 m 0 1042 l 0 1215 l 173 1215 l 173 1388 l 521 1388 l 521 1215 l 694 1215 l 694 1042 l 521 1042 l 521 1215 l 173 1215 l 173 1042 l 0 1042 "},"ǆ":{"x_min":0,"x_max":1562.625,"ha":1736,"o":"m 0 173 l 0 521 l 173 521 l 173 694 l 521 694 l 521 868 l 694 868 l 694 0 l 173 0 l 173 173 l 0 173 m 180 173 l 521 173 l 521 521 l 180 521 l 180 173 m 868 0 l 868 173 l 1042 173 l 1042 347 l 1215 347 l 1215 521 l 868 521 l 868 694 l 1562 694 l 1562 521 l 1388 521 l 1388 347 l 1215 347 l 1215 173 l 1562 173 l 1562 0 l 868 0 m 868 1042 l 868 1215 l 1041 1215 l 1041 1041 l 1389 1041 l 1389 1215 l 1562 1215 l 1562 1042 l 1388 1042 l 1388 868 l 1042 868 l 1042 1042 l 868 1042 "},"ѷ":{"x_min":0,"x_max":867.625,"ha":1042,"o":"m 0 347 l 0 694 l 173 694 l 173 347 l 347 347 l 347 173 l 521 173 l 521 520 l 694 520 l 694 694 l 867 694 l 867 521 l 694 521 l 694 174 l 520 174 l 520 0 l 347 0 l 347 174 l 174 174 l 174 347 l 0 347 m 174 868 l 174 1041 l 347 1041 l 347 868 l 520 868 l 520 695 l 347 695 l 347 868 l 174 868 "},"Κ":{"x_min":0,"x_max":867.625,"ha":1042,"o":"m 0 0 l 0 868 l 173 868 l 173 521 l 521 521 l 521 694 l 694 694 l 694 868 l 867 868 l 867 695 l 694 695 l 694 521 l 521 521 l 521 347 l 694 347 l 694 173 l 867 173 l 867 0 l 694 0 l 694 174 l 521 174 l 521 347 l 173 347 l 173 0 l 0 0 "},"Ƹ":{"x_min":0,"x_max":694.625,"ha":868,"o":"m 0 173 l 0 347 l 174 347 l 174 695 l 0 695 l 0 868 l 694 868 l 694 695 l 347 695 l 347 520 l 520 520 l 520 347 l 173 347 l 173 173 l 694 173 l 694 0 l 174 0 l 174 173 l 0 173 "},"»":{"x_min":0,"x_max":867.625,"ha":1042,"o":"m 0 174 l 0 347 l 174 347 l 174 521 l 0 521 l 0 694 l 173 694 l 173 520 l 347 520 l 347 347 l 173 347 l 173 174 l 0 174 m 521 174 l 521 347 l 694 347 l 694 521 l 521 521 l 521 694 l 694 694 l 694 520 l 867 520 l 867 347 l 694 347 l 694 174 l 521 174 "},"∆":{"x_min":1,"x_max":868.40625,"ha":1042,"o":"m 1 0 l 1 347 l 174 347 l 174 694 l 347 694 l 347 867 l 520 867 l 520 694 l 694 694 l 694 347 l 868 347 l 868 0 l 1 0 m 181 173 l 688 173 l 688 347 l 521 347 l 521 687 l 347 687 l 347 347 l 181 347 l 181 173 "},"ƃ":{"x_min":0,"x_max":694.40625,"ha":868,"o":"m 0 0 l 0 868 l 694 868 l 694 695 l 173 695 l 173 520 l 520 520 l 520 347 l 694 347 l 694 174 l 520 174 l 520 0 l 0 0 m 173 173 l 514 173 l 514 347 l 173 347 l 173 173 "},"ў":{"x_min":0,"x_max":694.625,"ha":868,"o":"m 0 0 l 347 0 l 347 174 l 173 174 l 173 347 l 0 347 l 0 695 l 173 695 l 173 347 l 521 347 l 521 695 l 694 695 l 694 174 l 520 174 l 520 0 l 347 0 l 347 -173 l 0 -173 l 0 0 m 0 1042 l 0 1215 l 173 1215 l 173 1041 l 521 1041 l 521 1215 l 694 1215 l 694 1042 l 520 1042 l 520 868 l 173 868 l 173 1042 l 0 1042 "},"ţ":{"x_min":1,"x_max":520.625,"ha":695,"o":"m 1 521 l 1 694 l 174 694 l 174 868 l 347 868 l 347 694 l 520 694 l 520 521 l 347 521 l 347 0 l 520 0 l 520 -173 l 347 -173 l 347 -347 l 174 -347 l 174 -173 l 347 -173 l 347 0 l 174 0 l 174 521 l 1 521 "},"«":{"x_min":0,"x_max":867.625,"ha":1042,"o":"m 0 347 l 0 520 l 174 520 l 174 694 l 347 694 l 347 521 l 173 521 l 173 347 l 347 347 l 347 174 l 174 174 l 174 347 l 0 347 m 521 347 l 521 520 l 694 520 l 694 694 l 867 694 l 867 521 l 694 521 l 694 347 l 867 347 l 867 174 l 694 174 l 694 347 l 521 347 "},"Ƽ":{"x_min":0,"x_max":867.625,"ha":1042,"o":"m 0 0 l 0 173 l 694 173 l 694 347 l 173 347 l 173 520 l 0 520 l 0 868 l 867 868 l 867 695 l 173 695 l 173 520 l 694 520 l 694 347 l 867 347 l 867 173 l 694 173 l 694 0 l 0 0 "},"":{"x_min":0,"x_max":694.5,"ha":694,"o":"m 0 0 l 0 695 l 694 695 l 694 0 l 0 0 "},"í":{"x_min":0,"x_max":347.625,"ha":347,"o":"m 0 0 l 0 521 l 173 521 l 173 0 l 0 0 m 0 695 l 0 868 l 174 868 l 174 1041 l 347 1041 l 347 868 l 173 868 l 173 695 l 0 695 "},"ņ":{"x_min":0,"x_max":694.625,"ha":868,"o":"m 0 0 l 0 694 l 521 694 l 521 521 l 694 521 l 694 0 l 521 0 l 521 521 l 173 521 l 173 0 l 347 0 l 347 -173 l 173 -173 l 173 -347 l 0 -347 l 0 -173 l 174 -173 l 174 0 l 0 0 "},"ǜ":{"x_min":0,"x_max":694.625,"ha":868,"o":"m 0 173 l 0 695 l 173 695 l 173 173 l 521 173 l 521 695 l 694 695 l 694 0 l 174 0 l 174 173 l 0 173 m 0 868 l 0 1041 l 173 1041 l 173 868 l 0 868 m 174 1215 l 174 1388 l 347 1388 l 347 1215 l 520 1215 l 520 1041 l 694 1041 l 694 868 l 521 868 l 521 1042 l 347 1042 l 347 1215 l 174 1215 "},"µ":{"x_min":0,"x_max":867.625,"ha":1042,"o":"m 0 -347 l 0 695 l 173 695 l 173 173 l 520 173 l 520 695 l 694 695 l 694 173 l 867 173 l 867 0 l 694 0 l 694 173 l 520 173 l 520 0 l 173 0 l 173 -347 l 0 -347 "},"Ι":{"x_min":0,"x_max":173.625,"ha":347,"o":"m 0 0 l 0 868 l 173 868 l 173 0 l 0 0 "},"Ύ":{"x_min":0,"x_max":1215.625,"ha":1389,"o":"m 0 521 l 0 694 l 173 694 l 173 868 l 521 868 l 521 694 l 694 694 l 694 521 l 868 521 l 868 694 l 1042 694 l 1042 868 l 1215 868 l 1215 695 l 1041 695 l 1041 521 l 868 521 l 868 0 l 694 0 l 694 521 l 521 521 l 521 695 l 173 695 l 173 521 l 0 521 "},"ѕ":{"x_min":0,"x_max":694.5,"ha":868,"o":"m 0 0 l 0 173 l 347 173 l 347 347 l 0 347 l 0 520 l 173 520 l 173 694 l 694 694 l 694 521 l 347 521 l 347 347 l 694 347 l 694 174 l 520 174 l 520 0 l 0 0 "},"Ш":{"x_min":0,"x_max":1215.625,"ha":1389,"o":"m 0 0 l 0 868 l 173 868 l 173 173 l 521 173 l 521 868 l 694 868 l 694 173 l 1042 173 l 1042 868 l 1215 868 l 1215 0 l 0 0 "},"M":{"x_min":0,"x_max":868.625,"ha":1042,"o":"m 0 0 l 0 868 l 173 868 l 173 694 l 347 694 l 347 520 l 520 520 l 520 694 l 695 694 l 695 868 l 868 868 l 868 0 l 695 0 l 695 521 l 520 521 l 520 347 l 347 347 l 347 521 l 173 521 l 173 0 l 0 0 "},"Ψ":{"x_min":0,"x_max":868.625,"ha":1042,"o":"m 0 521 l 0 868 l 173 868 l 173 521 l 0 521 m 174 347 l 174 520 l 347 520 l 347 868 l 520 868 l 520 520 l 695 520 l 695 868 l 868 868 l 868 521 l 695 521 l 695 347 l 520 347 l 520 0 l 347 0 l 347 347 l 174 347 "},"ũ":{"x_min":0,"x_max":694.625,"ha":868,"o":"m 0 173 l 0 695 l 173 695 l 173 173 l 521 173 l 521 695 l 694 695 l 694 0 l 174 0 l 174 173 l 0 173 m 0 868 l 0 1041 l 174 1041 l 174 1215 l 347 1215 l 347 1041 l 521 1041 l 521 1215 l 694 1215 l 694 1042 l 521 1042 l 521 868 l 347 868 l 347 1042 l 173 1042 l 173 868 l 0 868 "},"ŭ":{"x_min":0,"x_max":694.625,"ha":868,"o":"m 0 173 l 0 695 l 173 695 l 173 173 l 521 173 l 521 695 l 694 695 l 694 0 l 173 0 l 173 173 l 0 173 m 0 1042 l 0 1215 l 173 1215 l 173 1041 l 521 1041 l 521 1215 l 694 1215 l 694 1042 l 521 1042 l 521 868 l 173 868 l 173 1042 l 0 1042 "},"Ə":{"x_min":0,"x_max":694.625,"ha":868,"o":"m 0 0 l 0 173 l 174 173 l 174 347 l 0 347 l 0 694 l 521 694 l 521 520 l 694 520 l 694 173 l 521 173 l 521 0 l 0 0 m 173 353 l 347 353 l 347 180 l 521 180 l 521 514 l 173 514 l 173 353 "},"{":{"x_min":0,"x_max":520.625,"ha":695,"o":"m 0 347 l 0 520 l 174 520 l 174 868 l 347 868 l 347 1041 l 520 1041 l 520 868 l 347 868 l 347 520 l 173 520 l 173 347 l 347 347 l 347 0 l 520 0 l 520 -173 l 347 -173 l 347 0 l 174 0 l 174 347 l 0 347 "},"¼":{"x_min":0,"x_max":1215.625,"ha":1389,"o":"m 0 0 l 0 173 l 174 173 l 174 347 l 0 347 l 0 868 l 173 868 l 173 347 l 347 347 l 347 520 l 521 520 l 521 694 l 694 694 l 694 868 l 867 868 l 867 695 l 694 695 l 694 520 l 867 520 l 867 347 l 1042 347 l 1042 494 l 1215 494 l 1215 0 l 1042 0 l 1042 174 l 694 174 l 694 521 l 520 521 l 520 347 l 347 347 l 347 174 l 173 174 l 173 0 l 0 0 "},"ι":{"x_min":0,"x_max":347.625,"ha":521,"o":"m 0 173 l 0 695 l 173 695 l 173 173 l 0 173 m 174 0 l 174 173 l 347 173 l 347 0 l 174 0 "},"Ĳ":{"x_min":0,"x_max":694.625,"ha":868,"o":"m 0 0 l 0 868 l 173 868 l 173 0 l 0 0 m 347 0 l 347 173 l 521 173 l 521 868 l 694 868 l 694 173 l 520 173 l 520 0 l 347 0 "},"Ê":{"x_min":0,"x_max":867.625,"ha":1042,"o":"m 0 0 l 0 868 l 867 868 l 867 695 l 173 695 l 173 520 l 694 520 l 694 347 l 173 347 l 173 173 l 867 173 l 867 0 l 0 0 m 174 1042 l 174 1215 l 347 1215 l 347 1388 l 521 1388 l 521 1215 l 694 1215 l 694 1042 l 521 1042 l 521 1215 l 347 1215 l 347 1042 l 174 1042 "},"Ά":{"x_min":0,"x_max":1215.625,"ha":1389,"o":"m 0 521 l 0 695 l 174 695 l 174 868 l 347 868 l 347 694 l 173 694 l 173 521 l 0 521 m 347 0 l 347 695 l 520 695 l 520 868 l 1042 868 l 1042 695 l 1215 695 l 1215 0 l 1042 0 l 1042 347 l 520 347 l 520 0 l 347 0 m 520 520 l 1042 520 l 1042 688 l 520 688 l 520 520 "},"ǭ":{"x_min":0,"x_max":694.625,"ha":868,"o":"m 0 173 l 0 521 l 174 521 l 174 694 l 520 694 l 520 521 l 694 521 l 694 173 l 520 173 l 520 0 l 347 0 l 347 -173 l 520 -173 l 520 -347 l 347 -347 l 347 -173 l 174 -173 l 174 173 l 0 173 m 0 868 l 0 1041 l 694 1041 l 694 868 l 0 868 m 173 180 l 521 180 l 521 514 l 173 514 l 173 180 "},")":{"x_min":0,"x_max":347.625,"ha":521,"o":"m 0 0 l 174 0 l 174 868 l 0 868 l 0 1041 l 173 1041 l 173 868 l 347 868 l 347 0 l 173 0 l 173 -173 l 0 -173 l 0 0 "},"ε":{"x_min":0,"x_max":694.625,"ha":868,"o":"m 0 0 l 0 173 l 174 173 l 174 347 l 0 347 l 0 520 l 174 520 l 174 694 l 521 694 l 521 520 l 694 520 l 694 347 l 521 347 l 521 521 l 173 521 l 173 347 l 347 347 l 347 173 l 173 173 l 173 0 l 521 0 l 521 173 l 694 173 l 694 0 l 521 0 l 521 -173 l 174 -173 l 174 0 l 0 0 "},"э":{"x_min":0,"x_max":694.625,"ha":868,"o":"m 0 174 l 0 347 l 173 347 l 173 173 l 521 173 l 521 347 l 348 347 l 348 520 l 521 520 l 521 695 l 173 695 l 173 521 l 0 521 l 0 694 l 174 694 l 174 868 l 521 868 l 521 694 l 694 694 l 694 174 l 521 174 l 521 0 l 174 0 l 174 174 l 0 174 "},"ш":{"x_min":0,"x_max":868.625,"ha":1042,"o":"m 0 0 l 0 695 l 173 695 l 173 173 l 347 173 l 347 695 l 520 695 l 520 173 l 695 173 l 695 695 l 868 695 l 868 0 l 0 0 "},"Я":{"x_min":0,"x_max":867.625,"ha":1042,"o":"m 0 0 l 0 173 l 174 173 l 174 521 l 0 521 l 0 694 l 174 694 l 174 868 l 867 868 l 867 0 l 694 0 l 694 347 l 347 347 l 347 173 l 173 173 l 173 0 l 0 0 m 180 520 l 694 520 l 694 695 l 180 695 l 180 520 "},"a":{"x_min":0,"x_max":694.625,"ha":868,"o":"m 0 173 l 0 520 l 173 520 l 173 694 l 521 694 l 521 520 l 694 520 l 694 0 l 173 0 l 173 173 l 0 173 m 173 180 l 521 180 l 521 514 l 173 514 l 173 180 "},"Ɲ":{"x_min":0,"x_max":1041.625,"ha":1215,"o":"m 0 0 l 174 0 l 174 868 l 347 868 l 347 694 l 521 694 l 521 520 l 694 520 l 694 347 l 868 347 l 868 868 l 1041 868 l 1041 0 l 868 0 l 868 174 l 694 174 l 694 347 l 521 347 l 521 521 l 347 521 l 347 0 l 173 0 l 173 -173 l 0 -173 l 0 0 "},"Ę":{"x_min":0,"x_max":867.625,"ha":1042,"o":"m 0 0 l 0 868 l 867 868 l 867 695 l 173 695 l 173 520 l 694 520 l 694 347 l 173 347 l 173 173 l 867 173 l 867 0 l 694 0 l 694 -173 l 867 -173 l 867 -347 l 694 -347 l 694 -173 l 521 -173 l 521 0 l 0 0 "},"Z":{"x_min":1,"x_max":867.625,"ha":1042,"o":"m 1 0 l 1 173 l 174 173 l 174 347 l 347 347 l 347 520 l 521 520 l 521 695 l 1 695 l 1 868 l 867 868 l 867 695 l 694 695 l 694 520 l 520 520 l 520 347 l 347 347 l 347 173 l 867 173 l 867 0 l 1 0 "}," ":{"x_min":0,"x_max":0,"ha":260},"k":{"x_min":0,"x_max":694.625,"ha":868,"o":"m 0 0 l 0 868 l 173 868 l 173 347 l 347 347 l 347 520 l 521 520 l 521 694 l 694 694 l 694 521 l 520 521 l 520 347 l 694 347 l 694 0 l 521 0 l 521 347 l 347 347 l 347 174 l 173 174 l 173 0 l 0 0 "},"Ù":{"x_min":0,"x_max":868.625,"ha":1042,"o":"m 0 173 l 0 868 l 173 868 l 173 173 l 695 173 l 695 868 l 868 868 l 868 173 l 695 173 l 695 0 l 174 0 l 174 173 l 0 173 m 174 1215 l 174 1388 l 347 1388 l 347 1215 l 520 1215 l 520 1042 l 347 1042 l 347 1215 l 174 1215 "},"Ů":{"x_min":0,"x_max":867.625,"ha":1042,"o":"m 0 173 l 0 868 l 173 868 l 173 173 l 694 173 l 694 868 l 867 868 l 867 173 l 694 173 l 694 0 l 174 0 l 174 173 l 0 173 m 174 1042 l 174 1215 l 347 1215 l 347 1389 l 520 1389 l 520 1215 l 694 1215 l 694 1042 l 520 1042 l 520 868 l 347 868 l 347 1042 l 174 1042 m 347 1049 l 521 1049 l 521 1209 l 347 1209 l 347 1049 "},"¢":{"x_min":0,"x_max":693.625,"ha":868,"o":"m 0 173 l 0 521 l 173 521 l 173 694 l 347 694 l 347 868 l 520 868 l 520 694 l 693 694 l 693 521 l 173 521 l 173 173 l 693 173 l 693 0 l 520 0 l 520 -173 l 347 -173 l 347 0 l 173 0 l 173 173 l 0 173 "},"В":{"x_min":0,"x_max":868.40625,"ha":1042,"o":"m 0 0 l 0 868 l 694 868 l 694 694 l 868 694 l 868 521 l 694 521 l 694 347 l 868 347 l 868 174 l 694 174 l 694 0 l 0 0 m 173 173 l 688 173 l 688 347 l 173 347 l 173 173 m 173 520 l 688 520 l 688 695 l 173 695 l 173 520 "},"І":{"x_min":0,"x_max":173.625,"ha":347,"o":"m 0 0 l 0 868 l 173 868 l 173 0 l 0 0 "},"ē":{"x_min":0,"x_max":694.625,"ha":868,"o":"m 0 173 l 0 520 l 173 520 l 173 694 l 694 694 l 694 347 l 520 347 l 520 173 l 694 173 l 694 0 l 173 0 l 173 173 l 0 173 m 0 868 l 0 1041 l 694 1041 l 694 868 l 0 868 m 173 180 l 347 180 l 347 353 l 521 353 l 521 514 l 173 514 l 173 180 "},"β":{"x_min":0,"x_max":694.625,"ha":868,"o":"m 0 0 l 0 694 l 173 694 l 173 0 l 0 0 m 174 695 l 174 868 l 520 868 l 520 695 l 174 695 m 347 0 l 347 173 l 521 173 l 521 347 l 347 347 l 347 521 l 521 521 l 521 694 l 694 694 l 694 521 l 520 521 l 520 347 l 694 347 l 694 173 l 520 173 l 520 0 l 347 0 "},"≠":{"x_min":1,"x_max":867.625,"ha":1042,"o":"m 1 174 l 1 347 l 347 347 l 347 521 l 1 521 l 1 694 l 521 694 l 521 868 l 694 868 l 694 694 l 867 694 l 867 521 l 520 521 l 520 347 l 867 347 l 867 174 l 347 174 l 347 0 l 174 0 l 174 174 l 1 174 "},"Ƿ":{"x_min":0,"x_max":694.625,"ha":868,"o":"m 0 -347 l 0 868 l 520 868 l 520 695 l 694 695 l 694 173 l 520 173 l 520 0 l 347 0 l 347 -173 l 173 -173 l 173 -347 l 0 -347 m 173 0 l 347 0 l 347 173 l 521 173 l 521 695 l 173 695 l 173 0 "},"¥":{"x_min":0,"x_max":867.625,"ha":1042,"o":"m 0 695 l 0 868 l 173 868 l 173 694 l 347 694 l 347 521 l 521 521 l 521 694 l 694 694 l 694 868 l 867 868 l 867 695 l 694 695 l 694 521 l 520 521 l 520 347 l 694 347 l 694 174 l 520 174 l 520 0 l 347 0 l 347 174 l 174 174 l 174 347 l 347 347 l 347 521 l 174 521 l 174 695 l 0 695 "},"ƀ":{"x_min":0,"x_max":694.40625,"ha":868,"o":"m 0 0 l 0 694 l 173 694 l 173 868 l 0 868 l 0 1041 l 173 1041 l 173 868 l 347 868 l 347 1041 l 520 1041 l 520 868 l 347 868 l 347 694 l 520 694 l 520 521 l 694 521 l 694 173 l 520 173 l 520 0 l 0 0 m 173 173 l 514 173 l 514 521 l 173 521 l 173 173 "},"Ĥ":{"x_min":0,"x_max":867.625,"ha":1042,"o":"m 0 0 l 0 868 l 173 868 l 173 520 l 694 520 l 694 868 l 867 868 l 867 0 l 694 0 l 694 347 l 173 347 l 173 0 l 0 0 m 174 1042 l 174 1215 l 347 1215 l 347 1388 l 521 1388 l 521 1215 l 694 1215 l 694 1042 l 521 1042 l 521 1215 l 347 1215 l 347 1042 l 174 1042 "},"U":{"x_min":0,"x_max":867.625,"ha":1042,"o":"m 0 173 l 0 868 l 173 868 l 173 173 l 694 173 l 694 868 l 867 868 l 867 173 l 694 173 l 694 0 l 173 0 l 173 173 l 0 173 "},"Ñ":{"x_min":0,"x_max":867.625,"ha":1042,"o":"m 0 0 l 0 868 l 173 868 l 173 694 l 347 694 l 347 520 l 520 520 l 520 347 l 694 347 l 694 868 l 867 868 l 867 0 l 694 0 l 694 174 l 521 174 l 521 347 l 347 347 l 347 521 l 173 521 l 173 0 l 0 0 m 174 1043 l 174 1216 l 347 1216 l 347 1390 l 520 1390 l 520 1216 l 694 1216 l 694 1390 l 867 1390 l 867 1217 l 694 1217 l 694 1043 l 521 1043 l 521 1217 l 347 1217 l 347 1043 l 174 1043 "},"F":{"x_min":0,"x_max":867.625,"ha":1042,"o":"m 0 0 l 0 868 l 867 868 l 867 695 l 173 695 l 173 520 l 693 520 l 693 347 l 173 347 l 173 0 l 0 0 "},"Ќ":{"x_min":0,"x_max":867.625,"ha":1042,"o":"m 0 0 l 0 868 l 173 868 l 173 521 l 521 521 l 521 694 l 694 694 l 694 868 l 867 868 l 867 695 l 694 695 l 694 521 l 520 521 l 520 347 l 694 347 l 694 173 l 867 173 l 867 0 l 694 0 l 694 174 l 521 174 l 521 347 l 173 347 l 173 0 l 0 0 m 347 868 l 347 1041 l 521 1041 l 521 1215 l 694 1215 l 694 1042 l 520 1042 l 520 868 l 347 868 "},"Ƶ":{"x_min":1,"x_max":867.625,"ha":1042,"o":"m 1 0 l 1 173 l 174 173 l 174 347 l 1 347 l 1 520 l 521 520 l 521 695 l 1 695 l 1 868 l 867 868 l 867 695 l 694 695 l 694 520 l 867 520 l 867 347 l 347 347 l 347 173 l 867 173 l 867 0 l 1 0 "},"å":{"x_min":0,"x_max":694.625,"ha":868,"o":"m 0 173 l 0 520 l 174 520 l 174 694 l 0 694 l 0 868 l 174 868 l 174 1041 l 521 1041 l 521 868 l 694 868 l 694 694 l 521 694 l 521 520 l 694 520 l 694 0 l 174 0 l 174 173 l 0 173 m 173 180 l 521 180 l 521 514 l 173 514 l 173 180 m 173 701 l 521 701 l 521 861 l 173 861 l 173 701 "},"Ϋ":{"x_min":0,"x_max":867.625,"ha":1042,"o":"m 0 695 l 0 868 l 173 868 l 173 694 l 347 694 l 347 521 l 521 521 l 521 694 l 694 694 l 694 868 l 867 868 l 867 695 l 694 695 l 694 521 l 521 521 l 521 0 l 347 0 l 347 521 l 174 521 l 174 695 l 0 695 m 174 1042 l 174 1215 l 347 1215 l 347 1042 l 174 1042 m 521 1042 l 521 1215 l 694 1215 l 694 1042 l 521 1042 "},"0":{"x_min":0,"x_max":867.625,"ha":1042,"o":"m 0 173 l 0 694 l 173 694 l 173 868 l 694 868 l 694 694 l 867 694 l 867 173 l 694 173 l 694 0 l 173 0 l 173 173 l 0 173 m 173 180 l 694 180 l 694 688 l 173 688 l 173 180 "},"ō":{"x_min":0,"x_max":694.625,"ha":868,"o":"m 0 174 l 0 521 l 174 521 l 174 694 l 521 694 l 521 521 l 694 521 l 694 174 l 521 174 l 521 0 l 174 0 l 174 174 l 0 174 m 0 868 l 0 1041 l 694 1041 l 694 868 l 0 868 m 173 180 l 521 180 l 521 514 l 173 514 l 173 180 "},"”":{"x_min":0,"x_max":520.625,"ha":695,"o":"m 0 521 l 0 868 l 173 868 l 173 521 l 0 521 m 347 521 l 347 868 l 520 868 l 520 521 l 347 521 "},"ö":{"x_min":0,"x_max":694.625,"ha":868,"o":"m 0 174 l 0 521 l 174 521 l 174 694 l 521 694 l 521 521 l 694 521 l 694 174 l 521 174 l 521 0 l 174 0 l 174 174 l 0 174 m 0 868 l 0 1041 l 173 1041 l 173 868 l 0 868 m 173 180 l 521 180 l 521 514 l 173 514 l 173 180 m 521 868 l 521 1041 l 694 1041 l 694 868 l 521 868 "},"ć":{"x_min":0,"x_max":694.625,"ha":868,"o":"m 0 173 l 0 521 l 174 521 l 174 694 l 694 694 l 694 521 l 173 521 l 173 173 l 694 173 l 694 0 l 174 0 l 174 173 l 0 173 m 174 868 l 174 1041 l 347 1041 l 347 1215 l 520 1215 l 520 1042 l 347 1042 l 347 868 l 174 868 "},"þ":{"x_min":0,"x_max":694.40625,"ha":868,"o":"m 0 -347 l 0 868 l 173 868 l 173 520 l 520 520 l 520 347 l 694 347 l 694 174 l 520 174 l 520 0 l 173 0 l 173 -347 l 0 -347 m 173 173 l 514 173 l 514 347 l 173 347 l 173 173 "},"]":{"x_min":0,"x_max":347.25,"ha":521,"o":"m 0 0 l 174 0 l 174 868 l 0 868 l 0 1041 l 347 1041 l 347 -173 l 0 -173 l 0 0 "},"А":{"x_min":0,"x_max":867.625,"ha":868,"o":"m 0 0 l 0 694 l 173 694 l 173 868 l 694 868 l 694 694 l 867 694 l 867 0 l 694 0 l 694 347 l 173 347 l 173 0 l 0 0 m 173 520 l 694 520 l 694 688 l 173 688 l 173 520 "},"Ы":{"x_min":0,"x_max":1215.625,"ha":1389,"o":"m 0 0 l 0 868 l 173 868 l 173 520 l 694 520 l 694 347 l 868 347 l 868 174 l 694 174 l 694 0 l 0 0 m 173 173 l 688 173 l 688 347 l 173 347 l 173 173 m 1042 0 l 1042 868 l 1215 868 l 1215 0 l 1042 0 "},"Ǒ":{"x_min":0,"x_max":867.625,"ha":1042,"o":"m 0 173 l 0 694 l 174 694 l 174 868 l 694 868 l 694 694 l 867 694 l 867 173 l 694 173 l 694 0 l 174 0 l 174 173 l 0 173 m 173 180 l 694 180 l 694 688 l 173 688 l 173 180 m 174 1215 l 174 1388 l 347 1388 l 347 1215 l 521 1215 l 521 1388 l 694 1388 l 694 1215 l 521 1215 l 521 1042 l 347 1042 l 347 1215 l 174 1215 "},"ĭ":{"x_min":-174,"x_max":347.625,"ha":347,"o":"m -174 868 l -174 1041 l 0 1041 l 0 868 l 174 868 l 174 1041 l 347 1041 l 347 868 l 173 868 l 173 695 l 0 695 l 0 868 l -174 868 m 0 0 l 0 521 l 173 521 l 173 0 l 0 0 "},"8":{"x_min":0,"x_max":867.625,"ha":1042,"o":"m 0 174 l 0 347 l 174 347 l 174 521 l 0 521 l 0 695 l 174 695 l 174 868 l 694 868 l 694 695 l 867 695 l 867 521 l 694 521 l 694 347 l 867 347 l 867 174 l 694 174 l 694 0 l 174 0 l 174 174 l 0 174 m 173 180 l 694 180 l 694 340 l 173 340 l 173 180 m 173 528 l 694 528 l 694 688 l 173 688 l 173 528 "},"ѯ":{"x_min":0,"x_max":694.625,"ha":868,"o":"m 0 0 l 174 0 l 174 173 l 521 173 l 521 347 l 348 347 l 348 521 l 521 521 l 521 695 l 173 695 l 173 521 l 0 521 l 0 694 l 174 694 l 174 868 l 521 868 l 521 694 l 694 694 l 694 521 l 521 521 l 521 347 l 694 347 l 694 173 l 521 173 l 521 0 l 173 0 l 173 -173 l 521 -173 l 521 -347 l 174 -347 l 174 -173 l 0 -173 l 0 0 m 0 1215 l 0 1388 l 173 1388 l 173 1215 l 521 1215 l 521 1388 l 694 1388 l 694 1215 l 521 1215 l 521 1042 l 174 1042 l 174 1215 l 0 1215 "},"ƿ":{"x_min":0,"x_max":694.625,"ha":868,"o":"m 0 -347 l 0 694 l 520 694 l 520 521 l 694 521 l 694 0 l 520 0 l 520 -173 l 347 -173 l 347 -347 l 0 -347 m 173 -173 l 347 -173 l 347 0 l 521 0 l 521 521 l 173 521 l 173 -173 "},"ѡ":{"x_min":0,"x_max":1215.625,"ha":1389,"o":"m 0 174 l 0 694 l 173 694 l 173 173 l 521 173 l 521 694 l 694 694 l 694 173 l 1042 173 l 1042 694 l 1215 694 l 1215 174 l 1042 174 l 1042 0 l 694 0 l 694 174 l 521 174 l 521 0 l 173 0 l 173 174 l 0 174 "},"R":{"x_min":0,"x_max":867.625,"ha":1042,"o":"m 0 0 l 0 868 l 694 868 l 694 694 l 867 694 l 867 521 l 694 521 l 694 173 l 867 173 l 867 0 l 694 0 l 694 173 l 521 173 l 521 347 l 173 347 l 173 0 l 0 0 m 173 520 l 687 520 l 687 695 l 173 695 l 173 520 "},"Ż":{"x_min":1,"x_max":867.625,"ha":1042,"o":"m 1 0 l 1 173 l 174 173 l 174 347 l 347 347 l 347 520 l 521 520 l 521 695 l 1 695 l 1 868 l 867 868 l 867 695 l 694 695 l 694 520 l 520 520 l 520 347 l 347 347 l 347 173 l 867 173 l 867 0 l 1 0 m 347 1042 l 347 1215 l 520 1215 l 520 1042 l 347 1042 "},"⇣":{"x_min":0,"x_max":868.625,"ha":1042,"o":"m 0 174 l 0 347 l 173 347 l 173 173 l 347 173 l 347 347 l 520 347 l 520 173 l 695 173 l 695 347 l 868 347 l 868 174 l 695 174 l 695 0 l 520 0 l 520 -173 l 347 -173 l 347 0 l 173 0 l 173 174 l 0 174 m 347 521 l 347 694 l 520 694 l 520 521 l 347 521 m 347 868 l 347 1041 l 520 1041 l 520 868 l 347 868 "},"ħ":{"x_min":1,"x_max":867.625,"ha":1042,"o":"m 1 695 l 1 868 l 694 868 l 694 695 l 347 695 l 347 520 l 694 520 l 694 347 l 867 347 l 867 0 l 694 0 l 694 347 l 347 347 l 347 0 l 174 0 l 174 695 l 1 695 "},"õ":{"x_min":0,"x_max":694.625,"ha":868,"o":"m 0 174 l 0 521 l 174 521 l 174 694 l 520 694 l 520 521 l 694 521 l 694 174 l 520 174 l 520 0 l 174 0 l 174 174 l 0 174 m 0 868 l 0 1041 l 174 1041 l 174 1215 l 347 1215 l 347 1041 l 521 1041 l 521 1215 l 694 1215 l 694 1042 l 520 1042 l 520 868 l 347 868 l 347 1042 l 173 1042 l 173 868 l 0 868 m 173 180 l 521 180 l 521 514 l 173 514 l 173 180 "},"ǝ":{"x_min":0,"x_max":694.625,"ha":868,"o":"m 0 0 l 0 347 l 174 347 l 174 521 l 0 521 l 0 694 l 521 694 l 521 521 l 694 521 l 694 173 l 521 173 l 521 0 l 0 0 m 173 180 l 521 180 l 521 514 l 347 514 l 347 340 l 173 340 l 173 180 "},"˙":{"x_min":0,"x_max":173.625,"ha":347,"o":"m 0 347 l 0 520 l 173 520 l 173 347 l 0 347 "},"ê":{"x_min":0,"x_max":694.625,"ha":868,"o":"m 0 173 l 0 520 l 173 520 l 173 694 l 694 694 l 694 347 l 520 347 l 520 173 l 694 173 l 694 0 l 173 0 l 173 173 l 0 173 m 0 868 l 0 1041 l 173 1041 l 173 1215 l 520 1215 l 520 1041 l 694 1041 l 694 868 l 521 868 l 521 1042 l 173 1042 l 173 868 l 0 868 m 173 180 l 347 180 l 347 353 l 521 353 l 521 514 l 173 514 l 173 180 "},"„":{"x_min":-174,"x_max":520.625,"ha":695,"o":"m -174 -173 l 0 -173 l 0 173 l 173 173 l 173 -173 l 347 -173 l 347 173 l 520 173 l 520 -174 l 347 -174 l 347 -347 l 173 -347 l 173 -174 l 0 -174 l 0 -347 l -174 -347 l -174 -173 "},"ч":{"x_min":0,"x_max":694.625,"ha":868,"o":"m 0 347 l 0 695 l 173 695 l 173 347 l 521 347 l 521 695 l 694 695 l 694 0 l 521 0 l 521 174 l 173 174 l 173 347 l 0 347 "},"δ":{"x_min":0,"x_max":694.625,"ha":868,"o":"m 0 174 l 0 347 l 174 347 l 174 695 l 0 695 l 0 868 l 694 868 l 694 695 l 347 695 l 347 520 l 521 520 l 521 347 l 694 347 l 694 174 l 521 174 l 521 0 l 174 0 l 174 174 l 0 174 m 173 180 l 521 180 l 521 340 l 173 340 l 173 180 "},"Â":{"x_min":0,"x_max":867.625,"ha":1042,"o":"m 0 0 l 0 694 l 174 694 l 174 868 l 694 868 l 694 694 l 867 694 l 867 0 l 694 0 l 694 347 l 173 347 l 173 0 l 0 0 m 173 520 l 694 520 l 694 688 l 173 688 l 173 520 m 174 1042 l 174 1215 l 347 1215 l 347 1388 l 521 1388 l 521 1215 l 694 1215 l 694 1042 l 521 1042 l 521 1215 l 347 1215 l 347 1042 l 174 1042 "},"Į":{"x_min":0,"x_max":347.625,"ha":521,"o":"m 0 0 l 174 0 l 174 868 l 347 868 l 347 0 l 173 0 l 173 -173 l 347 -173 l 347 -347 l 174 -347 l 174 -173 l 0 -173 l 0 0 "},"ω":{"x_min":0,"x_max":867.625,"ha":1042,"o":"m 0 173 l 0 695 l 173 695 l 173 173 l 347 173 l 347 521 l 520 521 l 520 173 l 694 173 l 694 695 l 867 695 l 867 173 l 694 173 l 694 0 l 520 0 l 520 173 l 347 173 l 347 0 l 173 0 l 173 173 l 0 173 "},"Ţ":{"x_min":0,"x_max":867.625,"ha":1042,"o":"m 0 695 l 0 868 l 867 868 l 867 695 l 520 695 l 520 0 l 694 0 l 694 -173 l 520 -173 l 520 -347 l 347 -347 l 347 -173 l 521 -173 l 521 0 l 347 0 l 347 695 l 0 695 "},"´":{"x_min":0,"x_max":347.625,"ha":521,"o":"m 0 521 l 0 694 l 174 694 l 174 868 l 347 868 l 347 695 l 173 695 l 173 521 l 0 521 "},"ǥ":{"x_min":0,"x_max":694.625,"ha":868,"o":"m 0 173 l 0 520 l 174 520 l 174 694 l 521 694 l 521 520 l 694 520 l 694 -347 l 174 -347 l 174 -173 l 521 -173 l 521 0 l 174 0 l 174 173 l 0 173 m 173 180 l 521 180 l 521 514 l 173 514 l 173 180 "},"Ɛ":{"x_min":0,"x_max":867.625,"ha":1042,"o":"m 0 174 l 0 347 l 173 347 l 173 521 l 0 521 l 0 694 l 173 694 l 173 868 l 694 868 l 694 694 l 867 694 l 867 521 l 694 521 l 694 695 l 173 695 l 173 521 l 520 521 l 520 347 l 173 347 l 173 173 l 694 173 l 694 347 l 867 347 l 867 174 l 694 174 l 694 0 l 173 0 l 173 174 l 0 174 "},"Ƈ":{"x_min":0,"x_max":1041.625,"ha":1215,"o":"m 0 174 l 0 694 l 173 694 l 173 868 l 694 868 l 694 694 l 868 694 l 868 868 l 1041 868 l 1041 695 l 867 695 l 867 521 l 694 521 l 694 695 l 173 695 l 173 173 l 694 173 l 694 347 l 867 347 l 867 174 l 694 174 l 694 0 l 173 0 l 173 174 l 0 174 "},"Ĉ":{"x_min":0,"x_max":867.625,"ha":1042,"o":"m 0 174 l 0 694 l 174 694 l 174 868 l 694 868 l 694 694 l 867 694 l 867 521 l 694 521 l 694 695 l 173 695 l 173 173 l 694 173 l 694 347 l 867 347 l 867 174 l 694 174 l 694 0 l 174 0 l 174 174 l 0 174 m 174 1042 l 174 1215 l 347 1215 l 347 1388 l 521 1388 l 521 1215 l 694 1215 l 694 1042 l 521 1042 l 521 1215 l 347 1215 l 347 1042 l 174 1042 "},"И":{"x_min":0,"x_max":868.625,"ha":1042,"o":"m 0 0 l 0 868 l 173 868 l 173 347 l 347 347 l 347 520 l 520 520 l 520 694 l 695 694 l 695 868 l 868 868 l 868 0 l 695 0 l 695 521 l 520 521 l 520 347 l 347 347 l 347 174 l 173 174 l 173 0 l 0 0 "},"Љ":{"x_min":0,"x_max":1389.40625,"ha":1563,"o":"m 0 0 l 0 173 l 174 173 l 174 868 l 694 868 l 694 520 l 1215 520 l 1215 347 l 1389 347 l 1389 174 l 1215 174 l 1215 0 l 521 0 l 521 695 l 347 695 l 347 174 l 173 174 l 173 0 l 0 0 m 694 173 l 1209 173 l 1209 347 l 694 347 l 694 173 "},"р":{"x_min":0,"x_max":694.625,"ha":868,"o":"m 0 -173 l 0 694 l 521 694 l 521 520 l 694 520 l 694 173 l 521 173 l 521 0 l 173 0 l 173 -173 l 0 -173 m 173 180 l 521 180 l 521 514 l 173 514 l 173 180 "},"Ω":{"x_min":0,"x_max":867.625,"ha":1042,"o":"m 0 0 l 0 173 l 174 173 l 174 347 l 0 347 l 0 694 l 173 694 l 173 347 l 347 347 l 347 0 l 0 0 m 174 695 l 174 868 l 694 868 l 694 695 l 174 695 m 521 0 l 521 347 l 694 347 l 694 694 l 867 694 l 867 347 l 694 347 l 694 173 l 867 173 l 867 0 l 521 0 "},"т":{"x_min":0,"x_max":867.625,"ha":1042,"o":"m 0 521 l 0 694 l 867 694 l 867 521 l 520 521 l 520 0 l 347 0 l 347 521 l 0 521 "},"П":{"x_min":0,"x_max":867.625,"ha":1042,"o":"m 0 0 l 0 868 l 867 868 l 867 0 l 694 0 l 694 695 l 173 695 l 173 0 l 0 0 "},"Ö":{"x_min":0,"x_max":867.625,"ha":1042,"o":"m 0 176 l 0 694 l 174 694 l 174 864 l 694 864 l 694 694 l 867 694 l 867 176 l 694 176 l 694 0 l 174 0 l 174 176 l 0 176 m 173 180 l 694 180 l 694 684 l 173 684 l 173 180 m 174 1042 l 174 1215 l 347 1215 l 347 1042 l 174 1042 m 521 1042 l 521 1215 l 694 1215 l 694 1042 l 521 1042 "},"z":{"x_min":1,"x_max":693.625,"ha":868,"o":"m 1 0 l 1 173 l 174 173 l 174 347 l 347 347 l 347 521 l 1 521 l 1 694 l 693 694 l 693 521 l 520 521 l 520 347 l 347 347 l 347 173 l 693 173 l 693 0 l 1 0 "},"™":{"x_min":1,"x_max":1388.625,"ha":1563,"o":"m 1 695 l 1 868 l 521 868 l 521 694 l 694 694 l 694 868 l 868 868 l 868 694 l 1041 694 l 1041 868 l 1215 868 l 1215 694 l 1388 694 l 1388 347 l 1215 347 l 1215 695 l 1041 695 l 1041 347 l 868 347 l 868 695 l 694 695 l 694 347 l 521 347 l 521 695 l 347 695 l 347 347 l 174 347 l 174 695 l 1 695 "},"Θ":{"x_min":0,"x_max":867.625,"ha":1042,"o":"m 0 173 l 0 694 l 173 694 l 173 868 l 694 868 l 694 694 l 867 694 l 867 173 l 694 173 l 694 0 l 173 0 l 173 173 l 0 173 m 173 180 l 694 180 l 694 347 l 173 347 l 173 180 m 173 520 l 694 520 l 694 688 l 173 688 l 173 520 "},"Ř":{"x_min":0,"x_max":867.625,"ha":1042,"o":"m 0 0 l 0 868 l 694 868 l 694 694 l 867 694 l 867 521 l 694 521 l 694 173 l 867 173 l 867 0 l 694 0 l 694 173 l 521 173 l 521 347 l 173 347 l 173 0 l 0 0 m 173 520 l 687 520 l 687 695 l 173 695 l 173 520 m 174 1215 l 174 1388 l 347 1388 l 347 1215 l 521 1215 l 521 1388 l 694 1388 l 694 1215 l 521 1215 l 521 1042 l 347 1042 l 347 1215 l 174 1215 "},"Ǭ":{"x_min":0,"x_max":867.625,"ha":1042,"o":"m 0 173 l 0 694 l 174 694 l 174 868 l 694 868 l 694 694 l 867 694 l 867 173 l 694 173 l 694 0 l 520 0 l 520 -173 l 694 -173 l 694 -347 l 521 -347 l 521 -173 l 347 -173 l 347 0 l 174 0 l 174 173 l 0 173 m 173 180 l 694 180 l 694 688 l 173 688 l 173 180 m 174 1042 l 174 1215 l 694 1215 l 694 1042 l 174 1042 "},"Ň":{"x_min":0,"x_max":867.625,"ha":1042,"o":"m 0 0 l 0 868 l 173 868 l 173 694 l 347 694 l 347 520 l 520 520 l 520 347 l 694 347 l 694 868 l 867 868 l 867 0 l 694 0 l 694 174 l 521 174 l 521 347 l 347 347 l 347 521 l 173 521 l 173 0 l 0 0 m 174 1215 l 174 1388 l 347 1388 l 347 1215 l 521 1215 l 521 1388 l 694 1388 l 694 1215 l 520 1215 l 520 1042 l 347 1042 l 347 1215 l 174 1215 "},"ƴ":{"x_min":0,"x_max":867.625,"ha":1042,"o":"m 0 173 l 0 695 l 173 695 l 173 173 l 521 173 l 521 695 l 694 695 l 694 868 l 867 868 l 867 695 l 694 695 l 694 -173 l 521 -173 l 521 -347 l 174 -347 l 174 -173 l 521 -173 l 521 0 l 174 0 l 174 173 l 0 173 "},"É":{"x_min":0,"x_max":867.625,"ha":1042,"o":"m 0 0 l 0 868 l 867 868 l 867 695 l 173 695 l 173 520 l 694 520 l 694 347 l 173 347 l 173 173 l 867 173 l 867 0 l 0 0 m 347 1042 l 347 1215 l 521 1215 l 521 1388 l 694 1388 l 694 1215 l 520 1215 l 520 1042 l 347 1042 "},"ѿ":{"x_min":0,"x_max":1215.625,"ha":1389,"o":"m 0 174 l 0 694 l 173 694 l 173 173 l 521 173 l 521 694 l 694 694 l 694 173 l 1042 173 l 1042 694 l 1215 694 l 1215 174 l 1042 174 l 1042 0 l 694 0 l 694 174 l 521 174 l 521 0 l 173 0 l 173 174 l 0 174 m 173 868 l 173 1041 l 1042 1041 l 1042 868 l 173 868 "},"и":{"x_min":0,"x_max":694.625,"ha":868,"o":"m 0 0 l 0 695 l 173 695 l 173 347 l 347 347 l 347 520 l 521 520 l 521 695 l 694 695 l 694 0 l 521 0 l 521 347 l 347 347 l 347 174 l 173 174 l 173 0 l 0 0 "},"³":{"x_min":0,"x_max":520.625,"ha":695,"o":"m 0 174 l 0 347 l 347 347 l 347 521 l 173 521 l 173 695 l 0 695 l 0 868 l 347 868 l 347 695 l 520 695 l 520 347 l 347 347 l 347 174 l 0 174 "},"Ѧ":{"x_min":0,"x_max":1562.625,"ha":1736,"o":"m 0 0 l 0 173 l 174 173 l 174 347 l 347 347 l 347 520 l 521 520 l 521 694 l 694 694 l 694 867 l 867 867 l 867 694 l 1041 694 l 1041 520 l 1214 520 l 1214 347 l 867 347 l 867 0 l 694 0 l 694 347 l 347 347 l 347 174 l 173 174 l 173 0 l 0 0 m 694 352 l 868 352 l 868 687 l 694 687 l 694 352 m 1215 174 l 1215 347 l 1388 347 l 1388 173 l 1562 173 l 1562 0 l 1389 0 l 1389 174 l 1215 174 "},"[":{"x_min":0,"x_max":347.25,"ha":521,"o":"m 0 -173 l 0 1041 l 347 1041 l 347 868 l 173 868 l 173 0 l 347 0 l 347 -173 l 0 -173 "},"ζ":{"x_min":0,"x_max":520.625,"ha":694,"o":"m 0 0 l 0 521 l 174 521 l 174 695 l 0 695 l 0 868 l 520 868 l 520 695 l 347 695 l 347 521 l 173 521 l 173 0 l 0 0 m 0 -173 l 174 -173 l 174 0 l 347 0 l 347 -173 l 173 -173 l 173 -347 l 0 -347 l 0 -173 "},"Ǹ":{"x_min":0,"x_max":868.625,"ha":1042,"o":"m 0 0 l 0 868 l 173 868 l 173 694 l 347 694 l 347 520 l 520 520 l 520 347 l 695 347 l 695 868 l 868 868 l 868 0 l 695 0 l 695 174 l 520 174 l 520 347 l 347 347 l 347 521 l 173 521 l 173 0 l 0 0 m 174 1215 l 174 1388 l 347 1388 l 347 1215 l 520 1215 l 520 1042 l 347 1042 l 347 1215 l 174 1215 "},"∏":{"x_min":1,"x_max":867.625,"ha":1042,"o":"m 1 695 l 1 868 l 867 868 l 867 695 l 694 695 l 694 0 l 521 0 l 521 695 l 347 695 l 347 0 l 174 0 l 174 695 l 1 695 "},"Έ":{"x_min":0,"x_max":1214.625,"ha":1389,"o":"m 0 521 l 0 694 l 173 694 l 173 868 l 1214 868 l 1214 695 l 520 695 l 520 520 l 1040 520 l 1040 347 l 520 347 l 520 173 l 1214 173 l 1214 0 l 347 0 l 347 695 l 173 695 l 173 521 l 0 521 "},"Ρ":{"x_min":0,"x_max":868.40625,"ha":1042,"o":"m 0 0 l 0 868 l 694 868 l 694 694 l 868 694 l 868 521 l 694 521 l 694 347 l 173 347 l 173 0 l 0 0 m 173 520 l 688 520 l 688 695 l 173 695 l 173 520 "},"ğ":{"x_min":0,"x_max":694.625,"ha":868,"o":"m 0 173 l 0 520 l 174 520 l 174 694 l 521 694 l 521 520 l 694 520 l 694 -173 l 521 -173 l 521 -347 l 174 -347 l 174 -173 l 521 -173 l 521 0 l 174 0 l 174 173 l 0 173 m 0 1042 l 0 1215 l 173 1215 l 173 1041 l 521 1041 l 521 1215 l 694 1215 l 694 1042 l 521 1042 l 521 868 l 174 868 l 174 1042 l 0 1042 m 173 180 l 521 180 l 521 514 l 173 514 l 173 180 "},"ª":{"x_min":0,"x_max":520.625,"ha":695,"o":"m 0 0 l 0 173 l 520 173 l 520 0 l 0 0 m 0 521 l 0 695 l 174 695 l 174 868 l 347 868 l 347 695 l 520 695 l 520 347 l 174 347 l 174 521 l 0 521 m 173 527 l 347 527 l 347 688 l 173 688 l 173 527 "},"ї":{"x_min":-174,"x_max":347.625,"ha":347,"o":"m -174 695 l -174 868 l 0 868 l 0 695 l -174 695 m 0 0 l 0 521 l 173 521 l 173 0 l 0 0 m 174 695 l 174 868 l 347 868 l 347 695 l 174 695 "},"T":{"x_min":0,"x_max":867.625,"ha":1042,"o":"m 0 695 l 0 868 l 867 868 l 867 695 l 520 695 l 520 0 l 347 0 l 347 695 l 0 695 "},"š":{"x_min":0,"x_max":694.625,"ha":868,"o":"m 0 0 l 0 173 l 347 173 l 347 347 l 0 347 l 0 520 l 173 520 l 173 694 l 694 694 l 694 521 l 347 521 l 347 347 l 694 347 l 694 174 l 521 174 l 521 0 l 0 0 m 0 1042 l 0 1215 l 173 1215 l 173 1041 l 521 1041 l 521 1215 l 694 1215 l 694 1042 l 521 1042 l 521 868 l 173 868 l 173 1042 l 0 1042 "},"є":{"x_min":0,"x_max":694.625,"ha":868,"o":"m 0 174 l 0 694 l 174 694 l 174 868 l 521 868 l 521 694 l 694 694 l 694 521 l 521 521 l 521 695 l 173 695 l 173 520 l 346 520 l 346 347 l 173 347 l 173 173 l 521 173 l 521 347 l 694 347 l 694 174 l 521 174 l 521 0 l 174 0 l 174 174 l 0 174 "},"Þ":{"x_min":0,"x_max":694.40625,"ha":868,"o":"m 0 0 l 0 868 l 173 868 l 173 694 l 520 694 l 520 520 l 694 520 l 694 347 l 520 347 l 520 174 l 173 174 l 173 0 l 0 0 m 173 347 l 514 347 l 514 521 l 173 521 l 173 347 "},"j":{"x_min":0,"x_max":347.625,"ha":521,"o":"m 0 -173 l 174 -173 l 174 521 l 347 521 l 347 -173 l 173 -173 l 173 -347 l 0 -347 l 0 -173 m 174 695 l 174 868 l 347 868 l 347 695 l 174 695 "},"Ѱ":{"x_min":0,"x_max":868.625,"ha":1042,"o":"m 0 521 l 0 868 l 173 868 l 173 521 l 0 521 m 174 347 l 174 520 l 347 520 l 347 868 l 520 868 l 520 520 l 695 520 l 695 868 l 868 868 l 868 521 l 695 521 l 695 347 l 520 347 l 520 0 l 347 0 l 347 347 l 174 347 "},"Ƕ":{"x_min":0,"x_max":1388.625,"ha":1563,"o":"m 0 0 l 0 868 l 173 868 l 173 520 l 694 520 l 694 868 l 867 868 l 867 173 l 1215 173 l 1215 695 l 1388 695 l 1388 173 l 1215 173 l 1215 0 l 867 0 l 867 173 l 694 173 l 694 347 l 173 347 l 173 0 l 0 0 "},"Σ":{"x_min":1,"x_max":868.625,"ha":1042,"o":"m 1 0 l 1 173 l 174 173 l 174 347 l 347 347 l 347 521 l 174 521 l 174 695 l 1 695 l 1 868 l 868 868 l 868 521 l 695 521 l 695 695 l 347 695 l 347 520 l 520 520 l 520 347 l 347 347 l 347 173 l 695 173 l 695 347 l 868 347 l 868 0 l 1 0 "},"1":{"x_min":1,"x_max":347.625,"ha":521,"o":"m 1 695 l 1 868 l 347 868 l 347 0 l 174 0 l 174 695 l 1 695 "},"Ǜ":{"x_min":0,"x_max":867.625,"ha":1042,"o":"m 0 173 l 0 868 l 173 868 l 173 173 l 694 173 l 694 868 l 867 868 l 867 173 l 694 173 l 694 0 l 174 0 l 174 173 l 0 173 m 0 1042 l 0 1215 l 173 1215 l 173 1042 l 0 1042 m 174 1389 l 174 1562 l 347 1562 l 347 1388 l 520 1388 l 520 1215 l 694 1215 l 694 1042 l 521 1042 l 521 1215 l 347 1215 l 347 1389 l 174 1389 "},"ǒ":{"x_min":0,"x_max":694.625,"ha":868,"o":"m 0 174 l 0 521 l 174 521 l 174 694 l 521 694 l 521 521 l 694 521 l 694 174 l 521 174 l 521 0 l 174 0 l 174 174 l 0 174 m 0 1042 l 0 1215 l 173 1215 l 173 1041 l 521 1041 l 521 1215 l 694 1215 l 694 1042 l 521 1042 l 521 868 l 174 868 l 174 1042 l 0 1042 m 173 180 l 521 180 l 521 514 l 173 514 l 173 180 "},"ĉ":{"x_min":0,"x_max":694.625,"ha":868,"o":"m 0 173 l 0 521 l 173 521 l 173 694 l 694 694 l 694 521 l 173 521 l 173 173 l 694 173 l 694 0 l 173 0 l 173 173 l 0 173 m 0 868 l 0 1041 l 173 1041 l 173 1215 l 521 1215 l 521 1041 l 694 1041 l 694 868 l 521 868 l 521 1042 l 173 1042 l 173 868 l 0 868 "},"Ɔ":{"x_min":0,"x_max":867.625,"ha":1042,"o":"m 0 174 l 0 347 l 173 347 l 173 173 l 694 173 l 694 695 l 173 695 l 173 521 l 0 521 l 0 694 l 173 694 l 173 868 l 694 868 l 694 694 l 867 694 l 867 174 l 694 174 l 694 0 l 173 0 l 173 174 l 0 174 "},"ī":{"x_min":-173.625,"x_max":347.25,"ha":347,"o":"m -173 695 l -173 868 l 347 868 l 347 695 l -173 695 m 0 0 l 0 521 l 173 521 l 173 0 l 0 0 "},"О":{"x_min":0,"x_max":867.625,"ha":1042,"o":"m 0 173 l 0 694 l 173 694 l 173 868 l 694 868 l 694 694 l 867 694 l 867 173 l 694 173 l 694 0 l 173 0 l 173 173 l 0 173 m 173 180 l 694 180 l 694 688 l 173 688 l 173 180 "},"ξ":{"x_min":0,"x_max":520.625,"ha":694,"o":"m 0 0 l 0 347 l 174 347 l 174 694 l 0 694 l 0 868 l 174 868 l 174 1041 l 347 1041 l 347 868 l 173 868 l 173 694 l 520 694 l 520 521 l 347 521 l 347 347 l 173 347 l 173 0 l 347 0 l 347 -173 l 173 -173 l 173 -347 l 0 -347 l 0 -173 l 174 -173 l 174 0 l 0 0 "},"ƺ":{"x_min":0,"x_max":693.625,"ha":868,"o":"m 0 0 l 0 174 l 173 174 l 173 347 l 347 347 l 347 521 l 0 521 l 0 694 l 693 694 l 693 521 l 520 521 l 520 347 l 693 347 l 693 174 l 173 174 l 173 0 l 520 0 l 520 -173 l 173 -173 l 173 0 l 0 0 "},"Ď":{"x_min":0,"x_max":868.40625,"ha":1042,"o":"m 0 0 l 0 868 l 694 868 l 694 695 l 868 695 l 868 173 l 694 173 l 694 0 l 0 0 m 173 173 l 688 173 l 688 695 l 173 695 l 173 173 m 174 1215 l 174 1388 l 347 1388 l 347 1215 l 521 1215 l 521 1388 l 694 1388 l 694 1215 l 521 1215 l 521 1042 l 347 1042 l 347 1215 l 174 1215 "},"&":{"x_min":0,"x_max":1041.625,"ha":1215,"o":"m 0 174 l 0 347 l 173 347 l 173 521 l 0 521 l 0 694 l 173 694 l 173 868 l 694 868 l 694 694 l 867 694 l 867 521 l 694 521 l 694 347 l 173 347 l 173 173 l 868 173 l 868 347 l 1041 347 l 1041 174 l 867 174 l 867 0 l 173 0 l 173 174 l 0 174 m 173 527 l 694 527 l 694 688 l 173 688 l 173 527 "},"G":{"x_min":0,"x_max":867.625,"ha":1042,"o":"m 0 173 l 0 695 l 173 695 l 173 868 l 867 868 l 867 695 l 173 695 l 173 173 l 694 173 l 694 347 l 347 347 l 347 520 l 867 520 l 867 0 l 173 0 l 173 173 l 0 173 "},"ΰ":{"x_min":0,"x_max":694.625,"ha":868,"o":"m 0 173 l 0 695 l 173 695 l 173 173 l 521 173 l 521 695 l 694 695 l 694 0 l 174 0 l 174 173 l 0 173 m 0 868 l 0 1041 l 173 1041 l 173 868 l 0 868 m 174 1042 l 174 1215 l 347 1215 l 347 1388 l 520 1388 l 520 1215 l 347 1215 l 347 1042 l 174 1042 m 347 868 l 347 1041 l 520 1041 l 520 868 l 347 868 "},"`":{"x_min":0,"x_max":347.625,"ha":521,"o":"m 0 695 l 0 868 l 173 868 l 173 694 l 347 694 l 347 521 l 174 521 l 174 695 l 0 695 "},"ŏ":{"x_min":0,"x_max":694.625,"ha":868,"o":"m 0 174 l 0 521 l 174 521 l 174 694 l 521 694 l 521 521 l 694 521 l 694 174 l 521 174 l 521 0 l 174 0 l 174 174 l 0 174 m 0 1042 l 0 1215 l 173 1215 l 173 1041 l 521 1041 l 521 1215 l 694 1215 l 694 1042 l 521 1042 l 521 868 l 174 868 l 174 1042 l 0 1042 m 173 180 l 521 180 l 521 514 l 173 514 l 173 180 "},"º":{"x_min":0,"x_max":520.625,"ha":695,"o":"m 0 0 l 0 173 l 520 173 l 520 0 l 0 0 m 0 521 l 0 694 l 174 694 l 174 868 l 347 868 l 347 694 l 520 694 l 520 521 l 347 521 l 347 347 l 174 347 l 174 521 l 0 521 m 173 528 l 347 528 l 347 688 l 173 688 l 173 528 "},"∞":{"x_min":0,"x_max":867.625,"ha":1042,"o":"m 0 347 l 0 520 l 174 520 l 174 694 l 347 694 l 347 520 l 521 520 l 521 694 l 694 694 l 694 520 l 867 520 l 867 347 l 694 347 l 694 173 l 521 173 l 521 347 l 347 347 l 347 173 l 174 173 l 174 347 l 0 347 m 173 354 l 347 354 l 347 514 l 173 514 l 173 354 m 521 354 l 694 354 l 694 514 l 521 514 l 521 354 "},"ź":{"x_min":1,"x_max":693.625,"ha":868,"o":"m 1 0 l 1 173 l 174 173 l 174 347 l 347 347 l 347 521 l 1 521 l 1 694 l 693 694 l 693 521 l 520 521 l 520 347 l 347 347 l 347 173 l 693 173 l 693 0 l 1 0 m 174 868 l 174 1041 l 347 1041 l 347 1215 l 520 1215 l 520 1042 l 347 1042 l 347 868 l 174 868 "},"я":{"x_min":0,"x_max":694.625,"ha":868,"o":"m 0 0 l 0 173 l 173 173 l 173 347 l 0 347 l 0 520 l 173 520 l 173 694 l 694 694 l 694 0 l 521 0 l 521 174 l 173 174 l 173 0 l 0 0 m 180 347 l 521 347 l 521 521 l 180 521 l 180 347 "},"Ё":{"x_min":0,"x_max":867.625,"ha":1042,"o":"m 0 0 l 0 868 l 867 868 l 867 695 l 173 695 l 173 520 l 694 520 l 694 347 l 173 347 l 173 173 l 867 173 l 867 0 l 0 0 m 174 1043 l 174 1216 l 347 1216 l 347 1043 l 174 1043 m 521 1041 l 521 1215 l 694 1215 l 694 1041 l 521 1041 "},"Ư":{"x_min":0,"x_max":1041.625,"ha":1215,"o":"m 0 173 l 0 868 l 173 868 l 173 173 l 694 173 l 694 868 l 868 868 l 868 1041 l 1041 1041 l 1041 868 l 867 868 l 867 173 l 694 173 l 694 0 l 173 0 l 173 173 l 0 173 "},"Ɯ":{"x_min":0,"x_max":1215.625,"ha":1389,"o":"m 0 173 l 0 695 l 173 695 l 173 173 l 521 173 l 521 695 l 694 695 l 694 173 l 1042 173 l 1042 695 l 1215 695 l 1215 0 l 694 0 l 694 173 l 521 173 l 521 0 l 173 0 l 173 173 l 0 173 "},"ń":{"x_min":0,"x_max":694.625,"ha":868,"o":"m 0 0 l 0 694 l 520 694 l 520 521 l 694 521 l 694 0 l 521 0 l 521 521 l 173 521 l 173 0 l 0 0 m 174 868 l 174 1041 l 347 1041 l 347 1215 l 520 1215 l 520 1042 l 347 1042 l 347 868 l 174 868 "}," ":{"x_min":0,"x_max":0,"ha":391},"Г":{"x_min":0,"x_max":693.625,"ha":868,"o":"m 0 0 l 0 868 l 693 868 l 693 695 l 173 695 l 173 0 l 0 0 "},"Ь":{"x_min":0,"x_max":868.40625,"ha":1042,"o":"m 0 0 l 0 868 l 173 868 l 173 520 l 694 520 l 694 347 l 868 347 l 868 174 l 694 174 l 694 0 l 0 0 m 173 173 l 688 173 l 688 347 l 173 347 l 173 173 "},"ƽ":{"x_min":0,"x_max":694.625,"ha":868,"o":"m 0 0 l 521 0 l 521 174 l 173 174 l 173 347 l 0 347 l 0 694 l 694 694 l 694 521 l 173 521 l 173 347 l 521 347 l 521 174 l 694 174 l 694 0 l 521 0 l 521 -173 l 0 -173 l 0 0 "},"ѝ":{"x_min":0,"x_max":694.625,"ha":868,"o":"m 0 0 l 0 695 l 173 695 l 173 347 l 347 347 l 347 520 l 521 520 l 521 695 l 694 695 l 694 0 l 521 0 l 521 347 l 347 347 l 347 174 l 173 174 l 173 0 l 0 0 m 0 1042 l 0 1215 l 173 1215 l 173 1041 l 521 1041 l 521 1215 l 694 1215 l 694 1042 l 521 1042 l 521 868 l 173 868 l 173 1042 l 0 1042 "},"Ǉ":{"x_min":0,"x_max":1215.625,"ha":1389,"o":"m 0 0 l 0 868 l 173 868 l 173 173 l 518 173 l 518 0 l 0 0 m 689 0 l 689 173 l 1042 173 l 1042 868 l 1215 868 l 1215 173 l 1042 173 l 1042 0 l 689 0 "},"¤":{"x_min":1,"x_max":1041.625,"ha":1215,"o":"m 1 347 l 1 520 l 174 520 l 174 694 l 347 694 l 347 868 l 868 868 l 868 694 l 1041 694 l 1041 521 l 868 521 l 868 695 l 347 695 l 347 520 l 694 520 l 694 347 l 347 347 l 347 173 l 868 173 l 868 347 l 1041 347 l 1041 174 l 868 174 l 868 0 l 347 0 l 347 174 l 174 174 l 174 347 l 1 347 "},"Ǣ":{"x_min":0,"x_max":1561.625,"ha":1736,"o":"m 0 0 l 0 695 l 173 695 l 173 868 l 1561 868 l 1561 695 l 867 695 l 867 520 l 1387 520 l 1387 347 l 867 347 l 867 173 l 1561 173 l 1561 0 l 694 0 l 694 347 l 173 347 l 173 0 l 0 0 m 180 520 l 694 520 l 694 692 l 180 692 l 180 520 m 694 1042 l 694 1215 l 1214 1215 l 1214 1042 l 694 1042 "},"Ɨ":{"x_min":1,"x_max":520.625,"ha":694,"o":"m 1 347 l 1 520 l 174 520 l 174 868 l 347 868 l 347 520 l 520 520 l 520 347 l 347 347 l 347 0 l 174 0 l 174 347 l 1 347 "},"Ĝ":{"x_min":0,"x_max":867.625,"ha":1042,"o":"m 0 173 l 0 695 l 174 695 l 174 868 l 867 868 l 867 695 l 173 695 l 173 173 l 694 173 l 694 347 l 347 347 l 347 520 l 867 520 l 867 0 l 174 0 l 174 173 l 0 173 m 174 1042 l 174 1215 l 347 1215 l 347 1388 l 520 1388 l 520 1215 l 694 1215 l 694 1042 l 521 1042 l 521 1215 l 347 1215 l 347 1042 l 174 1042 "},"p":{"x_min":0,"x_max":694.625,"ha":868,"o":"m 0 -347 l 0 694 l 521 694 l 521 520 l 694 520 l 694 173 l 521 173 l 521 0 l 173 0 l 173 -347 l 0 -347 m 173 180 l 521 180 l 521 514 l 173 514 l 173 180 "},"Ʀ":{"x_min":0,"x_max":867.625,"ha":1042,"o":"m 0 0 l 0 1041 l 173 1041 l 173 868 l 694 868 l 694 694 l 867 694 l 867 521 l 694 521 l 694 173 l 867 173 l 867 0 l 694 0 l 694 173 l 521 173 l 521 347 l 173 347 l 173 0 l 0 0 m 173 520 l 687 520 l 687 695 l 173 695 l 173 520 "},"Ѹ":{"x_min":0,"x_max":1736.625,"ha":1910,"o":"m 0 174 l 0 695 l 173 695 l 173 868 l 694 868 l 694 695 l 1041 695 l 1041 347 l 1215 347 l 1215 173 l 1389 173 l 1389 521 l 1563 521 l 1563 695 l 1736 695 l 1736 521 l 1562 521 l 1562 174 l 1388 174 l 1388 0 l 1215 0 l 1215 -173 l 1042 -173 l 1042 0 l 1215 0 l 1215 174 l 1042 174 l 1042 347 l 867 347 l 867 174 l 694 174 l 694 0 l 173 0 l 173 174 l 0 174 m 173 180 l 694 180 l 694 688 l 173 688 l 173 180 "},"Ю":{"x_min":0,"x_max":1208.40625,"ha":1389,"o":"m 0 0 l 0 868 l 173 868 l 173 520 l 347 520 l 347 695 l 520 695 l 520 868 l 1041 868 l 1041 695 l 1208 695 l 1208 173 l 1041 173 l 1041 0 l 520 0 l 520 173 l 347 173 l 347 347 l 173 347 l 173 0 l 0 0 m 527 173 l 1028 173 l 1028 695 l 527 695 l 527 173 "},"ο":{"x_min":0,"x_max":694.625,"ha":868,"o":"m 0 174 l 0 521 l 174 521 l 174 694 l 521 694 l 521 521 l 694 521 l 694 174 l 521 174 l 521 0 l 174 0 l 174 174 l 0 174 m 173 180 l 521 180 l 521 514 l 173 514 l 173 180 "},"S":{"x_min":0,"x_max":867.625,"ha":1042,"o":"m 0 0 l 0 173 l 694 173 l 694 347 l 173 347 l 173 520 l 0 520 l 0 695 l 173 695 l 173 868 l 867 868 l 867 695 l 173 695 l 173 520 l 694 520 l 694 347 l 867 347 l 867 173 l 694 173 l 694 0 l 0 0 "},"/":{"x_min":0,"x_max":867.625,"ha":1042,"o":"m 0 0 l 0 173 l 174 173 l 174 347 l 347 347 l 347 520 l 521 520 l 521 694 l 694 694 l 694 868 l 867 868 l 867 695 l 694 695 l 694 521 l 520 521 l 520 347 l 347 347 l 347 174 l 173 174 l 173 0 l 0 0 "},"Ŧ":{"x_min":0,"x_max":867.625,"ha":1042,"o":"m 0 695 l 0 868 l 867 868 l 867 695 l 520 695 l 520 520 l 693 520 l 693 347 l 520 347 l 520 0 l 347 0 l 347 347 l 174 347 l 174 520 l 347 520 l 347 695 l 0 695 "},"ђ":{"x_min":1,"x_max":867.625,"ha":1042,"o":"m 1 695 l 1 868 l 694 868 l 694 695 l 347 695 l 347 520 l 694 520 l 694 347 l 867 347 l 867 0 l 694 0 l 694 -173 l 521 -173 l 521 0 l 694 0 l 694 347 l 347 347 l 347 0 l 174 0 l 174 695 l 1 695 "},"y":{"x_min":0,"x_max":694.625,"ha":868,"o":"m 0 173 l 0 695 l 173 695 l 173 173 l 521 173 l 521 695 l 694 695 l 694 -173 l 521 -173 l 521 -347 l 174 -347 l 174 -173 l 521 -173 l 521 0 l 174 0 l 174 173 l 0 173 "},"Π":{"x_min":0,"x_max":867.625,"ha":1042,"o":"m 0 0 l 0 868 l 867 868 l 867 0 l 694 0 l 694 695 l 173 695 l 173 0 l 0 0 "},"–":{"x_min":0,"x_max":520.875,"ha":694,"o":"m 0 347 l 0 520 l 520 520 l 520 347 l 0 347 "},"ƅ":{"x_min":1,"x_max":868.40625,"ha":1042,"o":"m 1 521 l 1 694 l 174 694 l 174 868 l 347 868 l 347 520 l 694 520 l 694 347 l 868 347 l 868 174 l 694 174 l 694 0 l 174 0 l 174 521 l 1 521 m 347 173 l 688 173 l 688 347 l 347 347 l 347 173 "},"ë":{"x_min":0,"x_max":694.625,"ha":868,"o":"m 0 173 l 0 520 l 173 520 l 173 694 l 694 694 l 694 347 l 520 347 l 520 173 l 694 173 l 694 0 l 173 0 l 173 173 l 0 173 m 0 869 l 0 1042 l 173 1042 l 173 869 l 0 869 m 173 180 l 347 180 l 347 353 l 521 353 l 521 514 l 173 514 l 173 180 m 521 867 l 521 1041 l 694 1041 l 694 867 l 521 867 "},"б":{"x_min":0,"x_max":694.625,"ha":868,"o":"m 0 173 l 0 695 l 173 695 l 173 520 l 521 520 l 694 346 l 694 173 l 521 173 l 521 0 l 174 0 l 174 173 l 0 173 m 173 180 l 521 180 l 521 340 l 173 340 l 173 180 m 174 695 l 174 868 l 521 868 l 521 695 l 174 695 "},"ƒ":{"x_min":0,"x_max":520.625,"ha":695,"o":"m 0 0 l 174 0 l 174 695 l 347 695 l 347 868 l 520 868 l 520 695 l 347 695 l 347 520 l 520 520 l 520 347 l 347 347 l 347 0 l 173 0 l 173 -173 l 0 -173 l 0 0 "},"у":{"x_min":0,"x_max":694.625,"ha":868,"o":"m 0 0 l 347 0 l 347 174 l 173 174 l 173 347 l 0 347 l 0 695 l 173 695 l 173 347 l 521 347 l 521 695 l 694 695 l 694 174 l 520 174 l 520 0 l 347 0 l 347 -173 l 0 -173 l 0 0 "},"J":{"x_min":0,"x_max":694.625,"ha":868,"o":"m 0 174 l 0 347 l 173 347 l 173 173 l 521 173 l 521 868 l 694 868 l 694 174 l 521 174 l 521 0 l 173 0 l 173 174 l 0 174 "},"ŷ":{"x_min":0,"x_max":694.625,"ha":868,"o":"m 0 173 l 0 695 l 173 695 l 173 173 l 521 173 l 521 695 l 694 695 l 694 -173 l 521 -173 l 521 -347 l 174 -347 l 174 -173 l 521 -173 l 521 0 l 174 0 l 174 173 l 0 173 m 0 868 l 0 1041 l 174 1041 l 174 1215 l 521 1215 l 521 1041 l 694 1041 l 694 868 l 521 868 l 521 1042 l 173 1042 l 173 868 l 0 868 "},"ŕ":{"x_min":0,"x_max":520.625,"ha":695,"o":"m 0 0 l 0 694 l 173 694 l 173 520 l 347 520 l 347 694 l 520 694 l 520 521 l 347 521 l 347 347 l 173 347 l 173 0 l 0 0 m 174 868 l 174 1041 l 347 1041 l 347 1215 l 520 1215 l 520 1042 l 347 1042 l 347 868 l 174 868 "},"‐":{"x_min":0,"x_max":520.875,"ha":694,"o":"m 0 347 l 0 520 l 520 520 l 520 347 l 0 347 "},"ώ":{"x_min":0,"x_max":868.625,"ha":1042,"o":"m 0 173 l 0 695 l 173 695 l 173 173 l 347 173 l 347 521 l 520 521 l 520 173 l 695 173 l 695 695 l 868 695 l 868 173 l 695 173 l 695 0 l 520 0 l 520 173 l 347 173 l 347 0 l 173 0 l 173 173 l 0 173 m 347 868 l 347 1215 l 520 1215 l 520 868 l 347 868 "},"˘":{"x_min":0,"x_max":520.625,"ha":695,"o":"m 0 695 l 0 868 l 173 868 l 173 694 l 347 694 l 347 868 l 520 868 l 520 695 l 347 695 l 347 521 l 173 521 l 173 695 l 0 695 "},"Ƒ":{"x_min":0,"x_max":1041.625,"ha":1215,"o":"m 0 0 l 174 0 l 174 868 l 1041 868 l 1041 695 l 347 695 l 347 520 l 867 520 l 867 347 l 347 347 l 347 0 l 173 0 l 173 -173 l 0 -173 l 0 0 "},"↑":{"x_min":0,"x_max":868.625,"ha":1042,"o":"m 0 347 l 0 520 l 173 520 l 173 694 l 347 694 l 347 868 l 520 868 l 520 694 l 695 694 l 695 520 l 868 520 l 868 347 l 695 347 l 695 521 l 520 521 l 520 0 l 347 0 l 347 521 l 173 521 l 173 347 l 0 347 "},"D":{"x_min":0,"x_max":868.40625,"ha":1042,"o":"m 0 0 l 0 868 l 694 868 l 694 695 l 868 695 l 868 173 l 694 173 l 694 0 l 0 0 m 173 173 l 688 173 l 688 695 l 173 695 l 173 173 "},"ł":{"x_min":1,"x_max":520.625,"ha":694,"o":"m 1 174 l 1 347 l 174 347 l 174 868 l 347 868 l 347 694 l 520 694 l 520 521 l 347 521 l 347 0 l 174 0 l 174 174 l 1 174 "},"ĺ":{"x_min":0,"x_max":347.625,"ha":347,"o":"m 0 0 l 0 868 l 173 868 l 173 0 l 0 0 m 0 1042 l 0 1215 l 174 1215 l 174 1388 l 347 1388 l 347 1215 l 173 1215 l 173 1042 l 0 1042 "},"ц":{"x_min":0,"x_max":867.625,"ha":868,"o":"m 0 0 l 0 695 l 173 695 l 173 173 l 521 173 l 521 695 l 694 695 l 694 0 l 867 0 l 867 -173 l 694 -173 l 694 0 l 0 0 "},"Л":{"x_min":0,"x_max":867.625,"ha":1042,"o":"m 0 0 l 0 173 l 174 173 l 174 868 l 867 868 l 867 0 l 694 0 l 694 695 l 347 695 l 347 173 l 173 173 l 173 0 l 0 0 "},"$":{"x_min":0,"x_max":868.625,"ha":1042,"o":"m 0 0 l 0 173 l 695 173 l 695 347 l 173 347 l 173 520 l 0 520 l 0 695 l 173 695 l 173 868 l 347 868 l 347 1041 l 520 1041 l 520 868 l 868 868 l 868 695 l 173 695 l 173 520 l 695 520 l 695 347 l 868 347 l 868 173 l 695 173 l 695 0 l 520 0 l 520 -173 l 347 -173 l 347 0 l 0 0 "},"w":{"x_min":0,"x_max":1215.625,"ha":1389,"o":"m 0 174 l 0 694 l 173 694 l 173 173 l 521 173 l 521 694 l 694 694 l 694 173 l 1042 173 l 1042 694 l 1215 694 l 1215 174 l 1042 174 l 1042 0 l 694 0 l 694 174 l 521 174 l 521 0 l 173 0 l 173 174 l 0 174 "},"о":{"x_min":0,"x_max":694.625,"ha":868,"o":"m 0 174 l 0 521 l 174 521 l 174 694 l 521 694 l 521 521 l 694 521 l 694 174 l 521 174 l 521 0 l 174 0 l 174 174 l 0 174 m 173 180 l 521 180 l 521 514 l 173 514 l 173 180 "},"Д":{"x_min":-174,"x_max":867.625,"ha":868,"o":"m -174 0 l 0 0 l 0 868 l 694 868 l 694 0 l 867 0 l 867 -173 l 694 -173 l 694 0 l 0 0 l 0 -173 l -174 -173 l -174 0 m 173 173 l 521 173 l 521 695 l 173 695 l 173 173 "},"Ç":{"x_min":0,"x_max":868.625,"ha":1042,"o":"m 0 174 l 0 694 l 174 694 l 174 868 l 695 868 l 695 694 l 868 694 l 868 521 l 695 521 l 695 695 l 173 695 l 173 173 l 695 173 l 695 347 l 868 347 l 868 174 l 695 174 l 695 0 l 520 0 l 520 -173 l 347 -173 l 347 -347 l 174 -347 l 174 -173 l 347 -173 l 347 0 l 174 0 l 174 174 l 0 174 "},"↙":{"x_min":0,"x_max":867.625,"ha":1042,"o":"m 0 0 l 0 868 l 173 868 l 173 347 l 347 347 l 347 520 l 521 520 l 521 694 l 694 694 l 694 868 l 867 868 l 867 695 l 694 695 l 694 521 l 520 521 l 520 347 l 347 347 l 347 173 l 867 173 l 867 0 l 0 0 "},"Ŝ":{"x_min":0,"x_max":867.625,"ha":1042,"o":"m 0 0 l 0 173 l 694 173 l 694 347 l 174 347 l 174 520 l 0 520 l 0 695 l 174 695 l 174 868 l 867 868 l 867 695 l 173 695 l 173 520 l 694 520 l 694 347 l 867 347 l 867 173 l 694 173 l 694 0 l 0 0 m 174 1042 l 174 1215 l 347 1215 l 347 1388 l 521 1388 l 521 1215 l 694 1215 l 694 1042 l 521 1042 l 521 1215 l 347 1215 l 347 1042 l 174 1042 "},"C":{"x_min":0,"x_max":867.625,"ha":1042,"o":"m 0 174 l 0 694 l 173 694 l 173 868 l 694 868 l 694 694 l 867 694 l 867 521 l 694 521 l 694 695 l 173 695 l 173 173 l 694 173 l 694 347 l 867 347 l 867 174 l 694 174 l 694 0 l 173 0 l 173 174 l 0 174 "},"ǋ":{"x_min":0,"x_max":1215.625,"ha":1389,"o":"m 0 0 l 0 868 l 173 868 l 173 694 l 347 694 l 347 520 l 520 520 l 520 347 l 695 347 l 695 868 l 868 868 l 868 0 l 695 0 l 695 174 l 520 174 l 520 347 l 347 347 l 347 521 l 173 521 l 173 0 l 0 0 m 868 -173 l 1041 -173 l 1041 -347 l 868 -347 l 868 -173 m 1042 -173 l 1042 520 l 1215 520 l 1215 -173 l 1042 -173 m 1042 695 l 1042 868 l 1215 868 l 1215 695 l 1042 695 "},"Ĵ":{"x_min":1,"x_max":694.625,"ha":694,"o":"m 1 0 l 1 173 l 347 173 l 347 868 l 520 868 l 520 173 l 347 173 l 347 0 l 1 0 m 174 1042 l 174 1215 l 347 1215 l 347 1388 l 520 1388 l 520 1215 l 694 1215 l 694 1042 l 521 1042 l 521 1215 l 347 1215 l 347 1042 l 174 1042 "},"È":{"x_min":0,"x_max":867.625,"ha":1042,"o":"m 0 0 l 0 868 l 867 868 l 867 695 l 173 695 l 173 520 l 693 520 l 693 347 l 173 347 l 173 173 l 867 173 l 867 0 l 0 0 m 174 1215 l 174 1388 l 347 1388 l 347 1215 l 520 1215 l 520 1042 l 347 1042 l 347 1215 l 174 1215 "},"X":{"x_min":0,"x_max":867.625,"ha":1042,"o":"m 0 0 l 0 173 l 174 173 l 174 347 l 347 347 l 347 521 l 174 521 l 174 695 l 0 695 l 0 868 l 173 868 l 173 694 l 347 694 l 347 521 l 521 521 l 521 694 l 694 694 l 694 868 l 867 868 l 867 695 l 694 695 l 694 521 l 521 521 l 521 347 l 694 347 l 694 173 l 867 173 l 867 0 l 694 0 l 694 174 l 521 174 l 521 347 l 347 347 l 347 174 l 173 174 l 173 0 l 0 0 "},"ô":{"x_min":0,"x_max":694.625,"ha":868,"o":"m 0 174 l 0 521 l 174 521 l 174 694 l 521 694 l 521 521 l 694 521 l 694 174 l 521 174 l 521 0 l 174 0 l 174 174 l 0 174 m 0 868 l 0 1041 l 174 1041 l 174 1215 l 521 1215 l 521 1041 l 694 1041 l 694 868 l 521 868 l 521 1042 l 173 1042 l 173 868 l 0 868 m 173 180 l 521 180 l 521 514 l 173 514 l 173 180 "},"Ƃ":{"x_min":0,"x_max":868.40625,"ha":1042,"o":"m 0 0 l 0 868 l 694 868 l 694 695 l 173 695 l 173 520 l 694 520 l 694 347 l 868 347 l 868 174 l 694 174 l 694 0 l 0 0 m 173 173 l 688 173 l 688 347 l 173 347 l 173 173 "},"Ė":{"x_min":0,"x_max":867.625,"ha":1042,"o":"m 0 0 l 0 868 l 867 868 l 867 695 l 173 695 l 173 520 l 693 520 l 693 347 l 173 347 l 173 173 l 867 173 l 867 0 l 0 0 m 347 1042 l 347 1215 l 520 1215 l 520 1042 l 347 1042 "},"г":{"x_min":0,"x_max":693.625,"ha":868,"o":"m 0 0 l 0 694 l 693 694 l 693 521 l 173 521 l 173 0 l 0 0 "},"ƈ":{"x_min":0,"x_max":867.625,"ha":1042,"o":"m 0 173 l 0 521 l 173 521 l 173 694 l 694 694 l 694 521 l 173 521 l 173 173 l 694 173 l 694 0 l 173 0 l 173 173 l 0 173 m 694 695 l 694 868 l 867 868 l 867 695 l 694 695 "},"℠":{"x_min":1,"x_max":1388.625,"ha":1563,"o":"m 1 347 l 1 520 l 174 520 l 174 868 l 521 868 l 521 694 l 694 694 l 694 868 l 868 868 l 868 694 l 1041 694 l 1041 868 l 1215 868 l 1215 694 l 1388 694 l 1388 347 l 1215 347 l 1215 695 l 1041 695 l 1041 347 l 868 347 l 868 695 l 694 695 l 694 347 l 521 347 l 521 695 l 347 695 l 347 347 l 1 347 "},"Ŀ":{"x_min":0,"x_max":867.625,"ha":1042,"o":"m 0 0 l 0 868 l 173 868 l 173 173 l 693 173 l 693 0 l 0 0 m 694 347 l 694 520 l 867 520 l 867 347 l 694 347 "},"х":{"x_min":0,"x_max":694.625,"ha":868,"o":"m 0 0 l 0 173 l 173 173 l 173 521 l 0 521 l 0 694 l 173 694 l 173 521 l 521 521 l 521 694 l 694 694 l 694 521 l 521 521 l 521 173 l 694 173 l 694 0 l 521 0 l 521 173 l 173 173 l 173 0 l 0 0 "},"ƥ":{"x_min":0,"x_max":694.625,"ha":868,"o":"m 0 -173 l 0 695 l 174 695 l 174 868 l 347 868 l 347 695 l 173 695 l 173 520 l 521 520 l 521 347 l 694 347 l 694 173 l 521 173 l 521 0 l 173 0 l 173 -173 l 0 -173 m 173 173 l 521 173 l 521 347 l 173 347 l 173 173 "},"ŋ":{"x_min":0,"x_max":694.625,"ha":868,"o":"m 0 0 l 0 694 l 520 694 l 520 521 l 694 521 l 694 0 l 520 0 l 520 -173 l 347 -173 l 347 0 l 521 0 l 521 521 l 173 521 l 173 0 l 0 0 "},"Ч":{"x_min":0,"x_max":867.625,"ha":1042,"o":"m 0 520 l 0 868 l 173 868 l 173 520 l 694 520 l 694 868 l 867 868 l 867 0 l 694 0 l 694 347 l 173 347 l 173 520 l 0 520 "},"Ǟ":{"x_min":0,"x_max":867.625,"ha":1042,"o":"m 0 0 l 0 694 l 174 694 l 174 868 l 694 868 l 694 694 l 867 694 l 867 0 l 694 0 l 694 347 l 173 347 l 173 0 l 0 0 m 173 520 l 694 520 l 694 688 l 173 688 l 173 520 m 174 1042 l 174 1389 l 694 1389 l 694 1042 l 521 1042 l 521 1215 l 347 1215 l 347 1042 l 174 1042 "},"ü":{"x_min":0,"x_max":694.625,"ha":868,"o":"m 0 173 l 0 695 l 173 695 l 173 173 l 521 173 l 521 695 l 694 695 l 694 0 l 173 0 l 173 173 l 0 173 m 0 868 l 0 1041 l 173 1041 l 173 868 l 0 868 m 521 868 l 521 1041 l 694 1041 l 694 868 l 521 868 "},"ь":{"x_min":0,"x_max":694.40625,"ha":868,"o":"m 0 0 l 0 695 l 173 695 l 173 520 l 520 520 l 520 347 l 694 347 l 694 174 l 520 174 l 520 0 l 0 0 m 173 173 l 514 173 l 514 347 l 173 347 l 173 173 "},"Ÿ":{"x_min":0,"x_max":867.625,"ha":1042,"o":"m 0 695 l 0 868 l 173 868 l 173 694 l 347 694 l 347 521 l 521 521 l 521 694 l 694 694 l 694 868 l 867 868 l 867 695 l 694 695 l 694 521 l 521 521 l 521 0 l 347 0 l 347 521 l 174 521 l 174 695 l 0 695 m 174 1042 l 174 1215 l 347 1215 l 347 1042 l 174 1042 m 521 1042 l 521 1215 l 694 1215 l 694 1042 l 521 1042 "},"€":{"x_min":1,"x_max":1041.625,"ha":1215,"o":"m 1 347 l 1 520 l 174 520 l 174 694 l 347 694 l 347 868 l 868 868 l 868 694 l 1041 694 l 1041 521 l 868 521 l 868 695 l 347 695 l 347 520 l 694 520 l 694 347 l 347 347 l 347 173 l 868 173 l 868 347 l 1041 347 l 1041 174 l 868 174 l 868 0 l 347 0 l 347 174 l 174 174 l 174 347 l 1 347 "},"в":{"x_min":0,"x_max":694.40625,"ha":868,"o":"m 0 0 l 0 868 l 520 868 l 520 694 l 694 694 l 694 521 l 520 521 l 520 347 l 694 347 l 694 174 l 520 174 l 520 0 l 0 0 m 173 173 l 514 173 l 514 347 l 173 347 l 173 173 m 173 520 l 514 520 l 514 695 l 173 695 l 173 520 "},"Η":{"x_min":0,"x_max":867.625,"ha":1042,"o":"m 0 0 l 0 868 l 173 868 l 173 520 l 694 520 l 694 868 l 867 868 l 867 0 l 694 0 l 694 347 l 173 347 l 173 0 l 0 0 "},"ƶ":{"x_min":0,"x_max":693.625,"ha":868,"o":"m 0 0 l 0 173 l 173 173 l 173 347 l 347 347 l 347 521 l 0 521 l 0 694 l 693 694 l 693 521 l 520 521 l 520 173 l 693 173 l 693 0 l 0 0 "},"С":{"x_min":0,"x_max":868.125,"ha":1042,"o":"m 0 173 l 0 695 l 173 695 l 173 868 l 868 868 l 868 695 l 173 695 l 173 173 l 868 173 l 868 0 l 173 0 l 173 173 l 0 173 "},"ß":{"x_min":0,"x_max":694.625,"ha":868,"o":"m 0 0 l 0 694 l 173 694 l 173 0 l 0 0 m 174 695 l 174 868 l 520 868 l 520 695 l 174 695 m 347 0 l 347 173 l 521 173 l 521 347 l 347 347 l 347 521 l 521 521 l 521 694 l 694 694 l 694 521 l 520 521 l 520 347 l 694 347 l 694 173 l 520 173 l 520 0 l 347 0 "},"њ":{"x_min":0,"x_max":1215.40625,"ha":1389,"o":"m 0 0 l 0 695 l 173 695 l 173 520 l 521 520 l 521 695 l 694 695 l 694 520 l 1041 520 l 1041 347 l 1215 347 l 1215 174 l 1041 174 l 1041 0 l 521 0 l 521 347 l 173 347 l 173 0 l 0 0 m 694 173 l 1035 173 l 1035 347 l 694 347 l 694 173 "},"ǩ":{"x_min":0,"x_max":694.625,"ha":868,"o":"m 0 0 l 0 868 l 173 868 l 173 347 l 347 347 l 347 520 l 521 520 l 521 694 l 694 694 l 694 521 l 520 521 l 520 347 l 694 347 l 694 0 l 521 0 l 521 347 l 347 347 l 347 174 l 173 174 l 173 0 l 0 0 m 0 1042 l 0 1215 l 173 1215 l 173 1041 l 521 1041 l 521 1215 l 694 1215 l 694 1042 l 520 1042 l 520 868 l 173 868 l 173 1042 l 0 1042 "},"ǵ":{"x_min":0,"x_max":694.625,"ha":868,"o":"m 0 173 l 0 520 l 174 520 l 174 694 l 520 694 l 520 520 l 694 520 l 694 -173 l 520 -173 l 520 -347 l 174 -347 l 174 -173 l 521 -173 l 521 0 l 174 0 l 174 173 l 0 173 m 173 180 l 521 180 l 521 514 l 173 514 l 173 180 m 174 868 l 174 1041 l 347 1041 l 347 1215 l 520 1215 l 520 1042 l 347 1042 l 347 868 l 174 868 "},"Ű":{"x_min":0,"x_max":867.625,"ha":1042,"o":"m 0 173 l 0 868 l 173 868 l 173 173 l 694 173 l 694 868 l 867 868 l 867 173 l 694 173 l 694 0 l 174 0 l 174 173 l 0 173 m 174 1042 l 174 1215 l 347 1215 l 347 1388 l 521 1388 l 521 1215 l 694 1215 l 694 1388 l 867 1388 l 867 1215 l 694 1215 l 694 1042 l 521 1042 l 521 1215 l 347 1215 l 347 1042 l 174 1042 "},"c":{"x_min":0,"x_max":694.5,"ha":868,"o":"m 0 173 l 0 521 l 173 521 l 173 694 l 694 694 l 694 521 l 173 521 l 173 173 l 694 173 l 694 0 l 173 0 l 173 173 l 0 173 "},"¶":{"x_min":0,"x_max":868.625,"ha":1042,"o":"m 0 521 l 0 694 l 173 694 l 173 868 l 868 868 l 868 0 l 695 0 l 695 347 l 520 347 l 520 0 l 347 0 l 347 347 l 173 347 l 173 521 l 0 521 m 180 520 l 347 520 l 347 695 l 180 695 l 180 520 m 520 520 l 695 520 l 695 695 l 520 695 l 520 520 "},"Ή":{"x_min":0,"x_max":1215.625,"ha":1389,"o":"m 0 521 l 0 694 l 173 694 l 173 868 l 520 868 l 520 520 l 1042 520 l 1042 868 l 1215 868 l 1215 0 l 1042 0 l 1042 347 l 520 347 l 520 0 l 347 0 l 347 695 l 173 695 l 173 521 l 0 521 "},"γ":{"x_min":0,"x_max":694.625,"ha":868,"o":"m 0 173 l 0 695 l 173 695 l 173 173 l 521 173 l 521 695 l 694 695 l 694 -173 l 521 -173 l 521 -347 l 174 -347 l 174 -173 l 521 -173 l 521 0 l 174 0 l 174 173 l 0 173 "},"­":{"x_min":0,"x_max":694.5,"ha":868,"o":"m 0 347 l 0 520 l 694 520 l 694 347 l 0 347 "},"ѫ":{"x_min":0,"x_max":867.625,"ha":1042,"o":"m 0 0 l 0 173 l 174 173 l 174 521 l 0 521 l 0 694 l 867 694 l 867 521 l 694 521 l 694 173 l 867 173 l 867 0 l 694 0 l 694 173 l 520 173 l 520 0 l 347 0 l 347 173 l 173 173 l 173 0 l 0 0 m 347 347 l 521 347 l 521 521 l 347 521 l 347 347 "},":":{"x_min":174,"x_max":347.625,"ha":694,"o":"m 174 174 l 174 347 l 347 347 l 347 174 l 174 174 m 174 521 l 174 694 l 347 694 l 347 521 l 174 521 "},"Ѝ":{"x_min":0,"x_max":867.625,"ha":1042,"o":"m 0 0 l 0 868 l 173 868 l 173 347 l 347 347 l 347 520 l 521 520 l 521 694 l 694 694 l 694 868 l 867 868 l 867 0 l 694 0 l 694 521 l 520 521 l 520 347 l 347 347 l 347 174 l 173 174 l 173 0 l 0 0 m 174 1042 l 174 1215 l 347 1215 l 347 1041 l 521 1041 l 521 1215 l 694 1215 l 694 1042 l 520 1042 l 520 868 l 347 868 l 347 1042 l 174 1042 "},"ǲ":{"x_min":0,"x_max":1735.625,"ha":1910,"o":"m 0 0 l 0 868 l 694 868 l 694 694 l 868 694 l 868 173 l 694 173 l 694 0 l 0 0 m 173 173 l 688 173 l 688 695 l 173 695 l 173 173 m 1042 0 l 1042 173 l 1215 173 l 1215 347 l 1389 347 l 1389 521 l 1042 521 l 1042 694 l 1735 694 l 1735 521 l 1562 521 l 1562 347 l 1388 347 l 1388 173 l 1735 173 l 1735 0 l 1042 0 "},"ś":{"x_min":1,"x_max":693.625,"ha":868,"o":"m 1 0 l 1 173 l 347 173 l 347 347 l 1 347 l 1 520 l 174 520 l 174 694 l 693 694 l 693 521 l 347 521 l 347 347 l 693 347 l 693 174 l 520 174 l 520 0 l 1 0 m 174 868 l 174 1041 l 347 1041 l 347 1215 l 520 1215 l 520 1042 l 347 1042 l 347 868 l 174 868 "},"Ƨ":{"x_min":0,"x_max":867.625,"ha":1042,"o":"m 0 173 l 0 347 l 173 347 l 173 520 l 694 520 l 694 695 l 0 695 l 0 868 l 694 868 l 694 695 l 867 695 l 867 520 l 694 520 l 694 347 l 173 347 l 173 173 l 867 173 l 867 0 l 173 0 l 173 173 l 0 173 "}," ":{"x_min":0,"x_max":0,"ha":521},"У":{"x_min":0,"x_max":867.625,"ha":1042,"o":"m 0 0 l 0 173 l 347 173 l 347 347 l 174 347 l 174 521 l 0 521 l 0 868 l 173 868 l 173 520 l 347 520 l 347 347 l 521 347 l 521 520 l 694 520 l 694 868 l 867 868 l 867 521 l 694 521 l 694 347 l 520 347 l 520 174 l 347 174 l 347 0 l 0 0 "},"↴":{"x_min":0,"x_max":868.625,"ha":1042,"o":"m 0 347 l 0 520 l 173 520 l 173 347 l 347 347 l 347 695 l 0 695 l 0 868 l 520 868 l 520 347 l 695 347 l 695 520 l 868 520 l 868 347 l 695 347 l 695 174 l 520 174 l 520 0 l 347 0 l 347 174 l 173 174 l 173 347 l 0 347 "},"¾":{"x_min":1,"x_max":1388.625,"ha":1563,"o":"m 1 174 l 1 347 l 347 347 l 347 521 l 174 521 l 174 695 l 1 695 l 1 868 l 347 868 l 347 694 l 520 694 l 520 520 l 694 520 l 694 694 l 868 694 l 868 868 l 1041 868 l 1041 695 l 867 695 l 867 520 l 1041 520 l 1041 347 l 1215 347 l 1215 520 l 1388 520 l 1388 0 l 1215 0 l 1215 174 l 868 174 l 868 521 l 694 521 l 694 347 l 520 347 l 520 174 l 347 174 l 347 0 l 174 0 l 174 174 l 1 174 "},"Ί":{"x_min":0,"x_max":520.625,"ha":695,"o":"m 0 521 l 0 694 l 173 694 l 173 868 l 520 868 l 520 0 l 347 0 l 347 695 l 173 695 l 173 521 l 0 521 "},"ŉ":{"x_min":0,"x_max":1041.625,"ha":1215,"o":"m 0 521 l 0 694 l 173 694 l 173 868 l 347 868 l 347 694 l 868 694 l 868 521 l 1041 521 l 1041 0 l 868 0 l 868 521 l 520 521 l 520 0 l 347 0 l 347 695 l 173 695 l 173 521 l 0 521 "},"Ѭ":{"x_min":0,"x_max":1562.625,"ha":1736,"o":"m 0 0 l 0 868 l 173 868 l 173 520 l 695 520 l 695 695 l 522 695 l 522 868 l 1388 868 l 1388 695 l 1215 695 l 1215 520 l 1041 520 l 1041 347 l 1388 347 l 1388 173 l 1562 173 l 1562 0 l 1389 0 l 1389 174 l 1041 174 l 1041 0 l 868 0 l 868 174 l 520 174 l 520 0 l 347 0 l 347 173 l 522 173 l 522 347 l 173 347 l 173 0 l 0 0 m 868 526 l 1042 526 l 1042 695 l 868 695 l 868 526 "},"Ģ":{"x_min":0,"x_max":867.625,"ha":1042,"o":"m 0 173 l 0 695 l 173 695 l 173 868 l 867 868 l 867 695 l 173 695 l 173 173 l 694 173 l 694 347 l 347 347 l 347 520 l 867 520 l 867 0 l 694 0 l 694 -173 l 520 -173 l 520 -347 l 347 -347 l 347 -173 l 521 -173 l 521 0 l 173 0 l 173 173 l 0 173 "},"m":{"x_min":0,"x_max":1215.625,"ha":1389,"o":"m 0 0 l 0 694 l 521 694 l 521 521 l 694 521 l 694 694 l 1042 694 l 1042 521 l 1215 521 l 1215 0 l 1042 0 l 1042 521 l 694 521 l 694 0 l 521 0 l 521 521 l 173 521 l 173 0 l 0 0 "},"Е":{"x_min":0,"x_max":867.625,"ha":1042,"o":"m 0 0 l 0 868 l 867 868 l 867 695 l 173 695 l 173 520 l 693 520 l 693 347 l 173 347 l 173 173 l 867 173 l 867 0 l 0 0 "},"ǌ":{"x_min":0,"x_max":1041.625,"ha":1215,"o":"m 0 0 l 0 694 l 521 694 l 521 521 l 694 521 l 694 0 l 521 0 l 521 521 l 173 521 l 173 0 l 0 0 m 694 -173 l 867 -173 l 867 -347 l 694 -347 l 694 -173 m 868 -173 l 868 521 l 1041 521 l 1041 -173 l 868 -173 m 868 695 l 868 868 l 1041 868 l 1041 695 l 868 695 "},"ž":{"x_min":0,"x_max":694.625,"ha":868,"o":"m 0 0 l 0 173 l 174 173 l 174 347 l 347 347 l 347 521 l 0 521 l 0 694 l 694 694 l 694 521 l 520 521 l 520 347 l 347 347 l 347 173 l 694 173 l 694 0 l 0 0 m 0 1042 l 0 1215 l 173 1215 l 173 1041 l 521 1041 l 521 1215 l 694 1215 l 694 1042 l 520 1042 l 520 868 l 174 868 l 174 1042 l 0 1042 "}," ":{"x_min":0,"x_max":0,"ha":312},"á":{"x_min":0,"x_max":694.625,"ha":868,"o":"m 0 173 l 0 520 l 174 520 l 174 694 l 520 694 l 520 520 l 694 520 l 694 0 l 174 0 l 174 173 l 0 173 m 173 180 l 521 180 l 521 514 l 173 514 l 173 180 m 174 868 l 174 1041 l 347 1041 l 347 1215 l 520 1215 l 520 1042 l 347 1042 l 347 868 l 174 868 "},"п":{"x_min":0,"x_max":694.625,"ha":868,"o":"m 0 0 l 0 694 l 694 694 l 694 0 l 521 0 l 521 521 l 173 521 l 173 0 l 0 0 "},"Ǻ":{"x_min":0,"x_max":867.625,"ha":1042,"o":"m 0 0 l 0 694 l 174 694 l 174 868 l 347 868 l 347 1042 l 174 1042 l 174 1215 l 347 1215 l 347 1389 l 521 1389 l 521 1562 l 694 1562 l 694 1389 l 520 1389 l 520 1215 l 694 1215 l 694 1042 l 520 1042 l 520 868 l 694 868 l 694 694 l 867 694 l 867 0 l 694 0 l 694 347 l 173 347 l 173 0 l 0 0 m 173 520 l 694 520 l 694 688 l 173 688 l 173 520 m 347 1048 l 521 1048 l 521 1209 l 347 1209 l 347 1048 "},"K":{"x_min":0,"x_max":867.625,"ha":1042,"o":"m 0 0 l 0 868 l 173 868 l 173 521 l 521 521 l 521 694 l 694 694 l 694 868 l 867 868 l 867 695 l 694 695 l 694 521 l 521 521 l 521 347 l 694 347 l 694 173 l 867 173 l 867 0 l 694 0 l 694 174 l 521 174 l 521 347 l 173 347 l 173 0 l 0 0 "},"7":{"x_min":0,"x_max":694.625,"ha":868,"o":"m 0 695 l 0 868 l 694 868 l 694 347 l 520 347 l 520 0 l 347 0 l 347 347 l 521 347 l 521 695 l 0 695 "},"¨":{"x_min":174,"x_max":694.625,"ha":868,"o":"m 174 695 l 174 868 l 347 868 l 347 695 l 174 695 m 521 695 l 521 868 l 694 868 l 694 695 l 521 695 "},"Y":{"x_min":0,"x_max":867.625,"ha":1042,"o":"m 0 695 l 0 868 l 173 868 l 173 694 l 347 694 l 347 521 l 521 521 l 521 694 l 694 694 l 694 868 l 867 868 l 867 695 l 694 695 l 694 521 l 521 521 l 521 0 l 347 0 l 347 521 l 174 521 l 174 695 l 0 695 "},"E":{"x_min":0,"x_max":867.625,"ha":1042,"o":"m 0 0 l 0 868 l 867 868 l 867 695 l 173 695 l 173 520 l 693 520 l 693 347 l 173 347 l 173 173 l 867 173 l 867 0 l 0 0 "},"Ô":{"x_min":0,"x_max":867.625,"ha":1042,"o":"m 0 173 l 0 694 l 174 694 l 174 868 l 694 868 l 694 694 l 867 694 l 867 173 l 694 173 l 694 0 l 174 0 l 174 173 l 0 173 m 173 180 l 694 180 l 694 688 l 173 688 l 173 180 m 174 1042 l 174 1215 l 347 1215 l 347 1388 l 521 1388 l 521 1215 l 694 1215 l 694 1042 l 521 1042 l 521 1215 l 347 1215 l 347 1042 l 174 1042 "},"Ƥ":{"x_min":1,"x_max":1041.40625,"ha":1215,"o":"m 1 695 l 1 868 l 867 868 l 867 694 l 1041 694 l 1041 521 l 867 521 l 867 347 l 347 347 l 347 0 l 174 0 l 174 695 l 1 695 m 347 520 l 861 520 l 861 695 l 347 695 l 347 520 "},"Є":{"x_min":0,"x_max":867.625,"ha":1042,"o":"m 0 174 l 0 694 l 173 694 l 173 868 l 694 868 l 694 694 l 867 694 l 867 521 l 694 521 l 694 695 l 173 695 l 173 520 l 520 520 l 520 347 l 173 347 l 173 173 l 694 173 l 694 347 l 867 347 l 867 174 l 694 174 l 694 0 l 173 0 l 173 174 l 0 174 "},"Ï":{"x_min":-174,"x_max":347.625,"ha":347,"o":"m -174 1042 l -174 1215 l 0 1215 l 0 1042 l -174 1042 m 0 0 l 0 868 l 173 868 l 173 0 l 0 0 m 174 1042 l 174 1215 l 347 1215 l 347 1042 l 174 1042 "},"Ѷ":{"x_min":0,"x_max":867.625,"ha":1042,"o":"m 0 347 l 0 868 l 173 868 l 173 347 l 347 347 l 347 173 l 521 173 l 521 694 l 694 694 l 694 868 l 867 868 l 867 695 l 694 695 l 694 174 l 520 174 l 520 0 l 347 0 l 347 174 l 174 174 l 174 347 l 0 347 m 174 1042 l 174 1215 l 347 1215 l 347 1041 l 520 1041 l 520 868 l 347 868 l 347 1042 l 174 1042 "},"ġ":{"x_min":0,"x_max":694.625,"ha":868,"o":"m 0 173 l 0 520 l 174 520 l 174 694 l 521 694 l 521 520 l 694 520 l 694 -173 l 521 -173 l 521 -347 l 174 -347 l 174 -173 l 521 -173 l 521 0 l 174 0 l 174 173 l 0 173 m 173 180 l 521 180 l 521 514 l 173 514 l 173 180 m 348 868 l 348 1041 l 521 1041 l 521 868 l 348 868 "},"έ":{"x_min":0.375,"x_max":694.875,"ha":868,"o":"m 0 0 l 174 0 l 174 -173 l 521 -173 l 521 0 l 694 0 l 694 173 l 521 173 l 521 0 l 174 0 l 174 173 l 347 173 l 347 347 l 174 347 l 174 520 l 521 520 l 521 347 l 694 347 l 694 520 l 521 520 l 521 694 l 174 694 l 174 520 l 0 520 l 0 347 l 174 347 l 174 173 l 0 173 l 0 0 m 174 868 l 174 1215 l 347 1215 l 347 868 l 174 868 "},"Ɖ":{"x_min":1,"x_max":1041.40625,"ha":1215,"o":"m 1 347 l 1 520 l 174 520 l 174 868 l 867 868 l 867 695 l 1041 695 l 1041 173 l 867 173 l 867 0 l 174 0 l 174 347 l 1 347 m 347 173 l 861 173 l 861 695 l 347 695 l 347 520 l 520 520 l 520 347 l 347 347 l 347 173 "}," ":{"x_min":0,"x_max":0,"ha":521},"ϋ":{"x_min":0,"x_max":694.625,"ha":868,"o":"m 0 0 l 0 694 l 173 694 l 173 173 l 521 173 l 521 521 l 347 521 l 347 694 l 520 694 l 520 521 l 694 521 l 694 173 l 520 173 l 520 0 l 0 0 m 0 868 l 0 1041 l 173 1041 l 173 868 l 0 868 m 347 868 l 347 1041 l 520 1041 l 520 868 l 347 868 "},"й":{"x_min":0,"x_max":694.625,"ha":868,"o":"m 0 0 l 0 695 l 173 695 l 173 347 l 347 347 l 347 520 l 521 520 l 521 695 l 694 695 l 694 0 l 521 0 l 521 347 l 347 347 l 347 174 l 173 174 l 173 0 l 0 0 m 0 1042 l 0 1215 l 173 1215 l 173 1041 l 521 1041 l 521 1215 l 694 1215 l 694 1042 l 521 1042 l 521 868 l 173 868 l 173 1042 l 0 1042 "},"b":{"x_min":0,"x_max":694.40625,"ha":868,"o":"m 0 0 l 0 868 l 173 868 l 173 694 l 520 694 l 520 521 l 694 521 l 694 173 l 520 173 l 520 0 l 0 0 m 173 173 l 514 173 l 514 521 l 173 521 l 173 173 "},"ύ":{"x_min":0,"x_max":694.625,"ha":868,"o":"m 0 0 l 0 694 l 173 694 l 173 173 l 521 173 l 521 521 l 347 521 l 347 694 l 520 694 l 520 521 l 694 521 l 694 173 l 520 173 l 520 0 l 0 0 m 174 868 l 174 1215 l 347 1215 l 347 868 l 174 868 "},"↵":{"x_min":1,"x_max":868.625,"ha":1042,"o":"m 1 347 l 1 520 l 174 520 l 174 695 l 347 695 l 347 868 l 520 868 l 520 695 l 347 695 l 347 520 l 695 520 l 695 868 l 868 868 l 868 347 l 347 347 l 347 173 l 520 173 l 520 0 l 347 0 l 347 173 l 174 173 l 174 347 l 1 347 "},"ƞ":{"x_min":0,"x_max":694.625,"ha":868,"o":"m 0 0 l 0 694 l 521 694 l 521 521 l 694 521 l 694 -173 l 521 -173 l 521 521 l 173 521 l 173 0 l 0 0 "},"Ǌ":{"x_min":0,"x_max":1562.625,"ha":1736,"o":"m 0 0 l 0 868 l 173 868 l 173 694 l 347 694 l 347 520 l 520 520 l 520 347 l 695 347 l 695 868 l 868 868 l 868 0 l 695 0 l 695 174 l 520 174 l 520 347 l 347 347 l 347 521 l 173 521 l 173 0 l 0 0 m 1036 0 l 1036 173 l 1389 173 l 1389 868 l 1562 868 l 1562 174 l 1389 174 l 1389 0 l 1036 0 "},"Ʈ":{"x_min":0,"x_max":867.625,"ha":1042,"o":"m 0 695 l 0 868 l 867 868 l 867 695 l 520 695 l 520 0 l 694 0 l 694 -173 l 521 -173 l 521 0 l 347 0 l 347 695 l 0 695 "},"ф":{"x_min":0,"x_max":868.40625,"ha":1042,"o":"m 0 347 l 0 520 l 173 520 l 173 694 l 347 694 l 347 868 l 520 868 l 520 694 l 694 694 l 694 520 l 868 520 l 868 347 l 694 347 l 694 174 l 520 174 l 520 0 l 347 0 l 347 174 l 173 174 l 173 347 l 0 347 m 180 347 l 347 347 l 347 521 l 180 521 l 180 347 m 520 347 l 688 347 l 688 521 l 520 521 l 520 347 "},"Ŋ":{"x_min":0,"x_max":867.625,"ha":1042,"o":"m 0 0 l 0 868 l 173 868 l 173 694 l 347 694 l 347 520 l 520 520 l 520 347 l 694 347 l 694 868 l 867 868 l 867 0 l 694 0 l 694 -173 l 521 -173 l 521 0 l 694 0 l 694 174 l 521 174 l 521 347 l 347 347 l 347 521 l 173 521 l 173 0 l 0 0 "},"Ǔ":{"x_min":0,"x_max":867.625,"ha":1042,"o":"m 0 173 l 0 868 l 173 868 l 173 173 l 694 173 l 694 868 l 867 868 l 867 173 l 694 173 l 694 0 l 174 0 l 174 173 l 0 173 m 174 1215 l 174 1388 l 347 1388 l 347 1215 l 521 1215 l 521 1388 l 694 1388 l 694 1215 l 521 1215 l 521 1042 l 347 1042 l 347 1215 l 174 1215 "},"Ũ":{"x_min":0,"x_max":867.625,"ha":1042,"o":"m 0 173 l 0 868 l 173 868 l 173 173 l 694 173 l 694 868 l 867 868 l 867 173 l 694 173 l 694 0 l 174 0 l 174 173 l 0 173 m 174 1043 l 174 1216 l 347 1216 l 347 1390 l 521 1390 l 521 1216 l 694 1216 l 694 1390 l 867 1390 l 867 1217 l 694 1217 l 694 1043 l 521 1043 l 521 1217 l 347 1217 l 347 1043 l 174 1043 "},"Щ":{"x_min":0,"x_max":1388.625,"ha":1389,"o":"m 0 0 l 0 868 l 173 868 l 173 173 l 521 173 l 521 868 l 694 868 l 694 173 l 1042 173 l 1042 868 l 1215 868 l 1215 0 l 1388 0 l 1388 -173 l 1215 -173 l 1215 0 l 0 0 "},"L":{"x_min":0,"x_max":693.625,"ha":868,"o":"m 0 0 l 0 868 l 173 868 l 173 173 l 693 173 l 693 0 l 0 0 "},"ď":{"x_min":0,"x_max":1041.625,"ha":1215,"o":"m 0 173 l 0 521 l 173 521 l 173 694 l 521 694 l 521 868 l 694 868 l 694 0 l 173 0 l 173 173 l 0 173 m 180 173 l 521 173 l 521 521 l 180 521 l 180 173 m 868 521 l 868 868 l 1041 868 l 1041 521 l 868 521 "},"↘":{"x_min":0,"x_max":868.625,"ha":1042,"o":"m 0 0 l 0 173 l 520 173 l 520 347 l 347 347 l 347 521 l 174 521 l 174 695 l 0 695 l 0 868 l 173 868 l 173 694 l 347 694 l 347 520 l 520 520 l 520 347 l 695 347 l 695 868 l 868 868 l 868 0 l 0 0 "},"Ο":{"x_min":0,"x_max":867.625,"ha":1042,"o":"m 0 173 l 0 694 l 173 694 l 173 868 l 694 868 l 694 694 l 867 694 l 867 173 l 694 173 l 694 0 l 173 0 l 173 173 l 0 173 m 173 180 l 694 180 l 694 688 l 173 688 l 173 180 "},"Ĭ":{"x_min":-174,"x_max":347.625,"ha":347,"o":"m -174 1215 l -174 1388 l 0 1388 l 0 1215 l 174 1215 l 174 1388 l 347 1388 l 347 1215 l 173 1215 l 173 1042 l 0 1042 l 0 1215 l -174 1215 m 0 0 l 0 868 l 173 868 l 173 0 l 0 0 "},"ŧ":{"x_min":1,"x_max":520.625,"ha":694,"o":"m 1 174 l 1 347 l 174 347 l 174 521 l 1 521 l 1 694 l 174 694 l 174 868 l 347 868 l 347 694 l 520 694 l 520 521 l 347 521 l 347 347 l 520 347 l 520 174 l 347 174 l 347 0 l 174 0 l 174 174 l 1 174 "},"À":{"x_min":0,"x_max":868.625,"ha":1042,"o":"m 0 0 l 0 694 l 174 694 l 174 868 l 695 868 l 695 694 l 868 694 l 868 0 l 695 0 l 695 347 l 173 347 l 173 0 l 0 0 m 173 520 l 695 520 l 695 688 l 173 688 l 173 520 m 174 1215 l 174 1388 l 347 1388 l 347 1215 l 520 1215 l 520 1042 l 347 1042 l 347 1215 l 174 1215 "},"Ϊ":{"x_min":-174,"x_max":347.625,"ha":347,"o":"m -174 1042 l -174 1215 l 0 1215 l 0 1042 l -174 1042 m 0 0 l 0 868 l 173 868 l 173 0 l 0 0 m 174 1042 l 174 1215 l 347 1215 l 347 1042 l 174 1042 "},"‑":{"x_min":0,"x_max":694.5,"ha":868,"o":"m 0 347 l 0 520 l 694 520 l 694 347 l 0 347 "},"½":{"x_min":0,"x_max":1215.625,"ha":1389,"o":"m 0 0 l 0 173 l 174 173 l 174 347 l 0 347 l 0 868 l 173 868 l 173 347 l 347 347 l 347 520 l 520 520 l 520 694 l 695 694 l 695 868 l 868 868 l 868 694 l 1041 694 l 1041 520 l 1215 520 l 1215 347 l 1041 347 l 1041 173 l 1215 173 l 1215 0 l 695 0 l 695 173 l 868 173 l 868 347 l 1042 347 l 1042 521 l 520 521 l 520 347 l 347 347 l 347 174 l 173 174 l 173 0 l 0 0 "},"Ɩ":{"x_min":0,"x_max":347.625,"ha":521,"o":"m 0 173 l 0 868 l 173 868 l 173 173 l 347 173 l 347 0 l 174 0 l 174 173 l 0 173 "},"'":{"x_min":0,"x_max":173.625,"ha":347,"o":"m 0 521 l 0 868 l 173 868 l 173 521 l 0 521 "},"ĳ":{"x_min":0,"x_max":520.625,"ha":695,"o":"m 0 0 l 0 521 l 173 521 l 173 0 l 0 0 m 0 695 l 0 868 l 173 868 l 173 695 l 0 695 m 174 -173 l 347 -173 l 347 -347 l 174 -347 l 174 -173 m 347 -173 l 347 521 l 520 521 l 520 -173 l 347 -173 m 347 695 l 347 868 l 520 868 l 520 695 l 347 695 "},"Р":{"x_min":0,"x_max":868.40625,"ha":1042,"o":"m 0 0 l 0 868 l 694 868 l 694 694 l 868 694 l 868 521 l 694 521 l 694 347 l 173 347 l 173 0 l 0 0 m 173 520 l 688 520 l 688 695 l 173 695 l 173 520 "},"˛":{"x_min":0,"x_max":347.625,"ha":521,"o":"m 0 0 l 174 0 l 174 173 l 347 173 l 347 0 l 173 0 l 173 -173 l 347 -173 l 347 -347 l 174 -347 l 174 -173 l 0 -173 l 0 0 "},"Ѿ":{"x_min":0,"x_max":1215.625,"ha":1389,"o":"m 0 174 l 0 694 l 174 694 l 174 868 l 347 868 l 347 694 l 520 694 l 520 521 l 347 521 l 347 695 l 173 695 l 173 173 l 521 173 l 521 347 l 694 347 l 694 173 l 1042 173 l 1042 695 l 867 695 l 867 521 l 694 521 l 694 694 l 868 694 l 868 868 l 1041 868 l 1041 694 l 1215 694 l 1215 174 l 1041 174 l 1041 0 l 694 0 l 694 174 l 520 174 l 520 0 l 174 0 l 174 174 l 0 174 m 174 1042 l 174 1215 l 1041 1215 l 1041 1042 l 174 1042 "},"ǔ":{"x_min":0,"x_max":694.625,"ha":868,"o":"m 0 173 l 0 695 l 173 695 l 173 173 l 521 173 l 521 695 l 694 695 l 694 0 l 173 0 l 173 173 l 0 173 m 0 1042 l 0 1215 l 173 1215 l 173 1041 l 521 1041 l 521 1215 l 694 1215 l 694 1042 l 521 1042 l 521 868 l 173 868 l 173 1042 l 0 1042 "},"Ɠ":{"x_min":0,"x_max":1041.625,"ha":1215,"o":"m 0 173 l 0 695 l 173 695 l 173 868 l 868 868 l 868 1041 l 1041 1041 l 1041 868 l 867 868 l 867 695 l 173 695 l 173 173 l 694 173 l 694 347 l 347 347 l 347 520 l 867 520 l 867 0 l 173 0 l 173 173 l 0 173 "},"Ć":{"x_min":0,"x_max":867.625,"ha":1042,"o":"m 0 174 l 0 694 l 173 694 l 173 868 l 694 868 l 694 694 l 867 694 l 867 521 l 694 521 l 694 695 l 173 695 l 173 173 l 694 173 l 694 347 l 867 347 l 867 174 l 694 174 l 694 0 l 173 0 l 173 174 l 0 174 m 347 1042 l 347 1215 l 521 1215 l 521 1388 l 694 1388 l 694 1215 l 520 1215 l 520 1042 l 347 1042 "},"Т":{"x_min":0,"x_max":867.625,"ha":1042,"o":"m 0 695 l 0 868 l 867 868 l 867 695 l 520 695 l 520 0 l 347 0 l 347 695 l 0 695 "},"£":{"x_min":1,"x_max":867.625,"ha":1042,"o":"m 1 0 l 1 173 l 174 173 l 174 347 l 1 347 l 1 520 l 174 520 l 174 868 l 347 868 l 347 1041 l 520 1041 l 520 868 l 694 868 l 694 695 l 521 695 l 521 868 l 347 868 l 347 520 l 520 520 l 520 347 l 347 347 l 347 173 l 694 173 l 694 347 l 867 347 l 867 174 l 694 174 l 694 0 l 1 0 "},"ů":{"x_min":0,"x_max":694.625,"ha":868,"o":"m 0 173 l 0 695 l 173 695 l 173 173 l 521 173 l 521 695 l 694 695 l 694 0 l 174 0 l 174 173 l 0 173 m 0 1042 l 0 1216 l 174 1216 l 174 1389 l 521 1389 l 521 1216 l 694 1216 l 694 1042 l 521 1042 l 521 868 l 174 868 l 174 1042 l 0 1042 m 173 1048 l 521 1048 l 521 1209 l 173 1209 l 173 1048 "},"Ō":{"x_min":0,"x_max":867.625,"ha":1042,"o":"m 0 173 l 0 694 l 174 694 l 174 868 l 694 868 l 694 694 l 867 694 l 867 173 l 694 173 l 694 0 l 174 0 l 174 173 l 0 173 m 173 180 l 694 180 l 694 688 l 173 688 l 173 180 m 174 1042 l 174 1215 l 694 1215 l 694 1042 l 174 1042 "},"Ǵ":{"x_min":0,"x_max":867.625,"ha":1042,"o":"m 0 173 l 0 695 l 173 695 l 173 868 l 867 868 l 867 695 l 173 695 l 173 173 l 694 173 l 694 347 l 347 347 l 347 520 l 867 520 l 867 0 l 173 0 l 173 173 l 0 173 m 347 1042 l 347 1215 l 521 1215 l 521 1388 l 694 1388 l 694 1215 l 520 1215 l 520 1042 l 347 1042 "},"а":{"x_min":0,"x_max":694.625,"ha":868,"o":"m 0 174 l 0 347 l 173 347 l 173 520 l 0 520 l 0 694 l 521 694 l 521 520 l 694 520 l 694 174 l 521 174 l 521 0 l 173 0 l 173 174 l 0 174 m 180 173 l 521 173 l 521 347 l 180 347 l 180 173 "},"Ğ":{"x_min":0,"x_max":867.625,"ha":1042,"o":"m 0 173 l 0 695 l 174 695 l 174 868 l 867 868 l 867 695 l 173 695 l 173 173 l 694 173 l 694 347 l 347 347 l 347 520 l 867 520 l 867 0 l 174 0 l 174 173 l 0 173 m 174 1215 l 174 1388 l 347 1388 l 347 1215 l 521 1215 l 521 1388 l 694 1388 l 694 1215 l 520 1215 l 520 1042 l 347 1042 l 347 1215 l 174 1215 "},"Ʊ":{"x_min":0,"x_max":867.625,"ha":1042,"o":"m 0 173 l 0 695 l 174 695 l 174 868 l 347 868 l 347 695 l 173 695 l 173 173 l 694 173 l 694 695 l 521 695 l 521 868 l 694 868 l 694 695 l 867 695 l 867 173 l 694 173 l 694 0 l 174 0 l 174 173 l 0 173 "},"v":{"x_min":0,"x_max":694.625,"ha":868,"o":"m 0 173 l 0 695 l 173 695 l 173 173 l 521 173 l 521 695 l 694 695 l 694 173 l 521 173 l 521 0 l 173 0 l 173 173 l 0 173 "},"Ї":{"x_min":-174,"x_max":347.625,"ha":347,"o":"m -174 1042 l -174 1215 l 0 1215 l 0 1042 l -174 1042 m 0 0 l 0 868 l 173 868 l 173 0 l 0 0 m 174 1042 l 174 1215 l 347 1215 l 347 1042 l 174 1042 "},"Ѯ":{"x_min":0,"x_max":867.625,"ha":1042,"o":"m 0 0 l 174 0 l 174 173 l 694 173 l 694 347 l 347 347 l 347 521 l 694 521 l 694 695 l 173 695 l 173 521 l 0 521 l 0 694 l 174 694 l 174 868 l 694 868 l 694 694 l 867 694 l 867 521 l 694 521 l 694 347 l 867 347 l 867 173 l 694 173 l 694 0 l 173 0 l 173 -173 l 694 -173 l 694 -347 l 174 -347 l 174 -173 l 0 -173 l 0 0 m 174 1215 l 174 1388 l 347 1388 l 347 1215 l 521 1215 l 521 1388 l 694 1388 l 694 1215 l 520 1215 l 520 1042 l 347 1042 l 347 1215 l 174 1215 "},"û":{"x_min":0,"x_max":694.625,"ha":868,"o":"m 0 173 l 0 695 l 173 695 l 173 173 l 521 173 l 521 695 l 694 695 l 694 0 l 173 0 l 173 173 l 0 173 m 0 868 l 0 1041 l 173 1041 l 173 1215 l 521 1215 l 521 1041 l 694 1041 l 694 868 l 521 868 l 521 1042 l 173 1042 l 173 868 l 0 868 "},"Ź":{"x_min":1,"x_max":867.625,"ha":1042,"o":"m 1 0 l 1 173 l 174 173 l 174 347 l 347 347 l 347 520 l 521 520 l 521 695 l 1 695 l 1 868 l 867 868 l 867 695 l 694 695 l 694 520 l 520 520 l 520 347 l 347 347 l 347 173 l 867 173 l 867 0 l 1 0 m 347 1042 l 347 1215 l 521 1215 l 521 1388 l 694 1388 l 694 1215 l 520 1215 l 520 1042 l 347 1042 "},"ˉ":{"x_min":0,"x_max":520.875,"ha":694,"o":"m 0 695 l 0 868 l 520 868 l 520 695 l 0 695 "},"Ĺ":{"x_min":0,"x_max":693.625,"ha":868,"o":"m 0 0 l 0 868 l 173 868 l 173 173 l 693 173 l 693 0 l 0 0 m 0 1042 l 0 1215 l 174 1215 l 174 1388 l 347 1388 l 347 1215 l 173 1215 l 173 1042 l 0 1042 "},"‒":{"x_min":0,"x_max":694.5,"ha":868,"o":"m 0 347 l 0 520 l 694 520 l 694 347 l 0 347 "},"Č":{"x_min":0,"x_max":867.625,"ha":1042,"o":"m 0 174 l 0 694 l 174 694 l 174 868 l 694 868 l 694 694 l 867 694 l 867 521 l 694 521 l 694 695 l 173 695 l 173 173 l 694 173 l 694 347 l 867 347 l 867 174 l 694 174 l 694 0 l 174 0 l 174 174 l 0 174 m 174 1215 l 174 1388 l 347 1388 l 347 1215 l 521 1215 l 521 1388 l 694 1388 l 694 1215 l 521 1215 l 521 1042 l 347 1042 l 347 1215 l 174 1215 "},"ƨ":{"x_min":0,"x_max":694.5,"ha":868,"o":"m 0 174 l 0 347 l 347 347 l 347 521 l 0 521 l 0 694 l 520 694 l 520 520 l 694 520 l 694 347 l 347 347 l 347 173 l 694 173 l 694 0 l 173 0 l 173 174 l 0 174 "},"x":{"x_min":0,"x_max":694.625,"ha":868,"o":"m 0 0 l 0 173 l 173 173 l 173 521 l 0 521 l 0 694 l 173 694 l 173 521 l 521 521 l 521 694 l 694 694 l 694 521 l 521 521 l 521 173 l 694 173 l 694 0 l 521 0 l 521 173 l 173 173 l 173 0 l 0 0 "},"è":{"x_min":0,"x_max":694.625,"ha":868,"o":"m 0 173 l 0 520 l 174 520 l 174 694 l 694 694 l 694 347 l 520 347 l 520 173 l 694 173 l 694 0 l 174 0 l 174 173 l 0 173 m 173 180 l 347 180 l 347 353 l 521 353 l 521 514 l 173 514 l 173 180 m 174 1042 l 174 1215 l 347 1215 l 347 1041 l 520 1041 l 520 868 l 347 868 l 347 1042 l 174 1042 "},"Ń":{"x_min":0,"x_max":867.625,"ha":1042,"o":"m 0 0 l 0 868 l 173 868 l 173 694 l 347 694 l 347 520 l 520 520 l 520 347 l 694 347 l 694 868 l 867 868 l 867 0 l 694 0 l 694 174 l 521 174 l 521 347 l 347 347 l 347 521 l 173 521 l 173 0 l 0 0 m 347 1042 l 347 1215 l 521 1215 l 521 1388 l 694 1388 l 694 1215 l 520 1215 l 520 1042 l 347 1042 "},"μ":{"x_min":0,"x_max":867.625,"ha":1042,"o":"m 0 -347 l 0 695 l 173 695 l 173 173 l 520 173 l 520 695 l 694 695 l 694 173 l 867 173 l 867 0 l 694 0 l 694 173 l 520 173 l 520 0 l 173 0 l 173 -347 l 0 -347 "},"ƾ":{"x_min":1,"x_max":520.625,"ha":695,"o":"m 1 0 l 1 173 l 347 173 l 347 347 l 174 347 l 174 521 l 1 521 l 1 694 l 174 694 l 174 868 l 347 868 l 347 694 l 520 694 l 520 521 l 347 521 l 347 347 l 520 347 l 520 173 l 347 173 l 347 0 l 1 0 "},".":{"x_min":0,"x_max":173.625,"ha":347,"o":"m 0 0 l 0 173 l 173 173 l 173 0 l 0 0 "},"Ѡ":{"x_min":0,"x_max":1215.625,"ha":1389,"o":"m 0 174 l 0 694 l 174 694 l 174 868 l 347 868 l 347 694 l 520 694 l 520 521 l 347 521 l 347 695 l 173 695 l 173 173 l 521 173 l 521 347 l 694 347 l 694 173 l 1042 173 l 1042 695 l 867 695 l 867 521 l 694 521 l 694 694 l 868 694 l 868 868 l 1041 868 l 1041 694 l 1215 694 l 1215 174 l 1041 174 l 1041 0 l 694 0 l 694 174 l 520 174 l 520 0 l 174 0 l 174 174 l 0 174 "},"ǀ":{"x_min":0,"x_max":173.625,"ha":347,"o":"m 0 0 l 0 868 l 173 868 l 173 0 l 0 0 "},"ƹ":{"x_min":0,"x_max":694.625,"ha":868,"o":"m 0 0 l 0 174 l 174 174 l 174 521 l 0 521 l 0 694 l 694 694 l 694 521 l 347 521 l 347 347 l 520 347 l 520 174 l 173 174 l 173 0 l 694 0 l 694 -173 l 174 -173 l 174 0 l 0 0 "},"Ǎ":{"x_min":0,"x_max":867.625,"ha":1042,"o":"m 0 0 l 0 694 l 174 694 l 174 868 l 694 868 l 694 694 l 867 694 l 867 0 l 694 0 l 694 347 l 173 347 l 173 0 l 0 0 m 173 520 l 694 520 l 694 688 l 173 688 l 173 520 m 174 1215 l 174 1388 l 347 1388 l 347 1215 l 521 1215 l 521 1388 l 694 1388 l 694 1215 l 521 1215 l 521 1042 l 347 1042 l 347 1215 l 174 1215 "},"‘":{"x_min":0,"x_max":173.625,"ha":347,"o":"m 0 521 l 0 868 l 173 868 l 173 521 l 0 521 "},"π":{"x_min":1,"x_max":867.625,"ha":1042,"o":"m 1 521 l 1 694 l 867 694 l 867 521 l 694 521 l 694 0 l 521 0 l 521 521 l 347 521 l 347 0 l 174 0 l 174 521 l 1 521 "},"Ƅ":{"x_min":1,"x_max":1041.40625,"ha":1215,"o":"m 1 521 l 1 694 l 174 694 l 174 868 l 347 868 l 347 520 l 867 520 l 867 347 l 1041 347 l 1041 174 l 867 174 l 867 0 l 174 0 l 174 521 l 1 521 m 347 173 l 861 173 l 861 347 l 347 347 l 347 173 "},"Ѩ":{"x_min":0,"x_max":1909.625,"ha":2084,"o":"m 0 0 l 0 868 l 173 868 l 173 520 l 868 520 l 868 694 l 1042 694 l 1042 868 l 1215 868 l 1215 694 l 1388 694 l 1388 520 l 1561 520 l 1561 347 l 1215 347 l 1215 0 l 1042 0 l 1042 347 l 694 347 l 694 174 l 520 174 l 520 0 l 347 0 l 347 173 l 521 173 l 521 347 l 173 347 l 173 0 l 0 0 m 1041 352 l 1215 352 l 1215 688 l 1041 688 l 1041 352 m 1563 174 l 1563 347 l 1736 347 l 1736 173 l 1909 173 l 1909 0 l 1736 0 l 1736 174 l 1563 174 "},"9":{"x_min":0,"x_max":867.625,"ha":1042,"o":"m 0 520 l 0 694 l 173 694 l 173 868 l 694 868 l 694 694 l 867 694 l 867 174 l 694 174 l 694 347 l 173 347 l 0 520 m 173 0 l 173 173 l 694 173 l 694 0 l 173 0 m 173 527 l 694 527 l 694 688 l 173 688 l 173 527 "},"l":{"x_min":0,"x_max":173.625,"ha":347,"o":"m 0 0 l 0 868 l 173 868 l 173 0 l 0 0 "},"":{"x_min":0,"x_max":694.625,"ha":868,"o":"m 0 0 l 0 695 l 173 695 l 173 868 l 694 868 l 694 695 l 173 695 l 173 520 l 694 520 l 694 0 l 521 0 l 521 347 l 173 347 l 173 0 l 0 0 "},"Ъ":{"x_min":0,"x_max":1215.40625,"ha":1389,"o":"m 0 695 l 0 868 l 520 868 l 520 520 l 1041 520 l 1041 347 l 1215 347 l 1215 174 l 1041 174 l 1041 0 l 347 0 l 347 695 l 0 695 m 520 173 l 1035 173 l 1035 347 l 520 347 l 520 173 "}," ":{"x_min":0,"x_max":0,"ha":87},"Ś":{"x_min":0,"x_max":867.625,"ha":1042,"o":"m 0 0 l 0 173 l 694 173 l 694 347 l 173 347 l 173 520 l 0 520 l 0 695 l 173 695 l 173 868 l 867 868 l 867 695 l 173 695 l 173 520 l 694 520 l 694 347 l 867 347 l 867 173 l 694 173 l 694 0 l 0 0 m 347 1042 l 347 1215 l 521 1215 l 521 1388 l 694 1388 l 694 1215 l 520 1215 l 520 1042 l 347 1042 "},"Ü":{"x_min":0,"x_max":867.625,"ha":1042,"o":"m 0 173 l 0 868 l 173 868 l 173 173 l 694 173 l 694 868 l 867 868 l 867 173 l 694 173 l 694 0 l 174 0 l 174 173 l 0 173 m 174 1042 l 174 1215 l 347 1215 l 347 1042 l 174 1042 m 521 1042 l 521 1215 l 694 1215 l 694 1042 l 521 1042 "},"à":{"x_min":0,"x_max":694.625,"ha":868,"o":"m 0 173 l 0 520 l 174 520 l 174 694 l 520 694 l 520 520 l 694 520 l 694 0 l 174 0 l 174 173 l 0 173 m 173 180 l 521 180 l 521 514 l 173 514 l 173 180 m 174 1042 l 174 1215 l 347 1215 l 347 1041 l 520 1041 l 520 868 l 347 868 l 347 1042 l 174 1042 "},"η":{"x_min":0,"x_max":694.625,"ha":868,"o":"m 0 0 l 0 694 l 521 694 l 521 521 l 694 521 l 694 -173 l 521 -173 l 521 521 l 173 521 l 173 0 l 0 0 "},"ó":{"x_min":0,"x_max":694.625,"ha":868,"o":"m 0 174 l 0 521 l 174 521 l 174 694 l 520 694 l 520 521 l 694 521 l 694 174 l 520 174 l 520 0 l 174 0 l 174 174 l 0 174 m 173 180 l 521 180 l 521 514 l 173 514 l 173 180 m 174 868 l 174 1041 l 347 1041 l 347 1215 l 520 1215 l 520 1042 l 347 1042 l 347 868 l 174 868 "},"ǟ":{"x_min":0,"x_max":694.625,"ha":868,"o":"m 0 173 l 0 520 l 173 520 l 173 694 l 521 694 l 521 520 l 694 520 l 694 0 l 173 0 l 173 173 l 0 173 m 0 868 l 0 1215 l 694 1215 l 694 868 l 521 868 l 521 1042 l 173 1042 l 173 868 l 0 868 m 173 180 l 521 180 l 521 514 l 173 514 l 173 180 "},"Ǥ":{"x_min":0,"x_max":867.625,"ha":1042,"o":"m 0 173 l 0 695 l 173 695 l 173 868 l 520 868 l 520 695 l 173 695 l 173 173 l 694 173 l 694 347 l 347 347 l 347 520 l 694 520 l 694 695 l 867 695 l 867 0 l 173 0 l 173 173 l 0 173 "},"¦":{"x_min":0,"x_max":173.625,"ha":347,"o":"m 0 0 l 0 347 l 173 347 l 173 0 l 0 0 m 0 520 l 0 868 l 173 868 l 173 520 l 0 520 "},"Ʃ":{"x_min":1,"x_max":868.625,"ha":1042,"o":"m 1 0 l 1 173 l 174 173 l 174 347 l 347 347 l 347 521 l 174 521 l 174 695 l 1 695 l 1 868 l 868 868 l 868 521 l 695 521 l 695 695 l 347 695 l 347 520 l 520 520 l 520 347 l 347 347 l 347 173 l 695 173 l 695 347 l 868 347 l 868 0 l 1 0 "},"Ѣ":{"x_min":0,"x_max":1215.40625,"ha":1389,"o":"m 0 695 l 0 868 l 867 868 l 867 695 l 520 695 l 520 520 l 1041 520 l 1041 347 l 1215 347 l 1215 174 l 1041 174 l 1041 0 l 347 0 l 347 695 l 0 695 m 520 173 l 1035 173 l 1035 347 l 520 347 l 520 173 "},"Ő":{"x_min":0,"x_max":867.625,"ha":1042,"o":"m 0 173 l 0 694 l 174 694 l 174 868 l 694 868 l 694 694 l 867 694 l 867 173 l 694 173 l 694 0 l 174 0 l 174 173 l 0 173 m 173 180 l 694 180 l 694 688 l 173 688 l 173 180 m 174 1042 l 174 1215 l 347 1215 l 347 1388 l 521 1388 l 521 1215 l 694 1215 l 694 1388 l 867 1388 l 867 1215 l 694 1215 l 694 1042 l 521 1042 l 521 1215 l 347 1215 l 347 1042 l 174 1042 "},"Ž":{"x_min":1,"x_max":867.625,"ha":1042,"o":"m 1 0 l 1 173 l 174 173 l 174 347 l 347 347 l 347 520 l 521 520 l 521 695 l 1 695 l 1 868 l 867 868 l 867 695 l 694 695 l 694 520 l 520 520 l 520 347 l 347 347 l 347 173 l 867 173 l 867 0 l 1 0 m 174 1215 l 174 1388 l 347 1388 l 347 1215 l 521 1215 l 521 1388 l 694 1388 l 694 1215 l 520 1215 l 520 1042 l 347 1042 l 347 1215 l 174 1215 "},"е":{"x_min":0,"x_max":694.625,"ha":868,"o":"m 0 173 l 0 520 l 173 520 l 173 694 l 694 694 l 694 347 l 520 347 l 520 173 l 694 173 l 694 0 l 173 0 l 173 173 l 0 173 m 173 180 l 347 180 l 347 353 l 521 353 l 521 514 l 173 514 l 173 180 "},"ƪ":{"x_min":0,"x_max":520.625,"ha":695,"o":"m 0 695 l 0 868 l 173 868 l 173 695 l 347 695 l 347 0 l 520 0 l 520 -173 l 347 -173 l 347 0 l 174 0 l 174 695 l 0 695 "},"Î":{"x_min":-174,"x_max":347.625,"ha":347,"o":"m -174 1042 l -174 1215 l 0 1215 l 0 1388 l 173 1388 l 173 1215 l 347 1215 l 347 1042 l 174 1042 l 174 1215 l 0 1215 l 0 1042 l -174 1042 m 0 0 l 0 868 l 173 868 l 173 0 l 0 0 "},"e":{"x_min":0,"x_max":694.625,"ha":868,"o":"m 0 173 l 0 520 l 173 520 l 173 694 l 694 694 l 694 347 l 520 347 l 520 173 l 694 173 l 694 0 l 173 0 l 173 173 l 0 173 m 173 180 l 347 180 l 347 353 l 521 353 l 521 514 l 173 514 l 173 180 "},"ό":{"x_min":0,"x_max":694.625,"ha":868,"o":"m 0 174 l 0 521 l 174 521 l 174 694 l 521 694 l 521 521 l 694 521 l 694 174 l 521 174 l 521 0 l 174 0 l 174 174 l 0 174 m 173 180 l 521 180 l 521 514 l 173 514 l 173 180 m 174 868 l 174 1215 l 347 1215 l 347 868 l 174 868 "},"Ĕ":{"x_min":0,"x_max":867.625,"ha":1042,"o":"m 0 0 l 0 868 l 867 868 l 867 695 l 173 695 l 173 520 l 694 520 l 694 347 l 173 347 l 173 173 l 867 173 l 867 0 l 0 0 m 174 1215 l 174 1388 l 347 1388 l 347 1215 l 521 1215 l 521 1388 l 694 1388 l 694 1215 l 521 1215 l 521 1042 l 347 1042 l 347 1215 l 174 1215 "},"ļ":{"x_min":-174,"x_max":173.625,"ha":174,"o":"m -174 0 l -174 868 l 0 868 l 0 0 l 173 0 l 173 -173 l 0 -173 l 0 -347 l -174 -347 l -174 -173 l 0 -173 l 0 0 l -174 0 "}," ":{"x_min":0,"x_max":0,"ha":781},"Ѓ":{"x_min":0,"x_max":693.625,"ha":868,"o":"m 0 0 l 0 868 l 693 868 l 693 695 l 173 695 l 173 0 l 0 0 m 174 1042 l 174 1215 l 347 1215 l 347 1388 l 520 1388 l 520 1215 l 347 1215 l 347 1042 l 174 1042 "},"Ѽ":{"x_min":0,"x_max":1215.625,"ha":1389,"o":"m 0 174 l 0 694 l 174 694 l 174 868 l 347 868 l 347 1041 l 521 1041 l 521 1215 l 694 1215 l 694 1042 l 520 1042 l 520 868 l 347 868 l 347 694 l 520 694 l 520 521 l 347 521 l 347 695 l 173 695 l 173 173 l 521 173 l 521 347 l 694 347 l 694 173 l 1042 173 l 1042 695 l 867 695 l 867 521 l 694 521 l 694 694 l 868 694 l 868 868 l 1041 868 l 1041 694 l 1215 694 l 1215 174 l 1041 174 l 1041 0 l 694 0 l 694 174 l 520 174 l 520 0 l 174 0 l 174 174 l 0 174 "},"ò":{"x_min":0,"x_max":694.625,"ha":868,"o":"m 0 174 l 0 521 l 174 521 l 174 694 l 520 694 l 520 521 l 694 521 l 694 174 l 520 174 l 520 0 l 174 0 l 174 174 l 0 174 m 173 180 l 521 180 l 521 514 l 173 514 l 173 180 m 174 1042 l 174 1215 l 347 1215 l 347 1041 l 520 1041 l 520 868 l 347 868 l 347 1042 l 174 1042 "},"^":{"x_min":-4,"x_max":516.625,"ha":695,"o":"m -4 521 l -4 694 l 169 694 l 169 868 l 343 868 l 343 694 l 516 694 l 516 521 l 343 521 l 343 695 l 169 695 l 169 521 l -4 521 "},"∙":{"x_min":0,"x_max":173.625,"ha":347,"o":"m 0 347 l 0 520 l 173 520 l 173 347 l 0 347 "},"к":{"x_min":0,"x_max":694.625,"ha":868,"o":"m 0 0 l 0 694 l 173 694 l 173 347 l 347 347 l 347 520 l 521 520 l 521 694 l 694 694 l 694 521 l 520 521 l 520 347 l 694 347 l 694 0 l 521 0 l 521 347 l 347 347 l 347 174 l 173 174 l 173 0 l 0 0 "},"ǘ":{"x_min":0,"x_max":694.625,"ha":868,"o":"m 0 173 l 0 695 l 173 695 l 173 173 l 521 173 l 521 695 l 694 695 l 694 0 l 174 0 l 174 173 l 0 173 m 0 868 l 0 1041 l 174 1041 l 174 1215 l 347 1215 l 347 1388 l 520 1388 l 520 1215 l 347 1215 l 347 1042 l 173 1042 l 173 868 l 0 868 m 521 868 l 521 1041 l 694 1041 l 694 868 l 521 868 "},"ѻ":{"x_min":0,"x_max":1215.625,"ha":1389,"o":"m 0 174 l 0 521 l 173 521 l 173 694 l 521 694 l 521 868 l 694 868 l 694 694 l 1042 694 l 1042 521 l 1215 521 l 1215 174 l 1042 174 l 1042 0 l 694 0 l 694 -173 l 521 -173 l 521 0 l 173 0 l 173 174 l 0 174 m 173 180 l 1042 180 l 1042 514 l 173 514 l 173 180 "},"ū":{"x_min":0,"x_max":694.625,"ha":868,"o":"m 0 173 l 0 695 l 173 695 l 173 173 l 521 173 l 521 695 l 694 695 l 694 0 l 173 0 l 173 173 l 0 173 m 0 868 l 0 1041 l 694 1041 l 694 868 l 0 868 "},"ˆ":{"x_min":-4,"x_max":516.625,"ha":695,"o":"m -4 521 l -4 694 l 169 694 l 169 868 l 343 868 l 343 694 l 516 694 l 516 521 l 343 521 l 343 695 l 169 695 l 169 521 l -4 521 "},"č":{"x_min":0,"x_max":694.625,"ha":868,"o":"m 0 173 l 0 521 l 173 521 l 173 694 l 694 694 l 694 521 l 173 521 l 173 173 l 694 173 l 694 0 l 173 0 l 173 173 l 0 173 m 0 1042 l 0 1215 l 173 1215 l 173 1041 l 521 1041 l 521 1215 l 694 1215 l 694 1042 l 521 1042 l 521 868 l 173 868 l 173 1042 l 0 1042 "},"’":{"x_min":0,"x_max":173.625,"ha":347,"o":"m 0 521 l 0 868 l 173 868 l 173 521 l 0 521 "},"Ν":{"x_min":0,"x_max":868.625,"ha":1042,"o":"m 0 0 l 0 868 l 173 868 l 173 694 l 347 694 l 347 520 l 520 520 l 520 347 l 695 347 l 695 868 l 868 868 l 868 0 l 695 0 l 695 174 l 520 174 l 520 347 l 347 347 l 347 521 l 173 521 l 173 0 l 0 0 "},"-":{"x_min":0,"x_max":694.5,"ha":868,"o":"m 0 347 l 0 520 l 694 520 l 694 347 l 0 347 "},"Q":{"x_min":0,"x_max":867.625,"ha":1042,"o":"m 0 173 l 0 694 l 173 694 l 173 868 l 694 868 l 694 694 l 867 694 l 867 173 l 694 173 l 694 0 l 867 0 l 867 -173 l 694 -173 l 694 0 l 173 0 l 173 173 l 0 173 m 173 180 l 694 180 l 694 688 l 173 688 l 173 180 "},"ј":{"x_min":-174,"x_max":173.625,"ha":347,"o":"m -174 0 l 0 0 l 0 -173 l -174 -173 l -174 0 m 0 0 l 0 521 l 173 521 l 173 0 l 0 0 m 0 695 l 0 868 l 173 868 l 173 695 l 0 695 "},"ě":{"x_min":0,"x_max":694.625,"ha":868,"o":"m 0 173 l 0 520 l 173 520 l 173 694 l 694 694 l 694 347 l 520 347 l 520 173 l 694 173 l 694 0 l 173 0 l 173 173 l 0 173 m 0 1042 l 0 1215 l 173 1215 l 173 1041 l 521 1041 l 521 1215 l 694 1215 l 694 1042 l 520 1042 l 520 868 l 173 868 l 173 1042 l 0 1042 m 173 180 l 347 180 l 347 353 l 521 353 l 521 514 l 173 514 l 173 180 "},"œ":{"x_min":0,"x_max":1215.625,"ha":1389,"o":"m 0 174 l 0 521 l 174 521 l 174 694 l 521 694 l 521 521 l 694 521 l 694 694 l 1215 694 l 1215 347 l 1041 347 l 1041 173 l 1215 173 l 1215 0 l 694 0 l 694 174 l 521 174 l 521 0 l 174 0 l 174 174 l 0 174 m 173 180 l 521 180 l 521 514 l 173 514 l 173 180 m 694 180 l 868 180 l 868 353 l 1042 353 l 1042 514 l 694 514 l 694 180 "},"#":{"x_min":1,"x_max":867.625,"ha":1042,"o":"m 1 174 l 1 347 l 174 347 l 174 521 l 1 521 l 1 694 l 174 694 l 174 868 l 347 868 l 347 694 l 521 694 l 521 868 l 694 868 l 694 694 l 867 694 l 867 521 l 694 521 l 694 347 l 867 347 l 867 174 l 694 174 l 694 0 l 521 0 l 521 174 l 347 174 l 347 0 l 174 0 l 174 174 l 1 174 m 347 347 l 521 347 l 521 521 l 347 521 l 347 347 "},"Ǧ":{"x_min":0,"x_max":867.625,"ha":1042,"o":"m 0 173 l 0 695 l 174 695 l 174 868 l 867 868 l 867 695 l 173 695 l 173 173 l 694 173 l 694 347 l 347 347 l 347 520 l 867 520 l 867 0 l 174 0 l 174 173 l 0 173 m 174 1215 l 174 1388 l 347 1388 l 347 1215 l 521 1215 l 521 1388 l 694 1388 l 694 1215 l 520 1215 l 520 1042 l 347 1042 l 347 1215 l 174 1215 "},"Ɵ":{"x_min":0,"x_max":867.625,"ha":1042,"o":"m 0 173 l 0 694 l 173 694 l 173 868 l 694 868 l 694 694 l 867 694 l 867 173 l 694 173 l 694 0 l 173 0 l 173 173 l 0 173 m 173 180 l 694 180 l 694 347 l 173 347 l 173 180 m 173 520 l 694 520 l 694 688 l 173 688 l 173 520 "},"ǉ":{"x_min":0,"x_max":520.625,"ha":695,"o":"m 0 0 l 0 868 l 173 868 l 173 0 l 0 0 m 174 -173 l 347 -173 l 347 -347 l 174 -347 l 174 -173 m 347 -173 l 347 521 l 520 521 l 520 -173 l 347 -173 m 347 695 l 347 868 l 520 868 l 520 695 l 347 695 "},"Џ":{"x_min":0,"x_max":868.625,"ha":1042,"o":"m 0 0 l 0 868 l 173 868 l 173 173 l 695 173 l 695 868 l 868 868 l 868 0 l 520 0 l 520 -173 l 347 -173 l 347 0 l 0 0 "},"Ѥ":{"x_min":0,"x_max":1215.625,"ha":1389,"o":"m 0 0 l 0 868 l 173 868 l 173 520 l 347 520 l 347 694 l 520 694 l 520 868 l 1042 868 l 1042 694 l 1215 694 l 1215 521 l 1042 521 l 1042 695 l 520 695 l 520 520 l 867 520 l 867 347 l 520 347 l 520 173 l 1042 173 l 1042 347 l 1215 347 l 1215 174 l 1042 174 l 1042 0 l 520 0 l 520 174 l 347 174 l 347 347 l 173 347 l 173 0 l 0 0 "},"↗":{"x_min":0,"x_max":868.625,"ha":1042,"o":"m 0 0 l 0 173 l 174 173 l 174 347 l 347 347 l 347 520 l 520 520 l 520 695 l 0 695 l 0 868 l 868 868 l 868 0 l 695 0 l 695 520 l 520 520 l 520 347 l 347 347 l 347 174 l 173 174 l 173 0 l 0 0 "},"Å":{"x_min":0,"x_max":867.625,"ha":1042,"o":"m 0 0 l 0 694 l 174 694 l 174 868 l 347 868 l 347 1042 l 174 1042 l 174 1215 l 347 1215 l 347 1389 l 520 1389 l 520 1215 l 694 1215 l 694 1042 l 520 1042 l 520 868 l 694 868 l 694 694 l 867 694 l 867 0 l 694 0 l 694 347 l 173 347 l 173 0 l 0 0 m 173 520 l 694 520 l 694 688 l 173 688 l 173 520 m 347 1048 l 521 1048 l 521 1209 l 347 1209 l 347 1048 "},"Ѵ":{"x_min":0,"x_max":867.625,"ha":1042,"o":"m 0 347 l 0 868 l 173 868 l 173 347 l 347 347 l 347 173 l 521 173 l 521 695 l 694 695 l 694 868 l 867 868 l 867 695 l 694 695 l 694 174 l 521 174 l 521 0 l 347 0 l 347 174 l 174 174 l 174 347 l 0 347 "},"ǎ":{"x_min":0,"x_max":694.625,"ha":868,"o":"m 0 173 l 0 520 l 174 520 l 174 694 l 521 694 l 521 520 l 694 520 l 694 0 l 174 0 l 174 173 l 0 173 m 0 1042 l 0 1215 l 173 1215 l 173 1041 l 521 1041 l 521 1215 l 694 1215 l 694 1042 l 521 1042 l 521 868 l 174 868 l 174 1042 l 0 1042 m 173 180 l 521 180 l 521 514 l 173 514 l 173 180 "},"⋲":{"x_min":0,"x_max":867.625,"ha":1042,"o":"m 0 174 l 0 347 l 174 347 l 174 520 l 521 520 l 521 347 l 694 347 l 694 520 l 867 520 l 867 347 l 694 347 l 694 174 l 521 174 l 521 347 l 173 347 l 173 174 l 0 174 m 0 696 l 0 869 l 174 869 l 174 1041 l 521 1041 l 521 869 l 694 869 l 694 1041 l 867 1041 l 867 868 l 694 868 l 694 696 l 521 696 l 521 868 l 173 868 l 173 696 l 0 696 "},"¸":{"x_min":0,"x_max":347.625,"ha":521,"o":"m 0 -173 l 174 -173 l 174 0 l 347 0 l 347 -173 l 173 -173 l 173 -347 l 0 -347 l 0 -173 "},"=":{"x_min":0,"x_max":868.125,"ha":1042,"o":"m 0 174 l 0 347 l 868 347 l 868 174 l 0 174 m 0 521 l 0 694 l 868 694 l 868 521 l 0 521 "},"Ћ":{"x_min":0,"x_max":1041.625,"ha":1215,"o":"m 0 695 l 0 868 l 867 868 l 867 695 l 520 695 l 520 520 l 867 520 l 867 347 l 1041 347 l 1041 0 l 868 0 l 868 347 l 520 347 l 520 0 l 347 0 l 347 695 l 0 695 "},"ρ":{"x_min":0,"x_max":694.625,"ha":868,"o":"m 0 -347 l 0 694 l 521 694 l 521 520 l 694 520 l 694 173 l 521 173 l 521 0 l 173 0 l 173 -347 l 0 -347 m 173 180 l 521 180 l 521 514 l 173 514 l 173 180 "},"Ǖ":{"x_min":0,"x_max":867.625,"ha":1042,"o":"m 0 173 l 0 868 l 173 868 l 173 173 l 694 173 l 694 868 l 867 868 l 867 173 l 694 173 l 694 0 l 174 0 l 174 173 l 0 173 m 174 1042 l 174 1389 l 694 1389 l 694 1042 l 521 1042 l 521 1215 l 347 1215 l 347 1042 l 174 1042 "},"ú":{"x_min":0,"x_max":694.625,"ha":868,"o":"m 0 173 l 0 695 l 173 695 l 173 173 l 521 173 l 521 695 l 694 695 l 694 0 l 174 0 l 174 173 l 0 173 m 174 868 l 174 1041 l 347 1041 l 347 1215 l 520 1215 l 520 1042 l 347 1042 l 347 868 l 174 868 "},"˚":{"x_min":0,"x_max":520.625,"ha":695,"o":"m 0 347 l 0 520 l 174 520 l 174 694 l 347 694 l 347 520 l 520 520 l 520 347 l 347 347 l 347 173 l 174 173 l 174 347 l 0 347 m 173 354 l 347 354 l 347 514 l 173 514 l 173 354 "},"д":{"x_min":-174,"x_max":867.625,"ha":868,"o":"m -174 0 l 0 0 l 0 694 l 694 694 l 694 0 l 867 0 l 867 -173 l 694 -173 l 694 0 l 0 0 l 0 -173 l -174 -173 l -174 0 m 173 173 l 521 173 l 521 521 l 173 521 l 173 173 "},"¯":{"x_min":0,"x_max":520.875,"ha":694,"o":"m 0 695 l 0 868 l 520 868 l 520 695 l 0 695 "},"u":{"x_min":0,"x_max":694.625,"ha":868,"o":"m 0 173 l 0 695 l 173 695 l 173 173 l 521 173 l 521 695 l 694 695 l 694 0 l 173 0 l 173 173 l 0 173 "},"ƕ":{"x_min":0,"x_max":1215.625,"ha":1389,"o":"m 0 0 l 0 868 l 173 868 l 173 694 l 521 694 l 521 521 l 694 521 l 694 173 l 1042 173 l 1042 694 l 1215 694 l 1215 173 l 1042 173 l 1042 0 l 694 0 l 694 173 l 521 173 l 521 521 l 173 521 l 173 0 l 0 0 "},"З":{"x_min":0,"x_max":867.625,"ha":1042,"o":"m 0 174 l 0 347 l 173 347 l 173 173 l 694 173 l 694 347 l 347 347 l 347 521 l 694 521 l 694 695 l 173 695 l 173 521 l 0 521 l 0 694 l 173 694 l 173 868 l 694 868 l 694 694 l 867 694 l 867 521 l 694 521 l 694 347 l 867 347 l 867 174 l 694 174 l 694 0 l 173 0 l 173 174 l 0 174 "},"Α":{"x_min":0,"x_max":867.625,"ha":868,"o":"m 0 0 l 0 694 l 173 694 l 173 868 l 694 868 l 694 694 l 867 694 l 867 0 l 694 0 l 694 347 l 173 347 l 173 0 l 0 0 m 173 520 l 694 520 l 694 688 l 173 688 l 173 520 "},"é":{"x_min":0,"x_max":694.625,"ha":868,"o":"m 0 173 l 0 520 l 174 520 l 174 694 l 694 694 l 694 347 l 520 347 l 520 173 l 694 173 l 694 0 l 174 0 l 174 173 l 0 173 m 173 180 l 347 180 l 347 353 l 521 353 l 521 514 l 173 514 l 173 180 m 174 868 l 174 1041 l 347 1041 l 347 1215 l 520 1215 l 520 1042 l 347 1042 l 347 868 l 174 868 "},"Ş":{"x_min":0,"x_max":868.625,"ha":1042,"o":"m 0 0 l 0 173 l 695 173 l 695 347 l 174 347 l 174 520 l 0 520 l 0 695 l 174 695 l 174 868 l 868 868 l 868 695 l 173 695 l 173 520 l 695 520 l 695 347 l 868 347 l 868 173 l 695 173 l 695 0 l 520 0 l 520 -173 l 347 -173 l 347 -347 l 174 -347 l 174 -173 l 347 -173 l 347 0 l 0 0 "},"↓":{"x_min":0,"x_max":868.625,"ha":1042,"o":"m 0 347 l 0 520 l 173 520 l 173 347 l 347 347 l 347 868 l 520 868 l 520 347 l 695 347 l 695 520 l 868 520 l 868 347 l 695 347 l 695 174 l 520 174 l 520 0 l 347 0 l 347 174 l 173 174 l 173 347 l 0 347 "},"B":{"x_min":0,"x_max":868.40625,"ha":1042,"o":"m 0 0 l 0 868 l 694 868 l 694 694 l 868 694 l 868 521 l 694 521 l 694 347 l 868 347 l 868 174 l 694 174 l 694 0 l 0 0 m 173 173 l 688 173 l 688 347 l 173 347 l 173 173 m 173 520 l 688 520 l 688 695 l 173 695 l 173 520 "},"…":{"x_min":0,"x_max":868.625,"ha":1042,"o":"m 0 0 l 0 173 l 173 173 l 173 0 l 0 0 m 347 0 l 347 173 l 520 173 l 520 0 l 347 0 m 695 0 l 695 173 l 868 173 l 868 0 l 695 0 "},"H":{"x_min":0,"x_max":867.625,"ha":1042,"o":"m 0 0 l 0 868 l 173 868 l 173 520 l 694 520 l 694 868 l 867 868 l 867 0 l 694 0 l 694 347 l 173 347 l 173 0 l 0 0 "},"î":{"x_min":-174,"x_max":347.625,"ha":347,"o":"m -174 695 l -174 868 l 0 868 l 0 1041 l 173 1041 l 173 868 l 347 868 l 347 695 l 174 695 l 174 868 l 0 868 l 0 695 l -174 695 m 0 0 l 0 521 l 173 521 l 173 0 l 0 0 "},"ν":{"x_min":0,"x_max":867.625,"ha":1042,"o":"m 0 521 l 0 694 l 173 694 l 173 521 l 347 521 l 347 173 l 521 173 l 521 521 l 694 521 l 694 694 l 867 694 l 867 521 l 694 521 l 694 174 l 521 174 l 521 0 l 347 0 l 347 174 l 174 174 l 174 521 l 0 521 "},"ư":{"x_min":0,"x_max":867.625,"ha":1042,"o":"m 0 173 l 0 695 l 173 695 l 173 173 l 521 173 l 521 695 l 694 695 l 694 868 l 867 868 l 867 695 l 694 695 l 694 0 l 173 0 l 173 173 l 0 173 "},"Ό":{"x_min":0,"x_max":1215.625,"ha":1389,"o":"m 0 521 l 0 695 l 174 695 l 174 868 l 347 868 l 347 694 l 173 694 l 173 521 l 0 521 m 347 173 l 347 695 l 520 695 l 520 868 l 1042 868 l 1042 695 l 1215 695 l 1215 173 l 1042 173 l 1042 0 l 520 0 l 520 173 l 347 173 m 520 180 l 1042 180 l 1042 688 l 520 688 l 520 180 "},"−":{"x_min":0,"x_max":694.5,"ha":868,"o":"m 0 347 l 0 520 l 694 520 l 694 347 l 0 347 "},"ǰ":{"x_min":-174,"x_max":347.625,"ha":347,"o":"m -174 -173 l 0 -173 l 0 -347 l -174 -347 l -174 -173 m -174 868 l -174 1041 l 0 1041 l 0 868 l 174 868 l 174 1041 l 347 1041 l 347 868 l 173 868 l 173 695 l 0 695 l 0 868 l -174 868 m 0 -173 l 0 521 l 173 521 l 173 -173 l 0 -173 "},"ǫ":{"x_min":0,"x_max":694.625,"ha":868,"o":"m 0 173 l 0 521 l 174 521 l 174 694 l 520 694 l 520 521 l 694 521 l 694 173 l 520 173 l 520 0 l 347 0 l 347 -173 l 520 -173 l 520 -347 l 347 -347 l 347 -173 l 174 -173 l 174 173 l 0 173 m 173 180 l 521 180 l 521 514 l 173 514 l 173 180 "},"ā":{"x_min":0,"x_max":694.625,"ha":868,"o":"m 0 173 l 0 520 l 173 520 l 173 694 l 521 694 l 521 520 l 694 520 l 694 0 l 173 0 l 173 173 l 0 173 m 0 868 l 0 1041 l 694 1041 l 694 868 l 0 868 m 173 180 l 521 180 l 521 514 l 173 514 l 173 180 "},"ĵ":{"x_min":0,"x_max":520.625,"ha":521,"o":"m 0 -173 l 173 -173 l 173 -347 l 0 -347 l 0 -173 m 0 695 l 0 868 l 174 868 l 174 1041 l 347 1041 l 347 868 l 520 868 l 520 695 l 347 695 l 347 868 l 173 868 l 173 695 l 0 695 m 174 -173 l 174 521 l 347 521 l 347 -173 l 174 -173 "},"Ĩ":{"x_min":-174,"x_max":520.625,"ha":347,"o":"m -174 1042 l -174 1215 l 0 1215 l 0 1388 l 173 1388 l 173 1215 l 347 1215 l 347 1388 l 520 1388 l 520 1215 l 347 1215 l 347 1042 l 173 1042 l 173 1215 l 0 1215 l 0 1042 l -174 1042 m 0 0 l 0 868 l 173 868 l 173 0 l 0 0 "},"←":{"x_min":1,"x_max":867.625,"ha":1042,"o":"m 1 347 l 1 520 l 174 520 l 174 695 l 347 695 l 347 868 l 520 868 l 520 695 l 347 695 l 347 520 l 867 520 l 867 347 l 347 347 l 347 173 l 520 173 l 520 0 l 347 0 l 347 173 l 174 173 l 174 347 l 1 347 "},"*":{"x_min":1,"x_max":867.625,"ha":1042,"o":"m 1 347 l 1 520 l 347 520 l 347 695 l 174 695 l 174 868 l 347 868 l 347 695 l 521 695 l 521 868 l 694 868 l 694 695 l 520 695 l 520 520 l 867 520 l 867 347 l 520 347 l 520 173 l 694 173 l 694 0 l 521 0 l 521 173 l 347 173 l 347 0 l 174 0 l 174 173 l 347 173 l 347 347 l 1 347 "},"ă":{"x_min":0,"x_max":694.625,"ha":868,"o":"m 0 173 l 0 520 l 174 520 l 174 694 l 521 694 l 521 520 l 694 520 l 694 0 l 174 0 l 174 173 l 0 173 m 0 1042 l 0 1215 l 173 1215 l 173 1041 l 521 1041 l 521 1215 l 694 1215 l 694 1042 l 521 1042 l 521 868 l 174 868 l 174 1042 l 0 1042 m 173 180 l 521 180 l 521 514 l 173 514 l 173 180 "},"Χ":{"x_min":0,"x_max":867.625,"ha":1042,"o":"m 0 0 l 0 173 l 174 173 l 174 347 l 347 347 l 347 521 l 174 521 l 174 695 l 0 695 l 0 868 l 173 868 l 173 694 l 347 694 l 347 521 l 521 521 l 521 694 l 694 694 l 694 868 l 867 868 l 867 695 l 694 695 l 694 521 l 521 521 l 521 347 l 694 347 l 694 173 l 867 173 l 867 0 l 694 0 l 694 174 l 521 174 l 521 347 l 347 347 l 347 174 l 173 174 l 173 0 l 0 0 "},"†":{"x_min":1,"x_max":520.625,"ha":694,"o":"m 1 347 l 1 520 l 174 520 l 174 695 l 347 695 l 347 520 l 520 520 l 520 347 l 347 347 l 347 0 l 174 0 l 174 347 l 1 347 "},"°":{"x_min":0,"x_max":520.625,"ha":695,"o":"m 0 521 l 0 694 l 174 694 l 174 868 l 347 868 l 347 694 l 520 694 l 520 521 l 347 521 l 347 347 l 174 347 l 174 521 l 0 521 m 173 528 l 347 528 l 347 688 l 173 688 l 173 528 "},"Ξ":{"x_min":0,"x_max":694.5,"ha":868,"o":"m 0 0 l 0 173 l 694 173 l 694 0 l 0 0 m 0 695 l 0 868 l 694 868 l 694 695 l 0 695 m 173 347 l 173 520 l 520 520 l 520 347 l 173 347 "},"":{"x_min":0,"x_max":0,"ha":1389},"Ķ":{"x_min":0,"x_max":867.625,"ha":1042,"o":"m 0 0 l 0 868 l 173 868 l 173 521 l 521 521 l 521 694 l 694 694 l 694 868 l 867 868 l 867 695 l 694 695 l 694 521 l 520 521 l 520 347 l 694 347 l 694 173 l 867 173 l 867 0 l 694 0 l 694 174 l 521 174 l 521 347 l 173 347 l 173 0 l 0 0 m 174 -173 l 347 -173 l 347 0 l 520 0 l 520 -173 l 347 -173 l 347 -347 l 174 -347 l 174 -173 "},"ŵ":{"x_min":0,"x_max":1215.625,"ha":1389,"o":"m 0 174 l 0 694 l 173 694 l 173 173 l 521 173 l 521 694 l 694 694 l 694 173 l 1042 173 l 1042 694 l 1215 694 l 1215 174 l 1042 174 l 1042 0 l 694 0 l 694 174 l 520 174 l 520 0 l 173 0 l 173 174 l 0 174 m 347 868 l 347 1041 l 521 1041 l 521 1215 l 694 1215 l 694 1041 l 867 1041 l 867 868 l 694 868 l 694 1042 l 520 1042 l 520 868 l 347 868 "},"΄":{"x_min":0,"x_max":347.625,"ha":521,"o":"m 0 521 l 0 694 l 174 694 l 174 868 l 347 868 l 347 695 l 173 695 l 173 521 l 0 521 "},"ǁ":{"x_min":0,"x_max":520.625,"ha":695,"o":"m 0 0 l 0 868 l 173 868 l 173 0 l 0 0 m 347 0 l 347 868 l 520 868 l 520 0 l 347 0 "},"ǽ":{"x_min":0,"x_max":1215.625,"ha":1389,"o":"m 0 173 l 0 520 l 173 520 l 173 694 l 521 694 l 521 520 l 694 520 l 694 694 l 1215 694 l 1215 347 l 1041 347 l 1041 173 l 1215 173 l 1215 0 l 173 0 l 173 173 l 0 173 m 173 180 l 521 180 l 521 514 l 173 514 l 173 180 m 521 868 l 521 1041 l 694 1041 l 694 1215 l 867 1215 l 867 1042 l 694 1042 l 694 868 l 521 868 m 694 180 l 868 180 l 868 353 l 1042 353 l 1042 514 l 694 514 l 694 180 "},"Β":{"x_min":0,"x_max":868.40625,"ha":1042,"o":"m 0 0 l 0 868 l 694 868 l 694 694 l 868 694 l 868 521 l 694 521 l 694 347 l 868 347 l 868 174 l 694 174 l 694 0 l 0 0 m 173 173 l 688 173 l 688 347 l 173 347 l 173 173 m 173 520 l 688 520 l 688 695 l 173 695 l 173 520 "},"Ļ":{"x_min":0,"x_max":693.625,"ha":868,"o":"m 0 0 l 0 868 l 173 868 l 173 173 l 693 173 l 693 0 l 520 0 l 520 -173 l 347 -173 l 347 -347 l 174 -347 l 174 -173 l 347 -173 l 347 0 l 0 0 "},"Õ":{"x_min":0,"x_max":867.625,"ha":1042,"o":"m 0 173 l 0 694 l 174 694 l 174 868 l 694 868 l 694 694 l 867 694 l 867 173 l 694 173 l 694 0 l 174 0 l 174 173 l 0 173 m 173 180 l 694 180 l 694 688 l 173 688 l 173 180 m 174 1043 l 174 1216 l 347 1216 l 347 1390 l 521 1390 l 521 1216 l 694 1216 l 694 1390 l 867 1390 l 867 1217 l 694 1217 l 694 1043 l 521 1043 l 521 1217 l 347 1217 l 347 1043 l 174 1043 "},"ƫ":{"x_min":1,"x_max":520.625,"ha":695,"o":"m 1 521 l 1 694 l 174 694 l 174 868 l 347 868 l 347 694 l 520 694 l 520 521 l 347 521 l 347 0 l 520 0 l 520 -173 l 347 -173 l 347 -347 l 174 -347 l 174 -173 l 347 -173 l 347 0 l 174 0 l 174 521 l 1 521 "},"χ":{"x_min":0,"x_max":867.625,"ha":1042,"o":"m 0 0 l 174 0 l 174 173 l 347 173 l 347 347 l 174 347 l 174 521 l 0 521 l 0 694 l 173 694 l 173 520 l 347 520 l 347 347 l 521 347 l 521 520 l 694 520 l 694 694 l 867 694 l 867 521 l 694 521 l 694 347 l 521 347 l 521 173 l 694 173 l 694 0 l 867 0 l 867 -173 l 694 -173 l 694 0 l 521 0 l 521 173 l 347 173 l 347 0 l 173 0 l 173 -173 l 0 -173 l 0 0 "},"ί":{"x_min":0,"x_max":347.625,"ha":521,"o":"m 0 173 l 0 695 l 173 695 l 173 173 l 0 173 m 0 868 l 0 1215 l 173 1215 l 173 868 l 0 868 m 174 0 l 174 173 l 347 173 l 347 0 l 174 0 "},"Ζ":{"x_min":1,"x_max":867.625,"ha":1042,"o":"m 1 0 l 1 173 l 174 173 l 174 347 l 347 347 l 347 520 l 521 520 l 521 695 l 1 695 l 1 868 l 867 868 l 867 695 l 694 695 l 694 520 l 520 520 l 520 347 l 347 347 l 347 173 l 867 173 l 867 0 l 1 0 "},"Ľ":{"x_min":0,"x_max":694.625,"ha":868,"o":"m 0 0 l 0 868 l 173 868 l 173 173 l 694 173 l 694 0 l 0 0 m 347 521 l 347 694 l 521 694 l 521 868 l 694 868 l 694 695 l 520 695 l 520 521 l 347 521 "},"ť":{"x_min":1,"x_max":694.40625,"ha":695,"o":"m 1 521 l 1 694 l 174 694 l 174 868 l 347 868 l 347 1041 l 520 1041 l 520 868 l 694 868 l 694 695 l 520 695 l 520 521 l 347 521 l 347 0 l 174 0 l 174 521 l 1 521 m 354 694 l 514 694 l 514 868 l 354 868 l 354 694 "},"5":{"x_min":0,"x_max":867.625,"ha":1042,"o":"m 0 0 l 0 173 l 694 173 l 694 347 l 0 347 l 0 868 l 867 868 l 867 695 l 173 695 l 173 520 l 694 520 l 694 347 l 867 347 l 867 173 l 694 173 l 694 0 l 0 0 "},"o":{"x_min":0,"x_max":694.625,"ha":868,"o":"m 0 174 l 0 521 l 174 521 l 174 694 l 521 694 l 521 521 l 694 521 l 694 174 l 521 174 l 521 0 l 174 0 l 174 174 l 0 174 m 173 180 l 521 180 l 521 514 l 173 514 l 173 180 "},"Ѕ":{"x_min":0,"x_max":867.625,"ha":1042,"o":"m 0 0 l 0 173 l 694 173 l 694 347 l 173 347 l 173 520 l 0 520 l 0 695 l 173 695 l 173 868 l 867 868 l 867 695 l 173 695 l 173 520 l 694 520 l 694 347 l 867 347 l 867 173 l 694 173 l 694 0 l 0 0 "},"Ǐ":{"x_min":-174,"x_max":347.625,"ha":347,"o":"m -174 1215 l -174 1388 l 0 1388 l 0 1215 l 174 1215 l 174 1388 l 347 1388 l 347 1215 l 173 1215 l 173 1042 l 0 1042 l 0 1215 l -174 1215 m 0 0 l 0 868 l 173 868 l 173 0 l 0 0 "},"d":{"x_min":0,"x_max":694.625,"ha":868,"o":"m 0 173 l 0 521 l 173 521 l 173 694 l 521 694 l 521 868 l 694 868 l 694 0 l 173 0 l 173 173 l 0 173 m 180 173 l 521 173 l 521 521 l 180 521 l 180 173 "},",":{"x_min":0,"x_max":347.625,"ha":521,"o":"m 0 -173 l 174 -173 l 174 173 l 347 173 l 347 -173 l 173 -173 l 173 -347 l 0 -347 l 0 -173 "},"ѣ":{"x_min":0,"x_max":1041.40625,"ha":1215,"o":"m 0 695 l 0 868 l 867 868 l 867 695 l 520 695 l 520 520 l 867 520 l 867 347 l 1041 347 l 1041 174 l 867 174 l 867 0 l 347 0 l 347 695 l 0 695 m 520 173 l 861 173 l 861 347 l 520 347 l 520 173 "},"\"":{"x_min":0,"x_max":520.625,"ha":695,"o":"m 0 521 l 0 868 l 173 868 l 173 521 l 0 521 m 347 521 l 347 868 l 520 868 l 520 521 l 347 521 "},"ľ":{"x_min":0,"x_max":694.625,"ha":868,"o":"m 0 0 l 0 868 l 173 868 l 173 0 l 0 0 m 347 521 l 347 694 l 521 694 l 521 868 l 694 868 l 694 695 l 520 695 l 520 521 l 347 521 "},"ѥ":{"x_min":0,"x_max":1041.625,"ha":1389,"o":"m 0 0 l 0 868 l 173 868 l 173 520 l 347 520 l 347 694 l 521 694 l 521 868 l 868 868 l 868 694 l 1041 694 l 1041 521 l 868 521 l 868 695 l 520 695 l 520 520 l 693 520 l 693 347 l 520 347 l 520 173 l 868 173 l 868 347 l 1041 347 l 1041 174 l 868 174 l 868 0 l 521 0 l 521 174 l 347 174 l 347 347 l 173 347 l 173 0 l 0 0 "},"ė":{"x_min":0,"x_max":694.625,"ha":868,"o":"m 0 173 l 0 520 l 173 520 l 173 694 l 694 694 l 694 347 l 520 347 l 520 173 l 694 173 l 694 0 l 173 0 l 173 173 l 0 173 m 173 180 l 347 180 l 347 353 l 521 353 l 521 514 l 173 514 l 173 180 m 347 868 l 347 1041 l 520 1041 l 520 868 l 347 868 "},"Í":{"x_min":0,"x_max":347.625,"ha":347,"o":"m 0 0 l 0 868 l 173 868 l 173 0 l 0 0 m 0 1042 l 0 1215 l 174 1215 l 174 1388 l 347 1388 l 347 1215 l 173 1215 l 173 1042 l 0 1042 "},"Ú":{"x_min":0,"x_max":867.625,"ha":1042,"o":"m 0 173 l 0 868 l 173 868 l 173 173 l 694 173 l 694 868 l 867 868 l 867 173 l 694 173 l 694 0 l 173 0 l 173 173 l 0 173 m 347 1042 l 347 1215 l 521 1215 l 521 1388 l 694 1388 l 694 1215 l 520 1215 l 520 1042 l 347 1042 "},"Ơ":{"x_min":0,"x_max":1041.625,"ha":1215,"o":"m 0 173 l 0 694 l 173 694 l 173 868 l 694 868 l 694 694 l 868 694 l 868 868 l 1041 868 l 1041 694 l 867 694 l 867 173 l 694 173 l 694 0 l 173 0 l 173 173 l 0 173 m 173 180 l 694 180 l 694 688 l 173 688 l 173 180 "}," ":{"x_min":0,"x_max":0,"ha":312},"Ŷ":{"x_min":0,"x_max":867.625,"ha":1042,"o":"m 0 695 l 0 868 l 173 868 l 173 694 l 347 694 l 347 521 l 521 521 l 521 694 l 694 694 l 694 868 l 867 868 l 867 695 l 694 695 l 694 521 l 520 521 l 520 0 l 347 0 l 347 521 l 174 521 l 174 695 l 0 695 m 174 1042 l 174 1215 l 347 1215 l 347 1388 l 520 1388 l 520 1215 l 694 1215 l 694 1042 l 521 1042 l 521 1215 l 347 1215 l 347 1042 l 174 1042 "},"Ý":{"x_min":0,"x_max":867.625,"ha":1042,"o":"m 0 695 l 0 868 l 173 868 l 173 694 l 347 694 l 347 521 l 521 521 l 521 694 l 694 694 l 694 868 l 867 868 l 867 695 l 694 695 l 694 521 l 520 521 l 520 0 l 347 0 l 347 521 l 174 521 l 174 695 l 0 695 m 347 1042 l 347 1215 l 521 1215 l 521 1388 l 694 1388 l 694 1215 l 520 1215 l 520 1042 l 347 1042 "},"ŝ":{"x_min":0,"x_max":694.625,"ha":868,"o":"m 0 0 l 0 173 l 347 173 l 347 347 l 0 347 l 0 520 l 173 520 l 173 694 l 694 694 l 694 521 l 347 521 l 347 347 l 694 347 l 694 174 l 521 174 l 521 0 l 0 0 m 0 868 l 0 1041 l 173 1041 l 173 1215 l 521 1215 l 521 1041 l 694 1041 l 694 868 l 521 868 l 521 1042 l 173 1042 l 173 868 l 0 868 "},"ǧ":{"x_min":0,"x_max":694.625,"ha":868,"o":"m 0 173 l 0 520 l 174 520 l 174 694 l 521 694 l 521 520 l 694 520 l 694 -173 l 521 -173 l 521 -347 l 174 -347 l 174 -173 l 521 -173 l 521 0 l 174 0 l 174 173 l 0 173 m 0 1042 l 0 1215 l 173 1215 l 173 1041 l 521 1041 l 521 1215 l 694 1215 l 694 1042 l 521 1042 l 521 868 l 174 868 l 174 1042 l 0 1042 m 173 180 l 521 180 l 521 514 l 173 514 l 173 180 "}," ":{"x_min":0,"x_max":0,"ha":1563},"ą":{"x_min":0,"x_max":694.625,"ha":868,"o":"m 0 173 l 0 520 l 173 520 l 173 694 l 520 694 l 520 520 l 694 520 l 694 0 l 520 0 l 520 -173 l 694 -173 l 694 -347 l 521 -347 l 521 -173 l 347 -173 l 347 0 l 173 0 l 173 173 l 0 173 m 173 180 l 521 180 l 521 514 l 173 514 l 173 180 "},"ѵ":{"x_min":0,"x_max":867.625,"ha":1042,"o":"m 0 347 l 0 694 l 173 694 l 173 347 l 347 347 l 347 173 l 521 173 l 521 521 l 694 521 l 694 694 l 867 694 l 867 521 l 694 521 l 694 174 l 521 174 l 521 0 l 347 0 l 347 174 l 174 174 l 174 347 l 0 347 "},"ã":{"x_min":0,"x_max":694.625,"ha":868,"o":"m 0 173 l 0 520 l 174 520 l 174 694 l 520 694 l 520 520 l 694 520 l 694 0 l 174 0 l 174 173 l 0 173 m 0 868 l 0 1041 l 174 1041 l 174 1215 l 347 1215 l 347 1041 l 521 1041 l 521 1215 l 694 1215 l 694 1042 l 520 1042 l 520 868 l 347 868 l 347 1042 l 173 1042 l 173 868 l 0 868 m 173 180 l 521 180 l 521 514 l 173 514 l 173 180 "},"Ɗ":{"x_min":1,"x_max":1041.40625,"ha":1215,"o":"m 1 695 l 1 868 l 867 868 l 867 695 l 1041 695 l 1041 173 l 867 173 l 867 0 l 174 0 l 174 695 l 1 695 m 347 173 l 861 173 l 861 695 l 347 695 l 347 173 "},"ǳ":{"x_min":0,"x_max":1561.625,"ha":1736,"o":"m 0 173 l 0 521 l 173 521 l 173 694 l 521 694 l 521 868 l 694 868 l 694 0 l 173 0 l 173 173 l 0 173 m 180 173 l 521 173 l 521 521 l 180 521 l 180 173 m 869 0 l 869 173 l 1042 173 l 1042 347 l 1215 347 l 1215 521 l 869 521 l 869 694 l 1561 694 l 1561 521 l 1388 521 l 1388 347 l 1215 347 l 1215 173 l 1561 173 l 1561 0 l 869 0 "},"æ":{"x_min":0,"x_max":1215.625,"ha":1389,"o":"m 0 173 l 0 520 l 173 520 l 173 694 l 521 694 l 521 520 l 694 520 l 694 694 l 1215 694 l 1215 347 l 1041 347 l 1041 173 l 1215 173 l 1215 0 l 173 0 l 173 173 l 0 173 m 173 180 l 521 180 l 521 514 l 173 514 l 173 180 m 694 180 l 868 180 l 868 353 l 1042 353 l 1042 514 l 694 514 l 694 180 "},"ĩ":{"x_min":-174,"x_max":520.625,"ha":347,"o":"m -174 695 l -174 868 l 0 868 l 0 1041 l 173 1041 l 173 868 l 347 868 l 347 1041 l 520 1041 l 520 868 l 347 868 l 347 695 l 173 695 l 173 868 l 0 868 l 0 695 l -174 695 m 0 0 l 0 521 l 173 521 l 173 0 l 0 0 "},"⇡":{"x_min":0,"x_max":868.625,"ha":1042,"o":"m 0 521 l 0 694 l 173 694 l 173 868 l 347 868 l 347 1041 l 520 1041 l 520 868 l 695 868 l 695 694 l 868 694 l 868 521 l 695 521 l 695 695 l 520 695 l 520 521 l 347 521 l 347 695 l 173 695 l 173 521 l 0 521 m 347 0 l 520 0 l 520 -173 l 347 -173 l 347 0 m 347 174 l 347 347 l 520 347 l 520 174 l 347 174 "},"~":{"x_min":0,"x_max":694.625,"ha":868,"o":"m 0 347 l 0 520 l 173 520 l 173 694 l 347 694 l 347 520 l 521 520 l 521 694 l 694 694 l 694 521 l 521 521 l 521 347 l 347 347 l 347 521 l 173 521 l 173 347 l 0 347 "},"ŀ":{"x_min":0,"x_max":520.625,"ha":695,"o":"m 0 0 l 0 868 l 173 868 l 173 0 l 0 0 m 347 347 l 347 520 l 520 520 l 520 347 l 347 347 "},"Ċ":{"x_min":0,"x_max":868.625,"ha":1042,"o":"m 0 174 l 0 694 l 173 694 l 173 868 l 695 868 l 695 694 l 868 694 l 868 521 l 695 521 l 695 695 l 173 695 l 173 173 l 695 173 l 695 347 l 868 347 l 868 174 l 695 174 l 695 0 l 173 0 l 173 174 l 0 174 m 347 1042 l 347 1215 l 520 1215 l 520 1042 l 347 1042 "},"¡":{"x_min":0,"x_max":173.625,"ha":521,"o":"m 0 0 l 0 521 l 173 521 l 173 0 l 0 0 m 0 695 l 0 868 l 173 868 l 173 695 l 0 695 "},"ǡ":{"x_min":0,"x_max":694.625,"ha":868,"o":"m 0 173 l 0 520 l 173 520 l 173 694 l 520 694 l 520 520 l 694 520 l 694 0 l 173 0 l 173 173 l 0 173 m 0 1215 l 0 1388 l 694 1388 l 694 1215 l 0 1215 m 173 180 l 521 180 l 521 514 l 173 514 l 173 180 m 347 868 l 347 1041 l 520 1041 l 520 868 l 347 868 "},"К":{"x_min":0,"x_max":867.625,"ha":1042,"o":"m 0 0 l 0 868 l 173 868 l 173 521 l 521 521 l 521 694 l 694 694 l 694 868 l 867 868 l 867 695 l 694 695 l 694 521 l 521 521 l 521 347 l 694 347 l 694 173 l 867 173 l 867 0 l 694 0 l 694 174 l 521 174 l 521 347 l 173 347 l 173 0 l 0 0 "},"Γ":{"x_min":0,"x_max":693.625,"ha":868,"o":"m 0 0 l 0 868 l 693 868 l 693 695 l 173 695 l 173 0 l 0 0 "},"ѳ":{"x_min":0,"x_max":694.625,"ha":868,"o":"m 0 174 l 0 521 l 174 521 l 174 694 l 521 694 l 521 521 l 694 521 l 694 174 l 521 174 l 521 0 l 174 0 l 174 174 l 0 174 m 173 347 l 347 347 l 347 180 l 521 180 l 521 347 l 347 347 l 347 514 l 173 514 l 173 347 "},"P":{"x_min":0,"x_max":868.40625,"ha":1042,"o":"m 0 0 l 0 868 l 694 868 l 694 694 l 868 694 l 868 521 l 694 521 l 694 347 l 173 347 l 173 0 l 0 0 m 173 520 l 688 520 l 688 695 l 173 695 l 173 520 "},"%":{"x_min":0,"x_max":867.625,"ha":1042,"o":"m 0 0 l 0 173 l 174 173 l 174 347 l 347 347 l 347 520 l 521 520 l 521 694 l 694 694 l 694 868 l 867 868 l 867 695 l 694 695 l 694 521 l 520 521 l 520 347 l 347 347 l 347 174 l 173 174 l 173 0 l 0 0 m 0 695 l 0 868 l 173 868 l 173 695 l 0 695 m 694 0 l 694 173 l 867 173 l 867 0 l 694 0 "},"Ʒ":{"x_min":0,"x_max":694.625,"ha":868,"o":"m 0 0 l 0 173 l 521 173 l 521 347 l 174 347 l 174 520 l 347 520 l 347 695 l 0 695 l 0 868 l 694 868 l 694 695 l 520 695 l 520 347 l 694 347 l 694 173 l 520 173 l 520 0 l 0 0 "},"_":{"x_min":0,"x_max":868.125,"ha":1042,"o":"m 0 0 l 868 0 l 868 -173 l 0 -173 l 0 0 "},"ñ":{"x_min":0,"x_max":694.625,"ha":868,"o":"m 0 0 l 0 694 l 520 694 l 520 521 l 694 521 l 694 0 l 521 0 l 521 521 l 173 521 l 173 0 l 0 0 m 0 868 l 0 1041 l 173 1041 l 173 1215 l 347 1215 l 347 1041 l 521 1041 l 521 1215 l 694 1215 l 694 1042 l 520 1042 l 520 868 l 347 868 l 347 1042 l 173 1042 l 173 868 l 0 868 "},"Ŕ":{"x_min":0,"x_max":867.625,"ha":1042,"o":"m 0 0 l 0 868 l 694 868 l 694 694 l 867 694 l 867 521 l 694 521 l 694 173 l 867 173 l 867 0 l 694 0 l 694 173 l 521 173 l 521 347 l 173 347 l 173 0 l 0 0 m 173 520 l 687 520 l 687 695 l 173 695 l 173 520 m 174 1042 l 174 1215 l 347 1215 l 347 1388 l 520 1388 l 520 1215 l 347 1215 l 347 1042 l 174 1042 "},"↖":{"x_min":0,"x_max":867.625,"ha":1042,"o":"m 0 0 l 0 868 l 867 868 l 867 695 l 347 695 l 347 520 l 520 520 l 520 347 l 694 347 l 694 173 l 867 173 l 867 0 l 694 0 l 694 174 l 521 174 l 521 347 l 347 347 l 347 520 l 173 520 l 173 0 l 0 0 "},"‚":{"x_min":-174,"x_max":173.625,"ha":347,"o":"m -174 -173 l 0 -173 l 0 173 l 173 173 l 173 -173 l 0 -173 l 0 -347 l -174 -347 l -174 -173 "},"Æ":{"x_min":0,"x_max":1561.625,"ha":1736,"o":"m 0 0 l 0 695 l 173 695 l 173 868 l 1561 868 l 1561 695 l 867 695 l 867 520 l 1387 520 l 1387 347 l 867 347 l 867 173 l 1561 173 l 1561 0 l 694 0 l 694 347 l 173 347 l 173 0 l 0 0 m 180 520 l 694 520 l 694 692 l 180 692 l 180 520 "},"ѓ":{"x_min":0,"x_max":693.625,"ha":868,"o":"m 0 0 l 0 694 l 693 694 l 693 521 l 173 521 l 173 0 l 0 0 m 174 868 l 174 1041 l 347 1041 l 347 1215 l 520 1215 l 520 1042 l 347 1042 l 347 868 l 174 868 "},"ы":{"x_min":0,"x_max":1041.625,"ha":1215,"o":"m 0 0 l 0 695 l 173 695 l 173 520 l 520 520 l 520 347 l 694 347 l 694 174 l 520 174 l 520 0 l 0 0 m 173 173 l 514 173 l 514 347 l 173 347 l 173 173 m 868 0 l 868 695 l 1041 695 l 1041 0 l 868 0 "},"Ū":{"x_min":0,"x_max":867.625,"ha":1042,"o":"m 0 173 l 0 868 l 173 868 l 173 173 l 694 173 l 694 868 l 867 868 l 867 173 l 694 173 l 694 0 l 173 0 l 173 173 l 0 173 m 173 1042 l 173 1215 l 694 1215 l 694 1042 l 173 1042 "},"ǈ":{"x_min":0,"x_max":867.625,"ha":1042,"o":"m 0 0 l 0 868 l 173 868 l 173 173 l 520 173 l 520 0 l 0 0 m 521 -173 l 694 -173 l 694 -347 l 521 -347 l 521 -173 m 694 -173 l 694 521 l 867 521 l 867 -173 l 694 -173 m 694 695 l 694 868 l 867 868 l 867 695 l 694 695 "},"Ɣ":{"x_min":0,"x_max":867.625,"ha":1042,"o":"m 0 521 l 0 868 l 173 868 l 173 520 l 347 520 l 347 347 l 521 347 l 521 520 l 694 520 l 694 868 l 867 868 l 867 521 l 694 521 l 694 347 l 521 347 l 521 0 l 347 0 l 347 347 l 174 347 l 174 521 l 0 521 "},"Œ":{"x_min":0,"x_max":1561.625,"ha":1736,"o":"m 0 173 l 0 695 l 173 695 l 173 868 l 1561 868 l 1561 695 l 867 695 l 867 520 l 1387 520 l 1387 347 l 867 347 l 867 173 l 1561 173 l 1561 0 l 173 0 l 173 173 l 0 173 m 173 180 l 694 180 l 694 688 l 173 688 l 173 180 "},"΅":{"x_min":0,"x_max":520.625,"ha":695,"o":"m 0 521 l 0 694 l 173 694 l 173 521 l 0 521 m 174 695 l 174 868 l 347 868 l 347 1041 l 520 1041 l 520 868 l 347 868 l 347 695 l 174 695 m 347 521 l 347 694 l 520 694 l 520 521 l 347 521 "},"Ą":{"x_min":0,"x_max":867.625,"ha":1042,"o":"m 0 0 l 0 694 l 173 694 l 173 868 l 694 868 l 694 694 l 867 694 l 867 0 l 694 0 l 694 -173 l 867 -173 l 867 -347 l 694 -347 l 694 -173 l 521 -173 l 521 0 l 694 0 l 694 347 l 173 347 l 173 0 l 0 0 m 173 520 l 694 520 l 694 688 l 173 688 l 173 520 "},"Ƴ":{"x_min":0,"x_max":1041.625,"ha":1215,"o":"m 0 521 l 0 694 l 173 694 l 173 868 l 347 868 l 347 694 l 520 694 l 520 521 l 695 521 l 695 694 l 868 694 l 868 868 l 1041 868 l 1041 695 l 868 695 l 868 521 l 695 521 l 695 0 l 521 0 l 521 521 l 347 521 l 347 695 l 173 695 l 173 521 l 0 521 "},"Њ":{"x_min":0,"x_max":1562.40625,"ha":1736,"o":"m 0 0 l 0 868 l 173 868 l 173 520 l 694 520 l 694 868 l 867 868 l 867 520 l 1388 520 l 1388 347 l 1562 347 l 1562 174 l 1388 174 l 1388 0 l 694 0 l 694 347 l 173 347 l 173 0 l 0 0 m 867 173 l 1382 173 l 1382 347 l 867 347 l 867 173 "}," ":{"x_min":0,"x_max":0,"ha":391},"›":{"x_min":0,"x_max":347.625,"ha":521,"o":"m 0 174 l 0 347 l 174 347 l 174 521 l 0 521 l 0 694 l 173 694 l 173 521 l 347 521 l 347 347 l 173 347 l 173 174 l 0 174 "},"ћ":{"x_min":1,"x_max":867.625,"ha":1042,"o":"m 1 695 l 1 868 l 694 868 l 694 695 l 347 695 l 347 520 l 694 520 l 694 347 l 867 347 l 867 0 l 694 0 l 694 347 l 347 347 l 347 0 l 174 0 l 174 695 l 1 695 "},"→":{"x_min":0,"x_max":867.625,"ha":1042,"o":"m 0 347 l 0 520 l 521 520 l 521 695 l 347 695 l 347 868 l 520 868 l 520 695 l 694 695 l 694 520 l 867 520 l 867 347 l 694 347 l 694 173 l 520 173 l 520 0 l 347 0 l 347 173 l 521 173 l 521 347 l 0 347 "},"ѭ":{"x_min":0,"x_max":1215.625,"ha":1389,"o":"m 0 0 l 0 694 l 173 694 l 173 347 l 521 346 l 521 521 l 347 521 l 347 694 l 1215 694 l 1215 521 l 1041 521 l 1041 173 l 1215 173 l 1215 0 l 1042 0 l 1042 174 l 867 174 l 867 0 l 694 0 l 694 174 l 520 174 l 520 0 l 347 0 l 347 174 l 173 174 l 173 0 l 0 0 m 694 347 l 868 347 l 868 521 l 694 521 l 694 347 "},"<":{"x_min":0,"x_max":520.625,"ha":695,"o":"m 0 347 l 0 521 l 174 521 l 174 694 l 347 694 l 347 868 l 520 868 l 520 695 l 347 695 l 347 521 l 173 521 l 173 347 l 347 347 l 347 173 l 520 173 l 520 0 l 347 0 l 347 174 l 174 174 l 174 347 l 0 347 "},"Ц":{"x_min":0,"x_max":1041.625,"ha":1042,"o":"m 0 0 l 0 868 l 173 868 l 173 173 l 694 173 l 694 868 l 867 868 l 867 0 l 1041 0 l 1041 -173 l 868 -173 l 868 0 l 0 0 "},"¬":{"x_min":1,"x_max":868.625,"ha":1042,"o":"m 1 347 l 1 520 l 868 520 l 868 0 l 695 0 l 695 347 l 1 347 "},"t":{"x_min":1,"x_max":520.625,"ha":694,"o":"m 1 521 l 1 694 l 174 694 l 174 868 l 347 868 l 347 694 l 520 694 l 520 521 l 347 521 l 347 0 l 174 0 l 174 521 l 1 521 "},"ù":{"x_min":0,"x_max":694.625,"ha":868,"o":"m 0 173 l 0 695 l 173 695 l 173 173 l 521 173 l 521 695 l 694 695 l 694 0 l 174 0 l 174 173 l 0 173 m 174 1042 l 174 1215 l 347 1215 l 347 1041 l 520 1041 l 520 868 l 347 868 l 347 1042 l 174 1042 "},"Ф":{"x_min":1,"x_max":1215.40625,"ha":1389,"o":"m 1 347 l 1 520 l 174 520 l 174 694 l 347 694 l 347 868 l 521 868 l 521 1041 l 694 1041 l 694 868 l 867 868 l 867 694 l 1041 694 l 1041 520 l 1215 520 l 1215 347 l 1041 347 l 1041 174 l 867 174 l 867 0 l 694 0 l 694 -173 l 521 -173 l 521 0 l 347 0 l 347 174 l 174 174 l 174 347 l 1 347 m 181 347 l 354 347 l 354 173 l 521 173 l 521 695 l 354 695 l 354 521 l 181 521 l 181 347 m 694 173 l 861 173 l 861 347 l 1035 347 l 1035 521 l 861 521 l 861 695 l 694 695 l 694 173 "},"ï":{"x_min":-174,"x_max":347.625,"ha":347,"o":"m -174 695 l -174 868 l 0 868 l 0 695 l -174 695 m 0 0 l 0 521 l 173 521 l 173 0 l 0 0 m 174 695 l 174 868 l 347 868 l 347 695 l 174 695 "},"Ò":{"x_min":0,"x_max":868.625,"ha":1042,"o":"m 0 173 l 0 694 l 174 694 l 174 868 l 695 868 l 695 694 l 868 694 l 868 173 l 695 173 l 695 0 l 174 0 l 174 173 l 0 173 m 173 180 l 695 180 l 695 688 l 173 688 l 173 180 m 174 1215 l 174 1388 l 347 1388 l 347 1215 l 520 1215 l 520 1042 l 347 1042 l 347 1215 l 174 1215 "},"⇠":{"x_min":1,"x_max":1215.625,"ha":1389,"o":"m 1 347 l 1 520 l 174 520 l 174 695 l 347 695 l 347 868 l 520 868 l 520 695 l 347 695 l 347 520 l 520 520 l 520 347 l 347 347 l 347 173 l 520 173 l 520 0 l 347 0 l 347 173 l 174 173 l 174 347 l 1 347 m 695 347 l 695 520 l 868 520 l 868 347 l 695 347 m 1042 347 l 1042 520 l 1215 520 l 1215 347 l 1042 347 "},"I":{"x_min":0,"x_max":173.625,"ha":347,"o":"m 0 0 l 0 868 l 173 868 l 173 0 l 0 0 "},"˝":{"x_min":0,"x_max":520.625,"ha":695,"o":"m 0 521 l 0 868 l 173 868 l 173 521 l 0 521 m 347 521 l 347 868 l 520 868 l 520 521 l 347 521 "},"·":{"x_min":0,"x_max":173.625,"ha":347,"o":"m 0 347 l 0 520 l 173 520 l 173 347 l 0 347 "},"Ƌ":{"x_min":0,"x_max":868.5,"ha":1042,"o":"m 0 174 l 0 347 l 174 347 l 174 520 l 695 520 l 695 695 l 174 695 l 174 868 l 868 868 l 868 0 l 174 0 l 174 174 l 0 174 m 180 173 l 695 173 l 695 347 l 180 347 l 180 173 "},"¿":{"x_min":0,"x_max":694.5,"ha":868,"o":"m 0 173 l 0 347 l 173 347 l 173 520 l 520 520 l 520 347 l 173 347 l 173 173 l 694 173 l 694 0 l 173 0 l 173 173 l 0 173 m 347 695 l 347 868 l 520 868 l 520 695 l 347 695 "},"Ђ":{"x_min":0,"x_max":1215.625,"ha":1389,"o":"m 0 695 l 0 868 l 867 868 l 867 695 l 520 695 l 520 520 l 1041 520 l 1041 347 l 1215 347 l 1215 0 l 1041 0 l 1041 -173 l 868 -173 l 868 0 l 1042 0 l 1042 347 l 520 347 l 520 0 l 347 0 l 347 695 l 0 695 "},"ſ":{"x_min":0,"x_max":347.625,"ha":521,"o":"m 0 0 l 0 695 l 174 695 l 174 868 l 347 868 l 347 695 l 173 695 l 173 0 l 0 0 "},"ű":{"x_min":0,"x_max":694.625,"ha":868,"o":"m 0 173 l 0 695 l 173 695 l 173 173 l 521 173 l 521 695 l 694 695 l 694 0 l 174 0 l 174 173 l 0 173 m 0 868 l 0 1041 l 174 1041 l 174 1215 l 347 1215 l 347 1041 l 521 1041 l 521 1215 l 694 1215 l 694 1042 l 521 1042 l 521 868 l 347 868 l 347 1042 l 173 1042 l 173 868 l 0 868 "},"φ":{"x_min":0,"x_max":868.40625,"ha":1042,"o":"m 0 174 l 0 521 l 173 521 l 173 694 l 694 694 l 694 521 l 868 521 l 868 174 l 694 174 l 694 0 l 520 0 l 520 -347 l 347 -347 l 347 0 l 173 0 l 173 174 l 0 174 m 180 173 l 347 173 l 347 521 l 180 521 l 180 173 m 520 173 l 688 173 l 688 521 l 520 521 l 520 173 "},"Ǽ":{"x_min":0,"x_max":1561.625,"ha":1736,"o":"m 0 0 l 0 695 l 173 695 l 173 868 l 1561 868 l 1561 695 l 867 695 l 867 520 l 1387 520 l 1387 347 l 867 347 l 867 173 l 1561 173 l 1561 0 l 694 0 l 694 347 l 173 347 l 173 0 l 0 0 m 180 520 l 694 520 l 694 692 l 180 692 l 180 520 m 694 1042 l 694 1215 l 868 1215 l 868 1388 l 1041 1388 l 1041 1215 l 867 1215 l 867 1042 l 694 1042 "},";":{"x_min":0,"x_max":347.625,"ha":694,"o":"m 0 -173 l 174 -173 l 174 173 l 347 173 l 347 -173 l 173 -173 l 173 -347 l 0 -347 l 0 -173 m 174 521 l 174 694 l 347 694 l 347 521 l 174 521 "},"Ġ":{"x_min":0,"x_max":868.625,"ha":1042,"o":"m 0 173 l 0 695 l 173 695 l 173 868 l 868 868 l 868 695 l 173 695 l 173 173 l 695 173 l 695 347 l 347 347 l 347 520 l 868 520 l 868 0 l 173 0 l 173 173 l 0 173 m 347 1042 l 347 1215 l 520 1215 l 520 1042 l 347 1042 "},"6":{"x_min":0,"x_max":867.625,"ha":1042,"o":"m 0 173 l 0 695 l 173 695 l 173 520 l 694 520 l 867 346 l 867 173 l 694 173 l 694 0 l 173 0 l 173 173 l 0 173 m 173 180 l 694 180 l 694 340 l 173 340 l 173 180 m 173 695 l 173 868 l 694 868 l 694 695 l 173 695 "},"ϊ":{"x_min":-174,"x_max":347.625,"ha":521,"o":"m -174 868 l -174 1041 l 0 1041 l 0 868 l -174 868 m 0 173 l 0 695 l 173 695 l 173 173 l 0 173 m 174 0 l 174 173 l 347 173 l 347 0 l 174 0 m 174 868 l 174 1041 l 347 1041 l 347 868 l 174 868 "},"n":{"x_min":0,"x_max":694.625,"ha":868,"o":"m 0 0 l 0 694 l 521 694 l 521 521 l 694 521 l 694 0 l 521 0 l 521 521 l 173 521 l 173 0 l 0 0 "},"ά":{"x_min":0,"x_max":694.625,"ha":868,"o":"m 0 173 l 0 520 l 174 520 l 174 694 l 521 694 l 521 520 l 694 520 l 694 0 l 174 0 l 174 173 l 0 173 m 173 180 l 521 180 l 521 514 l 173 514 l 173 180 m 174 868 l 174 1215 l 347 1215 l 347 868 l 174 868 "},"ģ":{"x_min":0,"x_max":694.625,"ha":868,"o":"m 0 173 l 0 520 l 174 520 l 174 694 l 520 694 l 520 520 l 694 520 l 694 -173 l 520 -173 l 520 -347 l 174 -347 l 174 -173 l 521 -173 l 521 0 l 174 0 l 174 173 l 0 173 m 173 180 l 521 180 l 521 514 l 173 514 l 173 180 m 174 868 l 174 1041 l 347 1041 l 347 1215 l 520 1215 l 520 1042 l 347 1042 l 347 868 l 174 868 "},"Ǩ":{"x_min":0,"x_max":867.625,"ha":1042,"o":"m 0 0 l 0 868 l 173 868 l 173 521 l 521 521 l 521 694 l 694 694 l 694 868 l 867 868 l 867 695 l 694 695 l 694 521 l 520 521 l 520 347 l 694 347 l 694 173 l 867 173 l 867 0 l 694 0 l 694 174 l 521 174 l 521 347 l 173 347 l 173 0 l 0 0 m 174 1215 l 174 1388 l 347 1388 l 347 1215 l 521 1215 l 521 1388 l 694 1388 l 694 1215 l 520 1215 l 520 1042 l 347 1042 l 347 1215 l 174 1215 "},"ǂ":{"x_min":1,"x_max":520.625,"ha":694,"o":"m 1 174 l 1 347 l 174 347 l 174 521 l 1 521 l 1 694 l 174 694 l 174 868 l 347 868 l 347 694 l 520 694 l 520 521 l 347 521 l 347 347 l 520 347 l 520 174 l 347 174 l 347 0 l 174 0 l 174 174 l 1 174 "},"∂":{"x_min":0,"x_max":520.625,"ha":695,"o":"m 0 174 l 0 347 l 174 347 l 174 520 l 347 520 l 347 695 l 174 695 l 174 868 l 347 868 l 347 695 l 520 695 l 520 520 l 347 520 l 347 347 l 520 347 l 520 174 l 347 174 l 347 0 l 174 0 l 174 174 l 0 174 m 173 180 l 347 180 l 347 340 l 173 340 l 173 180 "},"κ":{"x_min":0,"x_max":694.625,"ha":868,"o":"m 0 0 l 0 694 l 173 694 l 173 347 l 347 347 l 347 520 l 521 520 l 521 694 l 694 694 l 694 521 l 520 521 l 520 347 l 694 347 l 694 0 l 521 0 l 521 347 l 347 347 l 347 174 l 173 174 l 173 0 l 0 0 "},"‡":{"x_min":1,"x_max":520.625,"ha":694,"o":"m 1 174 l 1 347 l 174 347 l 174 521 l 1 521 l 1 694 l 174 694 l 174 1041 l 347 1041 l 347 694 l 520 694 l 520 521 l 347 521 l 347 347 l 520 347 l 520 174 l 347 174 l 347 -173 l 174 -173 l 174 174 l 1 174 "},"ň":{"x_min":0,"x_max":694.625,"ha":868,"o":"m 0 0 l 0 694 l 521 694 l 521 521 l 694 521 l 694 0 l 521 0 l 521 521 l 173 521 l 173 0 l 0 0 m 0 1042 l 0 1215 l 173 1215 l 173 1041 l 521 1041 l 521 1215 l 694 1215 l 694 1042 l 521 1042 l 521 868 l 173 868 l 173 1042 l 0 1042 "},"√":{"x_min":0,"x_max":867.625,"ha":1042,"o":"m 0 174 l 0 347 l 173 347 l 173 173 l 347 173 l 347 347 l 521 347 l 521 520 l 694 520 l 694 694 l 867 694 l 867 521 l 694 521 l 694 347 l 520 347 l 520 174 l 347 174 l 347 0 l 173 0 l 173 174 l 0 174 "},"Ѫ":{"x_min":0,"x_max":1215.625,"ha":1389,"o":"m 0 0 l 0 173 l 173 173 l 173 0 l 0 0 m 174 174 l 174 347 l 521 347 l 521 521 l 347 521 l 347 695 l 174 695 l 174 868 l 1040 868 l 1040 695 l 867 695 l 867 521 l 694 521 l 694 347 l 1040 347 l 1040 173 l 1215 173 l 1215 0 l 1042 0 l 1042 174 l 694 174 l 694 0 l 521 0 l 521 174 l 174 174 m 520 526 l 694 526 l 694 695 l 520 695 l 520 526 "},"ę":{"x_min":0,"x_max":694.625,"ha":868,"o":"m 0 173 l 0 520 l 173 520 l 173 694 l 694 694 l 694 347 l 520 347 l 520 173 l 694 173 l 694 0 l 520 0 l 520 -173 l 694 -173 l 694 -347 l 521 -347 l 521 -173 l 347 -173 l 347 0 l 173 0 l 173 173 l 0 173 m 173 180 l 347 180 l 347 353 l 521 353 l 521 514 l 173 514 l 173 180 "},"ѹ":{"x_min":0,"x_max":1562.625,"ha":1736,"o":"m 0 174 l 0 521 l 174 521 l 174 694 l 521 694 l 521 521 l 868 521 l 868 347 l 1041 347 l 1041 173 l 1215 173 l 1215 347 l 1389 347 l 1389 521 l 1562 521 l 1562 347 l 1388 347 l 1388 174 l 1215 174 l 1215 0 l 1041 0 l 1041 -173 l 868 -173 l 868 0 l 1042 0 l 1042 174 l 868 174 l 868 347 l 694 347 l 694 174 l 521 174 l 521 0 l 174 0 l 174 174 l 0 174 m 173 180 l 521 180 l 521 514 l 173 514 l 173 180 "},"į":{"x_min":0,"x_max":347.625,"ha":521,"o":"m 0 0 l 174 0 l 174 521 l 347 521 l 347 0 l 173 0 l 173 -173 l 347 -173 l 347 -347 l 174 -347 l 174 -173 l 0 -173 l 0 0 m 174 695 l 174 868 l 347 868 l 347 695 l 174 695 "},"Τ":{"x_min":0,"x_max":867.625,"ha":1042,"o":"m 0 695 l 0 868 l 867 868 l 867 695 l 520 695 l 520 0 l 347 0 l 347 695 l 0 695 "},"≈":{"x_min":0,"x_max":867.625,"ha":1042,"o":"m 0 174 l 0 347 l 174 347 l 174 520 l 521 520 l 521 347 l 694 347 l 694 520 l 867 520 l 867 347 l 694 347 l 694 174 l 521 174 l 521 347 l 173 347 l 173 174 l 0 174 m 0 696 l 0 869 l 174 869 l 174 1041 l 521 1041 l 521 869 l 694 869 l 694 1041 l 867 1041 l 867 868 l 694 868 l 694 696 l 521 696 l 521 868 l 173 868 l 173 696 l 0 696 "},"ΐ":{"x_min":0,"x_max":520.625,"ha":695,"o":"m 0 521 l 0 694 l 174 694 l 174 868 l 347 868 l 347 1041 l 520 1041 l 520 868 l 347 868 l 347 694 l 520 694 l 520 521 l 347 521 l 347 173 l 520 173 l 520 0 l 347 0 l 347 173 l 174 173 l 174 521 l 0 521 m 173 527 l 347 527 l 347 688 l 173 688 l 173 527 "},"ĸ":{"x_min":0,"x_max":694.625,"ha":868,"o":"m 0 0 l 0 694 l 173 694 l 173 347 l 347 347 l 347 520 l 521 520 l 521 694 l 694 694 l 694 521 l 520 521 l 520 347 l 694 347 l 694 0 l 521 0 l 521 347 l 347 347 l 347 174 l 173 174 l 173 0 l 0 0 "},"g":{"x_min":0,"x_max":694.625,"ha":868,"o":"m 0 173 l 0 520 l 174 520 l 174 694 l 521 694 l 521 520 l 694 520 l 694 -173 l 521 -173 l 521 -347 l 174 -347 l 174 -173 l 521 -173 l 521 0 l 174 0 l 174 173 l 0 173 m 173 180 l 521 180 l 521 514 l 173 514 l 173 180 "},"ǿ":{"x_min":0,"x_max":694.625,"ha":868,"o":"m 0 174 l 0 521 l 174 521 l 174 694 l 520 694 l 520 521 l 694 521 l 694 174 l 520 174 l 520 0 l 174 0 l 174 174 l 0 174 m 173 347 l 347 347 l 347 180 l 521 180 l 521 347 l 347 347 l 347 514 l 173 514 l 173 347 m 174 868 l 174 1041 l 347 1041 l 347 1215 l 520 1215 l 520 1042 l 347 1042 l 347 868 l 174 868 "},"²":{"x_min":1,"x_max":520.625,"ha":695,"o":"m 1 174 l 1 347 l 174 347 l 174 521 l 347 521 l 347 695 l 1 695 l 1 868 l 347 868 l 347 695 l 520 695 l 520 521 l 347 521 l 347 347 l 520 347 l 520 174 l 1 174 "},"Ʋ":{"x_min":0,"x_max":867.625,"ha":1042,"o":"m 0 173 l 0 868 l 173 868 l 173 173 l 694 173 l 694 695 l 521 695 l 521 868 l 694 868 l 694 695 l 867 695 l 867 173 l 694 173 l 694 0 l 173 0 l 173 173 l 0 173 "},"Ǆ":{"x_min":0,"x_max":1909.625,"ha":2083,"o":"m 0 0 l 0 868 l 694 868 l 694 695 l 868 695 l 868 173 l 694 173 l 694 0 l 0 0 m 173 173 l 688 173 l 688 695 l 173 695 l 173 173 m 1042 0 l 1042 173 l 1215 173 l 1215 347 l 1389 347 l 1389 520 l 1563 520 l 1563 695 l 1042 695 l 1042 868 l 1909 868 l 1909 695 l 1736 695 l 1736 520 l 1562 520 l 1562 347 l 1388 347 l 1388 173 l 1909 173 l 1909 0 l 1042 0 m 1215 1215 l 1215 1388 l 1388 1388 l 1388 1215 l 1563 1215 l 1563 1388 l 1736 1388 l 1736 1215 l 1562 1215 l 1562 1042 l 1389 1042 l 1389 1215 l 1215 1215 "},"Ã":{"x_min":0,"x_max":867.625,"ha":1042,"o":"m 0 0 l 0 694 l 174 694 l 174 868 l 694 868 l 694 694 l 867 694 l 867 0 l 694 0 l 694 347 l 173 347 l 173 0 l 0 0 m 173 520 l 694 520 l 694 688 l 173 688 l 173 520 m 174 1043 l 174 1216 l 347 1216 l 347 1390 l 521 1390 l 521 1216 l 694 1216 l 694 1390 l 867 1390 l 867 1217 l 694 1217 l 694 1043 l 521 1043 l 521 1217 l 347 1217 l 347 1043 l 174 1043 "},"Ј":{"x_min":0,"x_max":694.625,"ha":868,"o":"m 0 174 l 0 347 l 173 347 l 173 173 l 521 173 l 521 868 l 694 868 l 694 174 l 521 174 l 521 0 l 173 0 l 173 174 l 0 174 "},"©":{"x_min":0,"x_max":867.625,"ha":1042,"o":"m 0 173 l 0 694 l 173 694 l 173 868 l 694 868 l 694 694 l 867 694 l 867 173 l 694 173 l 694 0 l 173 0 l 173 173 l 0 173 m 173 180 l 694 180 l 694 347 l 347 347 l 347 520 l 694 520 l 694 688 l 173 688 l 173 180 "},"≥":{"x_min":0,"x_max":694.25,"ha":868,"o":"m 0 0 l 0 173 l 694 173 l 694 0 l 0 0 m 0 347 l 0 520 l 347 520 l 347 695 l 0 695 l 0 868 l 347 868 l 347 695 l 694 695 l 694 520 l 347 520 l 347 347 l 0 347 "},"Ă":{"x_min":0,"x_max":867.625,"ha":1042,"o":"m 0 0 l 0 694 l 174 694 l 174 868 l 694 868 l 694 694 l 867 694 l 867 0 l 694 0 l 694 347 l 173 347 l 173 0 l 0 0 m 173 520 l 694 520 l 694 688 l 173 688 l 173 520 m 174 1215 l 174 1388 l 347 1388 l 347 1215 l 521 1215 l 521 1388 l 694 1388 l 694 1215 l 521 1215 l 521 1042 l 347 1042 l 347 1215 l 174 1215 "},"ǖ":{"x_min":0,"x_max":694.625,"ha":868,"o":"m 0 173 l 0 695 l 173 695 l 173 173 l 521 173 l 521 695 l 694 695 l 694 0 l 173 0 l 173 173 l 0 173 m 0 868 l 0 1215 l 694 1215 l 694 868 l 521 868 l 521 1042 l 173 1042 l 173 868 l 0 868 "},"ǹ":{"x_min":0,"x_max":694.625,"ha":868,"o":"m 0 0 l 0 694 l 520 694 l 520 521 l 694 521 l 694 0 l 521 0 l 521 521 l 173 521 l 173 0 l 0 0 m 174 1042 l 174 1215 l 347 1215 l 347 1041 l 520 1041 l 520 868 l 347 868 l 347 1042 l 174 1042 "},"ÿ":{"x_min":0,"x_max":694.625,"ha":868,"o":"m 0 173 l 0 695 l 173 695 l 173 173 l 521 173 l 521 695 l 694 695 l 694 -173 l 521 -173 l 521 -347 l 174 -347 l 174 -173 l 521 -173 l 521 0 l 174 0 l 174 173 l 0 173 m 0 869 l 0 1042 l 173 1042 l 173 869 l 0 869 m 521 867 l 521 1041 l 694 1041 l 694 867 l 521 867 "},"Ł":{"x_min":1,"x_max":867.625,"ha":1042,"o":"m 1 174 l 1 347 l 174 347 l 174 868 l 347 868 l 347 694 l 520 694 l 520 521 l 347 521 l 347 173 l 867 173 l 867 0 l 174 0 l 174 174 l 1 174 "},"ƛ":{"x_min":0,"x_max":694.625,"ha":868,"o":"m 0 -173 l 0 174 l 173 174 l 173 347 l 347 347 l 347 521 l 0 521 l 0 694 l 347 694 l 347 521 l 521 521 l 521 694 l 694 694 l 694 521 l 521 521 l 521 347 l 694 347 l 694 -173 l 521 -173 l 521 174 l 173 174 l 173 -173 l 0 -173 "}," ":{"x_min":0,"x_max":0,"ha":195},"∫":{"x_min":-174,"x_max":347.625,"ha":521,"o":"m -174 0 l 0 0 l 0 868 l 174 868 l 174 1041 l 347 1041 l 347 868 l 173 868 l 173 0 l 0 0 l 0 -173 l -174 -173 l -174 0 "},"\\":{"x_min":0,"x_max":867.625,"ha":1042,"o":"m 0 695 l 0 868 l 173 868 l 173 694 l 347 694 l 347 520 l 520 520 l 520 347 l 694 347 l 694 173 l 867 173 l 867 0 l 694 0 l 694 174 l 521 174 l 521 347 l 347 347 l 347 521 l 174 521 l 174 695 l 0 695 "},"Ì":{"x_min":-174,"x_max":173.625,"ha":347,"o":"m -174 1215 l -174 1388 l 0 1388 l 0 1215 l 173 1215 l 173 1042 l 0 1042 l 0 1215 l -174 1215 m 0 0 l 0 868 l 173 868 l 173 0 l 0 0 "},"ƍ":{"x_min":0,"x_max":694.625,"ha":868,"o":"m 0 174 l 0 521 l 174 521 l 174 694 l 521 694 l 521 521 l 694 521 l 694 174 l 521 174 l 521 0 l 694 0 l 694 -173 l 521 -173 l 521 -347 l 174 -347 l 174 -173 l 521 -173 l 521 0 l 174 0 l 174 174 l 0 174 m 173 180 l 521 180 l 521 514 l 173 514 l 173 180 "},"ъ":{"x_min":1,"x_max":868.40625,"ha":1042,"o":"m 1 521 l 1 694 l 347 694 l 347 520 l 694 520 l 694 347 l 868 347 l 868 174 l 694 174 l 694 0 l 174 0 l 174 521 l 1 521 m 347 173 l 688 173 l 688 347 l 347 347 l 347 173 "},"ς":{"x_min":0,"x_max":694.5,"ha":868,"o":"m 0 347 l 0 520 l 173 520 l 173 694 l 694 694 l 694 521 l 347 521 l 347 347 l 694 347 l 694 174 l 520 174 l 520 0 l 173 0 l 173 173 l 347 173 l 347 347 l 0 347 "},"↕":{"x_min":0,"x_max":868.625,"ha":1042,"o":"m 0 0 l 0 173 l 173 173 l 173 0 l 347 0 l 347 868 l 173 868 l 173 695 l 0 695 l 0 868 l 173 868 l 173 1041 l 347 1041 l 347 1214 l 520 1214 l 520 1041 l 695 1041 l 695 868 l 868 868 l 868 695 l 695 695 l 695 868 l 520 868 l 520 0 l 695 0 l 695 173 l 868 173 l 868 0 l 695 0 l 695 -173 l 520 -173 l 520 -347 l 347 -347 l 347 -173 l 173 -173 l 173 0 l 0 0 "},"Ē":{"x_min":0,"x_max":867.625,"ha":1042,"o":"m 0 0 l 0 868 l 867 868 l 867 695 l 173 695 l 173 520 l 693 520 l 693 347 l 173 347 l 173 173 l 867 173 l 867 0 l 0 0 m 173 1042 l 173 1215 l 693 1215 l 693 1042 l 173 1042 "},"!":{"x_min":174,"x_max":347.625,"ha":521,"o":"m 174 0 l 174 173 l 347 173 l 347 0 l 174 0 m 174 347 l 174 868 l 347 868 l 347 347 l 174 347 "},"ç":{"x_min":0,"x_max":693.625,"ha":868,"o":"m 0 173 l 0 521 l 174 521 l 174 694 l 693 694 l 693 521 l 173 521 l 173 173 l 693 173 l 693 0 l 520 0 l 520 -173 l 347 -173 l 347 -347 l 174 -347 l 174 -173 l 347 -173 l 347 0 l 174 0 l 174 173 l 0 173 "},"ǯ":{"x_min":0,"x_max":694.625,"ha":868,"o":"m 0 0 l 521 0 l 521 174 l 174 174 l 174 347 l 348 347 l 348 521 l 0 521 l 0 694 l 694 694 l 694 521 l 521 521 l 521 174 l 694 174 l 694 0 l 521 0 l 521 -173 l 0 -173 l 0 0 m 0 1042 l 0 1215 l 173 1215 l 173 1041 l 521 1041 l 521 1215 l 694 1215 l 694 1042 l 521 1042 l 521 868 l 174 868 l 174 1042 l 0 1042 "},"ͺ":{"x_min":0,"x_max":347.625,"ha":521,"o":"m 0 0 l 173 0 l 173 -173 l 0 -173 l 0 0 m 174 -173 l 347 -173 l 347 -347 l 174 -347 l 174 -173 "},"Ǡ":{"x_min":0,"x_max":868.625,"ha":1042,"o":"m 0 0 l 0 694 l 173 694 l 173 868 l 695 868 l 695 694 l 868 694 l 868 0 l 695 0 l 695 347 l 173 347 l 173 0 l 0 0 m 173 520 l 695 520 l 695 688 l 173 688 l 173 520 m 173 1389 l 173 1562 l 695 1562 l 695 1389 l 173 1389 m 347 1042 l 347 1215 l 520 1215 l 520 1042 l 347 1042 "},"Й":{"x_min":0,"x_max":867.625,"ha":1042,"o":"m 0 0 l 0 868 l 173 868 l 173 347 l 347 347 l 347 520 l 521 520 l 521 694 l 694 694 l 694 868 l 867 868 l 867 0 l 694 0 l 694 521 l 520 521 l 520 347 l 347 347 l 347 174 l 173 174 l 173 0 l 0 0 m 174 1042 l 174 1215 l 347 1215 l 347 1041 l 521 1041 l 521 1215 l 694 1215 l 694 1042 l 520 1042 l 520 868 l 347 868 l 347 1042 l 174 1042 "},"Б":{"x_min":0,"x_max":868.40625,"ha":1042,"o":"m 0 0 l 0 868 l 694 868 l 694 695 l 173 695 l 173 520 l 694 520 l 694 347 l 868 347 l 868 174 l 694 174 l 694 0 l 0 0 m 173 173 l 688 173 l 688 347 l 173 347 l 173 173 "},"ѧ":{"x_min":0,"x_max":1215.625,"ha":1389,"o":"m 0 0 l 0 173 l 174 173 l 174 347 l 347 347 l 347 520 l 521 520 l 521 694 l 694 694 l 694 520 l 867 520 l 867 347 l 1041 347 l 1041 173 l 1215 173 l 1215 0 l 1042 0 l 1042 174 l 868 174 l 868 347 l 694 347 l 694 0 l 521 0 l 521 347 l 347 347 l 347 174 l 173 174 l 173 0 l 0 0 m 520 354 l 694 354 l 694 514 l 520 514 l 520 354 "},"đ":{"x_min":0,"x_max":694.625,"ha":868,"o":"m 0 173 l 0 521 l 174 521 l 174 694 l 347 694 l 347 868 l 174 868 l 174 1041 l 347 1041 l 347 868 l 521 868 l 521 1041 l 694 1041 l 694 868 l 521 868 l 521 694 l 694 694 l 694 0 l 174 0 l 174 173 l 0 173 m 180 173 l 521 173 l 521 521 l 180 521 l 180 173 "},"ċ":{"x_min":0,"x_max":694.5,"ha":1042,"o":"m 0 173 l 0 521 l 173 521 l 173 694 l 694 694 l 694 521 l 173 521 l 173 173 l 694 173 l 694 0 l 173 0 l 173 173 l 0 173 m 347 868 l 347 1041 l 520 1041 l 520 868 l 347 868 "},"Ā":{"x_min":0,"x_max":867.625,"ha":1042,"o":"m 0 0 l 0 694 l 173 694 l 173 868 l 694 868 l 694 694 l 867 694 l 867 0 l 694 0 l 694 347 l 173 347 l 173 0 l 0 0 m 173 520 l 694 520 l 694 688 l 173 688 l 173 520 m 173 1042 l 173 1215 l 694 1215 l 694 1042 l 173 1042 "},"ƭ":{"x_min":0,"x_max":347.625,"ha":521,"o":"m 0 173 l 0 695 l 174 695 l 174 868 l 347 868 l 347 695 l 173 695 l 173 520 l 347 520 l 347 347 l 173 347 l 173 173 l 347 173 l 347 0 l 174 0 l 174 173 l 0 173 "},"ø":{"x_min":0,"x_max":694.625,"ha":868,"o":"m 0 174 l 0 521 l 174 521 l 174 694 l 521 694 l 521 521 l 694 521 l 694 174 l 521 174 l 521 0 l 174 0 l 174 174 l 0 174 m 173 347 l 347 347 l 347 180 l 521 180 l 521 347 l 347 347 l 347 514 l 173 514 l 173 347 "},"â":{"x_min":0,"x_max":694.625,"ha":868,"o":"m 0 173 l 0 520 l 174 520 l 174 694 l 521 694 l 521 520 l 694 520 l 694 0 l 174 0 l 174 173 l 0 173 m 0 868 l 0 1041 l 174 1041 l 174 1215 l 521 1215 l 521 1041 l 694 1041 l 694 868 l 521 868 l 521 1042 l 173 1042 l 173 868 l 0 868 m 173 180 l 521 180 l 521 514 l 173 514 l 173 180 "},"}":{"x_min":0,"x_max":520.625,"ha":695,"o":"m 0 0 l 174 0 l 174 347 l 347 347 l 347 520 l 174 520 l 174 868 l 0 868 l 0 1041 l 173 1041 l 173 868 l 347 868 l 347 520 l 520 520 l 520 347 l 347 347 l 347 0 l 173 0 l 173 -173 l 0 -173 l 0 0 "},"Δ":{"x_min":1,"x_max":868.40625,"ha":1042,"o":"m 1 0 l 1 347 l 174 347 l 174 694 l 347 694 l 347 867 l 520 867 l 520 694 l 694 694 l 694 347 l 868 347 l 868 0 l 1 0 m 181 173 l 688 173 l 688 347 l 521 347 l 521 687 l 347 687 l 347 347 l 181 347 l 181 173 "},"‰":{"x_min":0,"x_max":867.625,"ha":1042,"o":"m 0 0 l 0 173 l 174 173 l 174 347 l 347 347 l 347 520 l 521 520 l 521 694 l 694 694 l 694 868 l 867 868 l 867 695 l 694 695 l 694 521 l 520 521 l 520 347 l 347 347 l 347 173 l 520 173 l 520 0 l 347 0 l 347 174 l 173 174 l 173 0 l 0 0 m 0 695 l 0 868 l 173 868 l 173 695 l 0 695 m 694 0 l 694 173 l 867 173 l 867 0 l 694 0 "},"Ä":{"x_min":0,"x_max":867.625,"ha":1042,"o":"m 0 0 l 0 694 l 174 694 l 174 868 l 694 868 l 694 694 l 867 694 l 867 0 l 694 0 l 694 347 l 173 347 l 173 0 l 0 0 m 173 520 l 694 520 l 694 688 l 173 688 l 173 520 m 174 1042 l 174 1215 l 347 1215 l 347 1042 l 174 1042 m 521 1042 l 521 1215 l 694 1215 l 694 1042 l 521 1042 "},"ř":{"x_min":0,"x_max":520.625,"ha":695,"o":"m 0 0 l 0 694 l 173 694 l 173 520 l 347 520 l 347 694 l 520 694 l 520 521 l 347 521 l 347 347 l 173 347 l 173 0 l 0 0 m 0 1042 l 0 1215 l 173 1215 l 173 1041 l 347 1041 l 347 1215 l 520 1215 l 520 1042 l 347 1042 l 347 868 l 174 868 l 174 1042 l 0 1042 "},"—":{"x_min":0,"x_max":694.5,"ha":868,"o":"m 0 347 l 0 520 l 694 520 l 694 347 l 0 347 "},"N":{"x_min":0,"x_max":868.625,"ha":1042,"o":"m 0 0 l 0 868 l 173 868 l 173 694 l 347 694 l 347 520 l 520 520 l 520 347 l 695 347 l 695 868 l 868 868 l 868 0 l 695 0 l 695 174 l 520 174 l 520 347 l 347 347 l 347 521 l 173 521 l 173 0 l 0 0 "},"⁄":{"x_min":0,"x_max":867.625,"ha":1042,"o":"m 0 0 l 0 173 l 174 173 l 174 347 l 347 347 l 347 520 l 521 520 l 521 694 l 694 694 l 694 868 l 867 868 l 867 695 l 694 695 l 694 521 l 520 521 l 520 347 l 347 347 l 347 174 l 173 174 l 173 0 l 0 0 "},"2":{"x_min":0,"x_max":867.625,"ha":1042,"o":"m 0 0 l 0 347 l 173 347 l 173 520 l 694 520 l 694 695 l 0 695 l 0 868 l 694 868 l 694 695 l 867 695 l 867 347 l 173 347 l 173 173 l 867 173 l 867 0 l 0 0 "},"М":{"x_min":0,"x_max":868.625,"ha":1042,"o":"m 0 0 l 0 868 l 173 868 l 173 694 l 347 694 l 347 520 l 520 520 l 520 694 l 695 694 l 695 868 l 868 868 l 868 0 l 695 0 l 695 521 l 520 521 l 520 347 l 347 347 l 347 521 l 173 521 l 173 0 l 0 0 "},"":{"x_min":0,"x_max":694.625,"ha":868,"o":"m 0 0 l 0 695 l 173 695 l 173 868 l 694 868 l 694 0 l 521 0 l 521 347 l 173 347 l 173 0 l 0 0 m 180 520 l 521 520 l 521 695 l 180 695 l 180 520 "},"Ó":{"x_min":0,"x_max":867.625,"ha":1042,"o":"m 0 173 l 0 694 l 173 694 l 173 868 l 694 868 l 694 694 l 867 694 l 867 173 l 694 173 l 694 0 l 173 0 l 173 173 l 0 173 m 173 180 l 694 180 l 694 688 l 173 688 l 173 180 m 347 1042 l 347 1215 l 521 1215 l 521 1388 l 694 1388 l 694 1215 l 520 1215 l 520 1042 l 347 1042 "},"˜":{"x_min":0,"x_max":694.625,"ha":868,"o":"m 0 347 l 0 520 l 173 520 l 173 694 l 347 694 l 347 520 l 521 520 l 521 694 l 694 694 l 694 521 l 521 521 l 521 347 l 347 347 l 347 521 l 173 521 l 173 347 l 0 347 "},"ǃ":{"x_min":174,"x_max":347.625,"ha":521,"o":"m 174 0 l 174 173 l 347 173 l 347 0 l 174 0 m 174 347 l 174 868 l 347 868 l 347 347 l 174 347 "}," ":{"x_min":0,"x_max":0,"ha":781},"ˇ":{"x_min":0,"x_max":520.625,"ha":695,"o":"m 0 695 l 0 868 l 173 868 l 173 694 l 347 694 l 347 868 l 520 868 l 520 695 l 347 695 l 347 521 l 173 521 l 173 695 l 0 695 "},"Ў":{"x_min":0,"x_max":867.625,"ha":1042,"o":"m 0 0 l 0 173 l 347 173 l 347 347 l 174 347 l 174 521 l 0 521 l 0 868 l 173 868 l 173 520 l 347 520 l 347 347 l 521 347 l 521 520 l 694 520 l 694 868 l 867 868 l 867 521 l 694 521 l 694 347 l 520 347 l 520 174 l 347 174 l 347 0 l 0 0 m 174 1042 l 174 1215 l 347 1215 l 347 1041 l 521 1041 l 521 1215 l 694 1215 l 694 1042 l 520 1042 l 520 868 l 347 868 l 347 1042 l 174 1042 "},"ų":{"x_min":0,"x_max":694.625,"ha":868,"o":"m 0 173 l 0 695 l 173 695 l 173 173 l 521 173 l 521 695 l 694 695 l 694 0 l 520 0 l 520 -173 l 694 -173 l 694 -347 l 521 -347 l 521 -173 l 347 -173 l 347 0 l 173 0 l 173 173 l 0 173 "},"Ŭ":{"x_min":0,"x_max":867.625,"ha":1042,"o":"m 0 173 l 0 868 l 173 868 l 173 173 l 694 173 l 694 868 l 867 868 l 867 173 l 694 173 l 694 0 l 174 0 l 174 173 l 0 173 m 174 1215 l 174 1388 l 347 1388 l 347 1215 l 521 1215 l 521 1388 l 694 1388 l 694 1215 l 521 1215 l 521 1042 l 347 1042 l 347 1215 l 174 1215 "},"ĝ":{"x_min":0,"x_max":694.625,"ha":868,"o":"m 0 173 l 0 520 l 174 520 l 174 694 l 521 694 l 521 520 l 694 520 l 694 -173 l 521 -173 l 521 -347 l 174 -347 l 174 -173 l 521 -173 l 521 0 l 174 0 l 174 173 l 0 173 m 0 868 l 0 1041 l 174 1041 l 174 1215 l 521 1215 l 521 1041 l 694 1041 l 694 868 l 521 868 l 521 1042 l 173 1042 l 173 868 l 0 868 m 173 180 l 521 180 l 521 514 l 173 514 l 173 180 "},"Ω":{"x_min":0,"x_max":867.625,"ha":1042,"o":"m 0 0 l 0 173 l 174 173 l 174 347 l 0 347 l 0 694 l 173 694 l 173 347 l 347 347 l 347 0 l 0 0 m 174 695 l 174 868 l 694 868 l 694 695 l 174 695 m 521 0 l 521 347 l 694 347 l 694 694 l 867 694 l 867 347 l 694 347 l 694 173 l 867 173 l 867 0 l 521 0 "},"s":{"x_min":0,"x_max":694.5,"ha":868,"o":"m 0 0 l 0 173 l 347 173 l 347 347 l 0 347 l 0 520 l 173 520 l 173 694 l 694 694 l 694 521 l 347 521 l 347 347 l 694 347 l 694 174 l 520 174 l 520 0 l 0 0 "},"ǚ":{"x_min":0,"x_max":694.625,"ha":868,"o":"m 0 173 l 0 695 l 173 695 l 173 173 l 521 173 l 521 695 l 694 695 l 694 0 l 173 0 l 173 173 l 0 173 m 0 868 l 0 1041 l 173 1041 l 173 1215 l 0 1215 l 0 1388 l 173 1388 l 173 1215 l 521 1215 l 521 1388 l 694 1388 l 694 1215 l 521 1215 l 521 1041 l 694 1041 l 694 868 l 521 868 l 521 1041 l 173 1041 l 173 868 l 0 868 "},"?":{"x_min":0.125,"x_max":694.625,"ha":868,"o":"m 0 695 l 0 868 l 521 868 l 521 695 l 694 695 l 694 520 l 521 520 l 521 347 l 174 347 l 174 520 l 521 520 l 521 695 l 0 695 m 174 0 l 174 173 l 347 173 l 347 0 l 174 0 "},"Ņ":{"x_min":0,"x_max":868.625,"ha":1042,"o":"m 0 0 l 0 868 l 173 868 l 173 694 l 347 694 l 347 520 l 520 520 l 520 347 l 695 347 l 695 868 l 868 868 l 868 0 l 695 0 l 695 174 l 520 174 l 520 347 l 347 347 l 347 521 l 173 521 l 173 0 l 0 0 m 174 -173 l 347 -173 l 347 0 l 520 0 l 520 -173 l 347 -173 l 347 -347 l 174 -347 l 174 -173 "},"Ī":{"x_min":-173.625,"x_max":347.25,"ha":347,"o":"m -173 1042 l -173 1215 l 347 1215 l 347 1042 l -173 1042 m 0 0 l 0 868 l 173 868 l 173 0 l 0 0 "},"Μ":{"x_min":0,"x_max":868.625,"ha":1042,"o":"m 0 0 l 0 868 l 173 868 l 173 694 l 347 694 l 347 520 l 520 520 l 520 694 l 695 694 l 695 868 l 868 868 l 868 0 l 695 0 l 695 521 l 520 521 l 520 347 l 347 347 l 347 521 l 173 521 l 173 0 l 0 0 "},"•":{"x_min":0,"x_max":173.625,"ha":347,"o":"m 0 347 l 0 520 l 173 520 l 173 347 l 0 347 "},"н":{"x_min":0,"x_max":694.625,"ha":868,"o":"m 0 0 l 0 695 l 173 695 l 173 520 l 521 520 l 521 695 l 694 695 l 694 0 l 521 0 l 521 347 l 173 347 l 173 0 l 0 0 "},"(":{"x_min":0,"x_max":347.625,"ha":521,"o":"m 0 0 l 0 868 l 174 868 l 174 1041 l 347 1041 l 347 868 l 173 868 l 173 0 l 347 0 l 347 -173 l 174 -173 l 174 0 l 0 0 "},"◊":{"x_min":0,"x_max":520.625,"ha":695,"o":"m 0 347 l 0 520 l 174 520 l 174 694 l 347 694 l 347 520 l 520 520 l 520 347 l 347 347 l 347 173 l 174 173 l 174 347 l 0 347 m 173 354 l 347 354 l 347 514 l 173 514 l 173 354 "},"α":{"x_min":0,"x_max":694.625,"ha":868,"o":"m 0 173 l 0 520 l 173 520 l 173 694 l 521 694 l 521 520 l 694 520 l 694 0 l 173 0 l 173 173 l 0 173 m 173 180 l 521 180 l 521 514 l 173 514 l 173 180 "},"м":{"x_min":0,"x_max":868.625,"ha":1042,"o":"m 0 0 l 0 695 l 173 695 l 173 520 l 347 520 l 347 347 l 520 347 l 520 520 l 695 520 l 695 695 l 868 695 l 868 0 l 695 0 l 695 347 l 520 347 l 520 174 l 347 174 l 347 347 l 173 347 l 173 0 l 0 0 "},"Ħ":{"x_min":1,"x_max":1214.625,"ha":1389,"o":"m 1 695 l 1 868 l 1214 868 l 1214 695 l 1041 695 l 1041 0 l 868 0 l 868 347 l 347 347 l 347 0 l 174 0 l 174 695 l 1 695 m 347 520 l 868 520 l 868 695 l 347 695 l 347 520 "},"з":{"x_min":0,"x_max":694.625,"ha":868,"o":"m 0 174 l 0 347 l 173 347 l 173 173 l 521 173 l 521 347 l 348 347 l 348 521 l 521 521 l 521 695 l 173 695 l 173 521 l 0 521 l 0 694 l 174 694 l 174 868 l 521 868 l 521 694 l 694 694 l 694 521 l 521 521 l 521 347 l 694 347 l 694 174 l 521 174 l 521 0 l 174 0 l 174 174 l 0 174 "},"і":{"x_min":0,"x_max":173.625,"ha":347,"o":"m 0 0 l 0 521 l 173 521 l 173 0 l 0 0 m 0 695 l 0 868 l 173 868 l 173 695 l 0 695 "},"Û":{"x_min":0,"x_max":867.625,"ha":1042,"o":"m 0 173 l 0 868 l 173 868 l 173 173 l 694 173 l 694 868 l 867 868 l 867 173 l 694 173 l 694 0 l 174 0 l 174 173 l 0 173 m 174 1042 l 174 1215 l 347 1215 l 347 1388 l 521 1388 l 521 1215 l 694 1215 l 694 1042 l 521 1042 l 521 1215 l 347 1215 l 347 1042 l 174 1042 "},"V":{"x_min":0,"x_max":867.625,"ha":1042,"o":"m 0 347 l 0 868 l 173 868 l 173 347 l 347 347 l 347 173 l 521 173 l 521 347 l 694 347 l 694 868 l 867 868 l 867 347 l 694 347 l 694 174 l 521 174 l 521 0 l 347 0 l 347 174 l 174 174 l 174 347 l 0 347 "},"Ŗ":{"x_min":0,"x_max":867.625,"ha":1042,"o":"m 0 0 l 0 868 l 694 868 l 694 694 l 867 694 l 867 521 l 694 521 l 694 173 l 867 173 l 867 0 l 694 0 l 694 173 l 521 173 l 521 347 l 173 347 l 173 0 l 0 0 m 174 -173 l 347 -173 l 347 0 l 520 0 l 520 -173 l 347 -173 l 347 -347 l 174 -347 l 174 -173 m 173 520 l 687 520 l 687 695 l 173 695 l 173 520 "},"@":{"x_min":0,"x_max":867.625,"ha":1042,"o":"m 0 173 l 0 695 l 173 695 l 173 868 l 694 868 l 694 695 l 867 695 l 867 347 l 347 347 l 347 520 l 694 520 l 694 695 l 173 695 l 173 173 l 694 173 l 694 0 l 173 0 l 173 173 l 0 173 "},"i":{"x_min":0,"x_max":173.625,"ha":347,"o":"m 0 0 l 0 521 l 173 521 l 173 0 l 0 0 m 0 695 l 0 868 l 173 868 l 173 695 l 0 695 "},"ќ":{"x_min":0,"x_max":694.625,"ha":868,"o":"m 0 0 l 0 868 l 173 868 l 173 347 l 347 347 l 347 520 l 521 520 l 521 694 l 694 694 l 694 521 l 520 521 l 520 347 l 694 347 l 694 0 l 521 0 l 521 347 l 347 347 l 347 174 l 173 174 l 173 0 l 0 0 m 347 868 l 347 1041 l 521 1041 l 521 1215 l 694 1215 l 694 1042 l 520 1042 l 520 868 l 347 868 "},"≤":{"x_min":0,"x_max":694.25,"ha":868,"o":"m 0 0 l 0 173 l 694 173 l 694 0 l 0 0 m 0 520 l 0 695 l 347 695 l 347 868 l 694 868 l 694 695 l 347 695 l 347 520 l 694 520 l 694 347 l 347 347 l 347 520 l 0 520 "},"ё":{"x_min":0,"x_max":694.625,"ha":868,"o":"m 0 173 l 0 520 l 173 520 l 173 694 l 694 694 l 694 347 l 520 347 l 520 173 l 694 173 l 694 0 l 173 0 l 173 173 l 0 173 m 0 869 l 0 1042 l 173 1042 l 173 869 l 0 869 m 173 180 l 347 180 l 347 353 l 521 353 l 521 514 l 173 514 l 173 180 m 521 867 l 521 1041 l 694 1041 l 694 867 l 521 867 "},"υ":{"x_min":0,"x_max":694.625,"ha":868,"o":"m 0 0 l 0 694 l 173 694 l 173 173 l 521 173 l 521 521 l 347 521 l 347 694 l 520 694 l 520 521 l 694 521 l 694 173 l 520 173 l 520 0 l 0 0 "},"ĕ":{"x_min":0,"x_max":694.625,"ha":868,"o":"m 0 173 l 0 520 l 173 520 l 173 694 l 694 694 l 694 347 l 520 347 l 520 173 l 694 173 l 694 0 l 173 0 l 173 173 l 0 173 m 0 1042 l 0 1215 l 173 1215 l 173 1041 l 521 1041 l 521 1215 l 694 1215 l 694 1042 l 520 1042 l 520 868 l 173 868 l 173 1042 l 0 1042 m 173 180 l 347 180 l 347 353 l 521 353 l 521 514 l 173 514 l 173 180 "},"ż":{"x_min":1,"x_max":693.625,"ha":868,"o":"m 1 0 l 1 173 l 174 173 l 174 347 l 347 347 l 347 521 l 1 521 l 1 694 l 693 694 l 693 521 l 520 521 l 520 347 l 347 347 l 347 173 l 693 173 l 693 0 l 1 0 m 347 868 l 347 1041 l 520 1041 l 520 868 l 347 868 "},"Ƙ":{"x_min":0,"x_max":867.625,"ha":1042,"o":"m 0 0 l 0 868 l 173 868 l 173 520 l 347 520 l 347 694 l 521 694 l 521 868 l 694 868 l 694 694 l 867 694 l 867 521 l 694 521 l 694 695 l 520 695 l 520 347 l 694 347 l 694 173 l 867 173 l 867 0 l 694 0 l 694 174 l 521 174 l 521 347 l 173 347 l 173 0 l 0 0 "},"Э":{"x_min":0,"x_max":867.625,"ha":1042,"o":"m 0 174 l 0 347 l 173 347 l 173 173 l 694 173 l 694 347 l 347 347 l 347 520 l 694 520 l 694 695 l 173 695 l 173 521 l 0 521 l 0 694 l 173 694 l 173 868 l 694 868 l 694 694 l 867 694 l 867 174 l 694 174 l 694 0 l 173 0 l 173 174 l 0 174 "},"ő":{"x_min":0,"x_max":694.625,"ha":868,"o":"m 0 174 l 0 521 l 174 521 l 174 694 l 520 694 l 520 521 l 694 521 l 694 174 l 520 174 l 520 0 l 174 0 l 174 174 l 0 174 m 0 868 l 0 1041 l 174 1041 l 174 1215 l 347 1215 l 347 1041 l 521 1041 l 521 1215 l 694 1215 l 694 1042 l 520 1042 l 520 868 l 347 868 l 347 1042 l 173 1042 l 173 868 l 0 868 m 173 180 l 521 180 l 521 514 l 173 514 l 173 180 "},"ю":{"x_min":0,"x_max":855.40625,"ha":1037,"o":"m 0 0 l 0 694 l 173 694 l 173 521 l 341 521 l 341 694 l 688 694 l 688 521 l 855 521 l 855 174 l 688 174 l 688 0 l 341 0 l 341 174 l 173 174 l 173 0 l 0 0 m 347 173 l 675 173 l 675 521 l 347 521 l 347 173 "},"Ŏ":{"x_min":0,"x_max":867.625,"ha":1042,"o":"m 0 173 l 0 694 l 174 694 l 174 868 l 694 868 l 694 694 l 867 694 l 867 173 l 694 173 l 694 0 l 174 0 l 174 173 l 0 173 m 173 180 l 694 180 l 694 688 l 173 688 l 173 180 m 174 1215 l 174 1388 l 347 1388 l 347 1215 l 521 1215 l 521 1388 l 694 1388 l 694 1215 l 521 1215 l 521 1042 l 347 1042 l 347 1215 l 174 1215 "},"Ѐ":{"x_min":0,"x_max":867.625,"ha":1042,"o":"m 0 0 l 0 868 l 867 868 l 867 695 l 173 695 l 173 520 l 693 520 l 693 347 l 173 347 l 173 173 l 867 173 l 867 0 l 0 0 m 174 1215 l 174 1388 l 347 1388 l 347 1215 l 520 1215 l 520 1042 l 347 1042 l 347 1215 l 174 1215 "},"İ":{"x_min":0,"x_max":173.625,"ha":347,"o":"m 0 0 l 0 868 l 173 868 l 173 0 l 0 0 m 0 1042 l 0 1215 l 173 1215 l 173 1042 l 0 1042 "},"Ě":{"x_min":0,"x_max":867.625,"ha":1042,"o":"m 0 0 l 0 868 l 867 868 l 867 695 l 173 695 l 173 520 l 694 520 l 694 347 l 173 347 l 173 173 l 867 173 l 867 0 l 0 0 m 174 1215 l 174 1388 l 347 1388 l 347 1215 l 521 1215 l 521 1388 l 694 1388 l 694 1215 l 521 1215 l 521 1042 l 347 1042 l 347 1215 l 174 1215 "},"ǣ":{"x_min":0,"x_max":1215.625,"ha":1389,"o":"m 0 173 l 0 520 l 173 520 l 173 694 l 521 694 l 521 520 l 694 520 l 694 694 l 1215 694 l 1215 347 l 1041 347 l 1041 173 l 1215 173 l 1215 0 l 173 0 l 173 173 l 0 173 m 173 180 l 521 180 l 521 514 l 173 514 l 173 180 m 348 868 l 348 1041 l 1041 1041 l 1041 868 l 348 868 m 694 180 l 868 180 l 868 353 l 1042 353 l 1042 514 l 694 514 l 694 180 "},"Ǚ":{"x_min":0,"x_max":867.625,"ha":1042,"o":"m 0 173 l 0 868 l 173 868 l 173 173 l 694 173 l 694 868 l 867 868 l 867 173 l 694 173 l 694 0 l 174 0 l 174 173 l 0 173 m 174 1042 l 174 1215 l 347 1215 l 347 1389 l 174 1389 l 174 1562 l 347 1562 l 347 1389 l 521 1389 l 521 1562 l 694 1562 l 694 1389 l 521 1389 l 521 1215 l 694 1215 l 694 1042 l 521 1042 l 521 1215 l 347 1215 l 347 1042 l 174 1042 "},"‹":{"x_min":0,"x_max":347.625,"ha":521,"o":"m 0 347 l 0 521 l 174 521 l 174 694 l 347 694 l 347 521 l 173 521 l 173 347 l 347 347 l 347 174 l 174 174 l 174 347 l 0 347 "},"Ƭ":{"x_min":0,"x_max":867.625,"ha":1042,"o":"m 0 521 l 0 694 l 173 694 l 173 868 l 867 868 l 867 695 l 520 695 l 520 0 l 347 0 l 347 695 l 173 695 l 173 521 l 0 521 "},"⇢":{"x_min":0,"x_max":1214.625,"ha":1389,"o":"m 0 347 l 0 520 l 173 520 l 173 347 l 0 347 m 347 347 l 347 520 l 520 520 l 520 347 l 347 347 m 695 0 l 695 173 l 868 173 l 868 347 l 695 347 l 695 520 l 868 520 l 868 695 l 695 695 l 695 868 l 868 868 l 868 695 l 1041 695 l 1041 520 l 1214 520 l 1214 347 l 1041 347 l 1041 173 l 868 173 l 868 0 l 695 0 "},"ķ":{"x_min":0,"x_max":694.625,"ha":1042,"o":"m 0 0 l 0 868 l 173 868 l 173 347 l 347 347 l 347 520 l 521 520 l 521 694 l 694 694 l 694 521 l 520 521 l 520 347 l 694 347 l 694 0 l 521 0 l 521 347 l 347 347 l 347 174 l 173 174 l 173 0 l 347 0 l 347 -173 l 173 -173 l 173 -347 l 0 -347 l 0 -173 l 174 -173 l 174 0 l 0 0 "},"↔":{"x_min":1,"x_max":1561.625,"ha":1736,"o":"m 1 347 l 1 520 l 174 520 l 174 695 l 347 695 l 347 868 l 520 868 l 520 695 l 347 695 l 347 520 l 1215 520 l 1215 695 l 1042 695 l 1042 868 l 1215 868 l 1215 695 l 1388 695 l 1388 520 l 1561 520 l 1561 347 l 1388 347 l 1388 173 l 1215 173 l 1215 0 l 1042 0 l 1042 173 l 1215 173 l 1215 347 l 347 347 l 347 173 l 520 173 l 520 0 l 347 0 l 347 173 l 174 173 l 174 347 l 1 347 "},"ì":{"x_min":-174,"x_max":173.625,"ha":347,"o":"m -174 868 l -174 1041 l 0 1041 l 0 868 l 173 868 l 173 695 l 0 695 l 0 868 l -174 868 m 0 0 l 0 521 l 173 521 l 173 0 l 0 0 "},"±":{"x_min":0,"x_max":867.625,"ha":1042,"o":"m 0 0 l 347 0 l 347 347 l 0 347 l 0 520 l 347 520 l 347 868 l 520 868 l 520 520 l 867 520 l 867 347 l 520 347 l 520 0 l 867 0 l 867 -173 l 0 -173 l 0 0 "},"|":{"x_min":174,"x_max":347.625,"ha":694,"o":"m 174 -173 l 174 1041 l 347 1041 l 347 -173 l 174 -173 "},"§":{"x_min":0,"x_max":520.625,"ha":695,"o":"m 0 347 l 0 520 l 174 520 l 174 691 l 0 691 l 0 868 l 174 868 l 174 1041 l 347 1041 l 347 868 l 173 868 l 173 691 l 347 691 l 347 520 l 520 520 l 520 347 l 347 347 l 347 174 l 520 174 l 520 0 l 347 0 l 347 -173 l 174 -173 l 174 0 l 347 0 l 347 174 l 174 174 l 174 347 l 0 347 m 173 348 l 347 348 l 347 518 l 173 518 l 173 348 "},"џ":{"x_min":0,"x_max":868.625,"ha":1042,"o":"m 0 0 l 0 695 l 173 695 l 173 173 l 695 173 l 695 695 l 868 695 l 868 0 l 520 0 l 520 -173 l 347 -173 l 347 0 l 0 0 "},"љ":{"x_min":0,"x_max":1215.40625,"ha":1389,"o":"m 0 0 l 0 173 l 174 173 l 174 694 l 694 694 l 694 520 l 1041 520 l 1041 347 l 1215 347 l 1215 174 l 1041 174 l 1041 0 l 521 0 l 521 521 l 347 521 l 347 174 l 173 174 l 173 0 l 0 0 m 694 173 l 1035 173 l 1035 347 l 694 347 l 694 173 "},"q":{"x_min":0,"x_max":694.625,"ha":868,"o":"m 0 173 l 0 520 l 173 520 l 173 694 l 694 694 l 694 -347 l 521 -347 l 521 0 l 173 0 l 173 173 l 0 173 m 173 180 l 521 180 l 521 514 l 173 514 l 173 180 "},"ǅ":{"x_min":0,"x_max":1736.625,"ha":1910,"o":"m 0 0 l 0 868 l 694 868 l 694 694 l 868 694 l 868 173 l 694 173 l 694 0 l 0 0 m 173 173 l 688 173 l 688 695 l 173 695 l 173 173 m 1042 0 l 1042 173 l 1215 173 l 1215 347 l 1389 347 l 1389 521 l 1042 521 l 1042 694 l 1736 694 l 1736 521 l 1562 521 l 1562 347 l 1388 347 l 1388 173 l 1736 173 l 1736 0 l 1042 0 m 1042 1042 l 1042 1215 l 1215 1215 l 1215 1041 l 1563 1041 l 1563 1215 l 1736 1215 l 1736 1042 l 1562 1042 l 1562 868 l 1215 868 l 1215 1042 l 1042 1042 "},"Ж":{"x_min":0,"x_max":1215.625,"ha":1389,"o":"m 0 0 l 0 173 l 174 173 l 174 347 l 347 347 l 347 521 l 174 521 l 174 695 l 0 695 l 0 868 l 173 868 l 173 694 l 347 694 l 347 520 l 521 520 l 521 868 l 694 868 l 694 520 l 868 520 l 868 694 l 1042 694 l 1042 868 l 1215 868 l 1215 695 l 1041 695 l 1041 521 l 868 521 l 868 347 l 1041 347 l 1041 173 l 1215 173 l 1215 0 l 1042 0 l 1042 174 l 868 174 l 868 347 l 694 347 l 694 0 l 521 0 l 521 347 l 347 347 l 347 174 l 173 174 l 173 0 l 0 0 "},"ή":{"x_min":0,"x_max":694.625,"ha":868,"o":"m 0 0 l 0 694 l 521 694 l 521 521 l 694 521 l 694 -173 l 521 -173 l 521 521 l 173 521 l 173 0 l 0 0 m 174 868 l 174 1215 l 347 1215 l 347 868 l 174 868 "},"®":{"x_min":0,"x_max":867.625,"ha":1042,"o":"m 0 173 l 0 694 l 173 694 l 173 868 l 694 868 l 694 694 l 867 694 l 867 173 l 694 173 l 694 0 l 173 0 l 173 173 l 0 173 m 173 180 l 347 180 l 347 521 l 694 521 l 694 688 l 173 688 l 173 180 "},"ѽ":{"x_min":0,"x_max":1215.625,"ha":1389,"o":"m 0 173 l 0 520 l 174 520 l 174 694 l 347 694 l 347 868 l 521 868 l 521 1041 l 694 1041 l 694 868 l 520 868 l 520 695 l 347 695 l 347 520 l 520 520 l 520 347 l 347 347 l 347 521 l 173 521 l 173 173 l 1042 173 l 1042 521 l 867 521 l 867 347 l 694 347 l 694 520 l 868 520 l 868 694 l 1041 694 l 1041 520 l 1215 520 l 1215 173 l 1041 173 l 1041 0 l 174 0 l 174 173 l 0 173 "},"Н":{"x_min":0,"x_max":867.625,"ha":1042,"o":"m 0 0 l 0 868 l 173 868 l 173 520 l 694 520 l 694 868 l 867 868 l 867 0 l 694 0 l 694 347 l 173 347 l 173 0 l 0 0 "},"Ε":{"x_min":0,"x_max":867.625,"ha":1042,"o":"m 0 0 l 0 868 l 867 868 l 867 695 l 173 695 l 173 520 l 693 520 l 693 347 l 173 347 l 173 173 l 867 173 l 867 0 l 0 0 "},"л":{"x_min":0,"x_max":694.625,"ha":868,"o":"m 0 0 l 0 173 l 174 173 l 174 694 l 694 694 l 694 0 l 521 0 l 521 521 l 347 521 l 347 173 l 173 173 l 173 0 l 0 0 "},"ƌ":{"x_min":0,"x_max":694.625,"ha":868,"o":"m 0 174 l 0 347 l 173 347 l 173 520 l 521 520 l 521 695 l 0 695 l 0 868 l 694 868 l 694 0 l 173 0 l 173 174 l 0 174 m 180 173 l 521 173 l 521 347 l 180 347 l 180 173 "},"ѱ":{"x_min":0,"x_max":868.625,"ha":1042,"o":"m 0 173 l 0 695 l 173 695 l 173 173 l 0 173 m 174 0 l 174 173 l 347 173 l 347 695 l 520 695 l 520 173 l 695 173 l 695 695 l 868 695 l 868 173 l 695 173 l 695 0 l 520 0 l 520 -173 l 347 -173 l 347 0 l 174 0 "},"σ":{"x_min":0,"x_max":867.625,"ha":1042,"o":"m 0 173 l 0 520 l 173 520 l 173 694 l 867 694 l 867 520 l 694 520 l 694 173 l 521 173 l 521 0 l 173 0 l 173 173 l 0 173 m 173 180 l 521 180 l 521 514 l 173 514 l 173 180 "},"θ":{"x_min":0,"x_max":694.625,"ha":868,"o":"m 0 173 l 0 694 l 174 694 l 174 868 l 521 868 l 521 694 l 694 694 l 694 173 l 521 173 l 521 0 l 174 0 l 174 173 l 0 173 m 173 180 l 521 180 l 521 347 l 173 347 l 173 180 m 173 520 l 521 520 l 521 688 l 173 688 l 173 520 "}," ":{"x_min":0,"x_max":0,"ha":521},"Ǫ":{"x_min":0,"x_max":867.625,"ha":1042,"o":"m 0 173 l 0 694 l 173 694 l 173 868 l 694 868 l 694 694 l 867 694 l 867 173 l 694 173 l 694 0 l 520 0 l 520 -173 l 694 -173 l 694 -347 l 521 -347 l 521 -173 l 347 -173 l 347 0 l 173 0 l 173 173 l 0 173 m 173 180 l 694 180 l 694 688 l 173 688 l 173 180 "},"∑":{"x_min":1,"x_max":868.625,"ha":1042,"o":"m 1 0 l 1 173 l 174 173 l 174 347 l 347 347 l 347 521 l 174 521 l 174 695 l 1 695 l 1 868 l 868 868 l 868 521 l 695 521 l 695 695 l 347 695 l 347 520 l 520 520 l 520 347 l 347 347 l 347 173 l 695 173 l 695 347 l 868 347 l 868 0 l 1 0 "},"Ώ":{"x_min":0,"x_max":1215.625,"ha":1389,"o":"m 0 520 l 0 694 l 173 694 l 173 868 l 347 868 l 347 694 l 520 694 l 520 347 l 694 347 l 694 0 l 347 0 l 347 173 l 521 173 l 521 347 l 347 347 l 347 695 l 173 695 l 173 520 l 0 520 m 521 695 l 521 868 l 1041 868 l 1041 695 l 521 695 m 868 0 l 868 347 l 1042 347 l 1042 694 l 1215 694 l 1215 347 l 1041 347 l 1041 173 l 1215 173 l 1215 0 l 868 0 "},"+":{"x_min":0,"x_max":867.625,"ha":1042,"o":"m 0 347 l 0 520 l 347 520 l 347 868 l 520 868 l 520 520 l 867 520 l 867 347 l 520 347 l 520 0 l 347 0 l 347 347 l 0 347 "},"Ë":{"x_min":0,"x_max":867.625,"ha":1042,"o":"m 0 0 l 0 868 l 867 868 l 867 695 l 173 695 l 173 520 l 694 520 l 694 347 l 173 347 l 173 173 l 867 173 l 867 0 l 0 0 m 174 1042 l 174 1215 l 347 1215 l 347 1042 l 174 1042 m 521 1042 l 521 1215 l 694 1215 l 694 1042 l 521 1042 "},"Š":{"x_min":0,"x_max":867.625,"ha":1042,"o":"m 0 0 l 0 173 l 694 173 l 694 347 l 174 347 l 174 520 l 0 520 l 0 695 l 174 695 l 174 868 l 867 868 l 867 695 l 173 695 l 173 520 l 694 520 l 694 347 l 867 347 l 867 173 l 694 173 l 694 0 l 0 0 m 174 1215 l 174 1388 l 347 1388 l 347 1215 l 521 1215 l 521 1388 l 694 1388 l 694 1215 l 521 1215 l 521 1042 l 347 1042 l 347 1215 l 174 1215 "},"ƙ":{"x_min":0,"x_max":694.625,"ha":868,"o":"m 0 0 l 0 694 l 174 694 l 174 868 l 347 868 l 347 695 l 173 695 l 173 347 l 347 347 l 347 520 l 521 520 l 521 694 l 694 694 l 694 521 l 520 521 l 520 347 l 694 347 l 694 0 l 521 0 l 521 347 l 347 347 l 347 174 l 173 174 l 173 0 l 0 0 "}," ":{"x_min":0,"x_max":0,"ha":1563},"щ":{"x_min":0,"x_max":1041.625,"ha":1042,"o":"m 0 0 l 0 695 l 173 695 l 173 173 l 347 173 l 347 695 l 520 695 l 520 173 l 695 173 l 695 695 l 868 695 l 868 0 l 1041 0 l 1041 -173 l 868 -173 l 868 0 l 0 0 "},"ð":{"x_min":0,"x_max":694.625,"ha":868,"o":"m 0 173 l 0 521 l 174 521 l 174 694 l 347 694 l 347 868 l 174 868 l 174 1041 l 347 1041 l 347 868 l 521 868 l 521 1041 l 694 1041 l 694 868 l 521 868 l 521 694 l 694 694 l 694 0 l 174 0 l 174 173 l 0 173 m 180 173 l 521 173 l 521 521 l 180 521 l 180 173 "},"Φ":{"x_min":1,"x_max":1215.40625,"ha":1389,"o":"m 1 347 l 1 520 l 174 520 l 174 694 l 347 694 l 347 868 l 521 868 l 521 1041 l 694 1041 l 694 868 l 867 868 l 867 694 l 1041 694 l 1041 520 l 1215 520 l 1215 347 l 1041 347 l 1041 174 l 867 174 l 867 0 l 694 0 l 694 -173 l 521 -173 l 521 0 l 347 0 l 347 174 l 174 174 l 174 347 l 1 347 m 181 347 l 354 347 l 354 173 l 521 173 l 521 695 l 354 695 l 354 521 l 181 521 l 181 347 m 694 173 l 861 173 l 861 347 l 1035 347 l 1035 521 l 861 521 l 861 695 l 694 695 l 694 173 "},"Ǳ":{"x_min":0,"x_max":1909.625,"ha":2083,"o":"m 0 0 l 0 868 l 694 868 l 694 695 l 868 695 l 868 173 l 694 173 l 694 0 l 0 0 m 173 173 l 688 173 l 688 695 l 173 695 l 173 173 m 1042 0 l 1042 173 l 1215 173 l 1215 347 l 1389 347 l 1389 520 l 1563 520 l 1563 695 l 1042 695 l 1042 868 l 1909 868 l 1909 695 l 1736 695 l 1736 520 l 1562 520 l 1562 347 l 1388 347 l 1388 173 l 1909 173 l 1909 0 l 1042 0 "},"ş":{"x_min":0,"x_max":694.625,"ha":868,"o":"m 0 0 l 0 173 l 347 173 l 347 347 l 0 347 l 0 520 l 174 520 l 174 694 l 694 694 l 694 521 l 347 521 l 347 347 l 694 347 l 694 174 l 521 174 l 521 0 l 347 0 l 347 -173 l 173 -173 l 173 -347 l 0 -347 l 0 -173 l 174 -173 l 174 0 l 0 0 "}," ":{"x_min":0,"x_max":0,"ha":260},"ı":{"x_min":0,"x_max":173.625,"ha":347,"o":"m 0 0 l 0 520 l 173 520 l 173 0 l 0 0 "},"ƚ":{"x_min":1,"x_max":520.625,"ha":694,"o":"m 1 347 l 1 520 l 174 520 l 174 868 l 347 868 l 347 520 l 520 520 l 520 347 l 347 347 l 347 0 l 174 0 l 174 347 l 1 347 "},"ä":{"x_min":0,"x_max":694.625,"ha":868,"o":"m 0 173 l 0 520 l 173 520 l 173 694 l 521 694 l 521 520 l 694 520 l 694 0 l 173 0 l 173 173 l 0 173 m 0 868 l 0 1041 l 173 1041 l 173 868 l 0 868 m 173 180 l 521 180 l 521 514 l 173 514 l 173 180 m 521 868 l 521 1041 l 694 1041 l 694 868 l 521 868 "},"Ǯ":{"x_min":0,"x_max":694.625,"ha":868,"o":"m 0 0 l 0 173 l 521 173 l 521 347 l 174 347 l 174 520 l 347 520 l 347 695 l 0 695 l 0 868 l 694 868 l 694 695 l 520 695 l 520 347 l 694 347 l 694 173 l 520 173 l 520 0 l 0 0 m 174 1215 l 174 1388 l 347 1388 l 347 1215 l 521 1215 l 521 1388 l 694 1388 l 694 1215 l 520 1215 l 520 1042 l 347 1042 l 347 1215 l 174 1215 "},"¹":{"x_min":0,"x_max":173.625,"ha":347,"o":"m 0 173 l 0 868 l 173 868 l 173 173 l 0 173 "},"W":{"x_min":0,"x_max":1215.625,"ha":1389,"o":"m 0 174 l 0 868 l 173 868 l 173 173 l 521 173 l 521 868 l 694 868 l 694 173 l 1042 173 l 1042 868 l 1215 868 l 1215 174 l 1042 174 l 1042 0 l 694 0 l 694 174 l 521 174 l 521 0 l 173 0 l 173 174 l 0 174 "},"λ":{"x_min":0,"x_max":694.625,"ha":868,"o":"m 0 0 l 0 347 l 174 347 l 174 520 l 521 520 l 521 695 l 174 695 l 174 868 l 521 868 l 521 695 l 694 695 l 694 0 l 521 0 l 521 347 l 173 347 l 173 0 l 0 0 "},">":{"x_min":0,"x_max":520.625,"ha":695,"o":"m 0 0 l 0 173 l 174 173 l 174 347 l 347 347 l 347 521 l 174 521 l 174 695 l 0 695 l 0 868 l 173 868 l 173 694 l 347 694 l 347 521 l 520 521 l 520 347 l 347 347 l 347 174 l 173 174 l 173 0 l 0 0 "},"τ":{"x_min":0,"x_max":520.625,"ha":695,"o":"m 0 521 l 0 694 l 520 694 l 520 521 l 347 521 l 347 174 l 173 174 l 173 521 l 0 521 m 347 0 l 347 173 l 520 173 l 520 0 l 347 0 "},"ѐ":{"x_min":0,"x_max":694.625,"ha":1042,"o":"m 0 173 l 0 520 l 174 520 l 174 694 l 694 694 l 694 347 l 520 347 l 520 173 l 694 173 l 694 0 l 174 0 l 174 173 l 0 173 m 173 180 l 347 180 l 347 353 l 521 353 l 521 514 l 173 514 l 173 180 m 174 1042 l 174 1215 l 347 1215 l 347 1041 l 520 1041 l 520 868 l 347 868 l 347 1042 l 174 1042 "},"Ų":{"x_min":0,"x_max":867.625,"ha":1042,"o":"m 0 173 l 0 868 l 173 868 l 173 173 l 694 173 l 694 868 l 867 868 l 867 173 l 694 173 l 694 0 l 520 0 l 520 -173 l 694 -173 l 694 -347 l 521 -347 l 521 -173 l 347 -173 l 347 0 l 173 0 l 173 173 l 0 173 "},"Ŵ":{"x_min":0,"x_max":1215.625,"ha":1389,"o":"m 0 174 l 0 868 l 173 868 l 173 173 l 521 173 l 521 868 l 694 868 l 694 173 l 1042 173 l 1042 868 l 1215 868 l 1215 174 l 1042 174 l 1042 0 l 694 0 l 694 174 l 520 174 l 520 0 l 173 0 l 173 174 l 0 174 m 347 1042 l 347 1215 l 521 1215 l 521 1388 l 694 1388 l 694 1215 l 867 1215 l 867 1042 l 694 1042 l 694 1215 l 520 1215 l 520 1042 l 347 1042 "},"Ð":{"x_min":1,"x_max":1041.40625,"ha":1215,"o":"m 1 347 l 1 520 l 174 520 l 174 868 l 867 868 l 867 695 l 1041 695 l 1041 173 l 867 173 l 867 0 l 174 0 l 174 347 l 1 347 m 347 173 l 861 173 l 861 695 l 347 695 l 347 520 l 520 520 l 520 347 l 347 347 l 347 173 "},"Λ":{"x_min":0,"x_max":867.625,"ha":1042,"o":"m 0 0 l 0 347 l 174 347 l 174 694 l 347 694 l 347 868 l 521 868 l 521 694 l 694 694 l 694 347 l 867 347 l 867 0 l 694 0 l 694 347 l 521 347 l 521 695 l 347 695 l 347 347 l 173 347 l 173 0 l 0 0 "},"·":{"x_min":0,"x_max":173.625,"ha":347,"o":"m 0 347 l 0 520 l 173 520 l 173 347 l 0 347 "},"Х":{"x_min":0,"x_max":867.625,"ha":1042,"o":"m 0 0 l 0 173 l 174 173 l 174 347 l 347 347 l 347 521 l 174 521 l 174 695 l 0 695 l 0 868 l 173 868 l 173 694 l 347 694 l 347 521 l 521 521 l 521 694 l 694 694 l 694 868 l 867 868 l 867 695 l 694 695 l 694 521 l 521 521 l 521 347 l 694 347 l 694 173 l 867 173 l 867 0 l 694 0 l 694 174 l 521 174 l 521 347 l 347 347 l 347 174 l 173 174 l 173 0 l 0 0 "},"Υ":{"x_min":0,"x_max":867.625,"ha":1042,"o":"m 0 695 l 0 868 l 173 868 l 173 694 l 347 694 l 347 521 l 521 521 l 521 694 l 694 694 l 694 868 l 867 868 l 867 695 l 694 695 l 694 521 l 521 521 l 521 0 l 347 0 l 347 521 l 174 521 l 174 695 l 0 695 "},"r":{"x_min":0,"x_max":520.625,"ha":695,"o":"m 0 0 l 0 694 l 173 694 l 173 520 l 347 520 l 347 694 l 520 694 l 520 521 l 347 521 l 347 347 l 173 347 l 173 0 l 0 0 "},"ж":{"x_min":0,"x_max":868.625,"ha":1042,"o":"m 0 0 l 0 173 l 173 173 l 173 521 l 0 521 l 0 694 l 173 694 l 173 521 l 347 521 l 347 694 l 520 694 l 520 521 l 695 521 l 695 694 l 868 694 l 868 521 l 695 521 l 695 173 l 868 173 l 868 0 l 695 0 l 695 174 l 520 174 l 520 0 l 347 0 l 347 174 l 173 174 l 173 0 l 0 0 "},"Ѳ":{"x_min":0,"x_max":867.625,"ha":1042,"o":"m 0 173 l 0 694 l 173 694 l 173 868 l 694 868 l 694 694 l 867 694 l 867 173 l 694 173 l 694 0 l 173 0 l 173 173 l 0 173 m 173 180 l 694 180 l 694 347 l 173 347 l 173 180 m 173 520 l 694 520 l 694 688 l 173 688 l 173 520 "},"Ø":{"x_min":0,"x_max":868.40625,"ha":1042,"o":"m 0 173 l 0 694 l 173 694 l 173 868 l 694 868 l 694 694 l 868 694 l 868 173 l 694 173 l 694 0 l 173 0 l 173 173 l 0 173 m 173 347 l 347 347 l 347 520 l 520 520 l 520 688 l 173 688 l 173 347 m 353 173 l 688 173 l 688 520 l 527 520 l 527 347 l 353 347 l 353 173 "},"ǐ":{"x_min":-174,"x_max":347.625,"ha":347,"o":"m -174 868 l -174 1041 l 0 1041 l 0 868 l 174 868 l 174 1041 l 347 1041 l 347 868 l 173 868 l 173 695 l 0 695 l 0 868 l -174 868 m 0 0 l 0 521 l 173 521 l 173 0 l 0 0 "},"с":{"x_min":0,"x_max":694.5,"ha":868,"o":"m 0 173 l 0 521 l 173 521 l 173 694 l 694 694 l 694 521 l 173 521 l 173 173 l 694 173 l 694 0 l 173 0 l 173 173 l 0 173 "},"÷":{"x_min":0,"x_max":868.125,"ha":1042,"o":"m 0 347 l 0 520 l 868 520 l 868 347 l 0 347 m 347 0 l 347 173 l 520 173 l 520 0 l 347 0 m 347 695 l 347 868 l 520 868 l 520 695 l 347 695 "},"Ƣ":{"x_min":0,"x_max":1041.625,"ha":1215,"o":"m 0 347 l 0 694 l 173 694 l 173 868 l 1041 868 l 1041 0 l 868 0 l 868 694 l 694 694 l 694 347 l 521 347 l 521 174 l 173 174 l 173 347 l 0 347 m 173 354 l 521 354 l 521 688 l 173 688 l 173 354 "},"h":{"x_min":0,"x_max":694.625,"ha":868,"o":"m 0 0 l 0 868 l 173 868 l 173 694 l 521 694 l 521 521 l 694 521 l 694 0 l 521 0 l 521 521 l 173 521 l 173 0 l 0 0 "},"ƻ":{"x_min":1,"x_max":867.625,"ha":1042,"o":"m 1 0 l 1 173 l 174 173 l 174 347 l 1 347 l 1 520 l 694 520 l 694 695 l 867 695 l 867 347 l 347 347 l 347 173 l 867 173 l 867 0 l 1 0 m 1 695 l 1 868 l 694 868 l 694 695 l 1 695 "},"f":{"x_min":0,"x_max":347.625,"ha":521,"o":"m 0 0 l 0 695 l 174 695 l 174 868 l 347 868 l 347 695 l 173 695 l 173 520 l 347 520 l 347 347 l 173 347 l 173 0 l 0 0 "},"“":{"x_min":0,"x_max":520.625,"ha":695,"o":"m 0 521 l 0 868 l 173 868 l 173 521 l 0 521 m 347 521 l 347 868 l 520 868 l 520 521 l 347 521 "},"Ǘ":{"x_min":0,"x_max":867.625,"ha":1042,"o":"m 0 173 l 0 868 l 173 868 l 173 173 l 694 173 l 694 868 l 867 868 l 867 173 l 694 173 l 694 0 l 174 0 l 174 173 l 0 173 m 0 1042 l 0 1215 l 174 1215 l 174 1388 l 347 1388 l 347 1562 l 520 1562 l 520 1389 l 347 1389 l 347 1215 l 173 1215 l 173 1042 l 0 1042 m 521 1042 l 521 1215 l 694 1215 l 694 1042 l 521 1042 "},"A":{"x_min":0,"x_max":867.625,"ha":1042,"o":"m 0 0 l 0 694 l 173 694 l 173 868 l 694 868 l 694 694 l 867 694 l 867 0 l 694 0 l 694 347 l 173 347 l 173 0 l 0 0 m 173 520 l 694 520 l 694 688 l 173 688 l 173 520 "},"Ɓ":{"x_min":1,"x_max":1041.40625,"ha":1215,"o":"m 1 695 l 1 868 l 867 868 l 867 694 l 1041 694 l 1041 521 l 867 521 l 867 347 l 1041 347 l 1041 174 l 867 174 l 867 0 l 174 0 l 174 695 l 1 695 m 347 173 l 861 173 l 861 347 l 347 347 l 347 173 m 347 520 l 861 520 l 861 695 l 347 695 l 347 520 "},"O":{"x_min":0,"x_max":867.625,"ha":1042,"o":"m 0 173 l 0 694 l 173 694 l 173 868 l 694 868 l 694 694 l 867 694 l 867 173 l 694 173 l 694 0 l 173 0 l 173 173 l 0 173 m 173 180 l 694 180 l 694 688 l 173 688 l 173 180 "},"Đ":{"x_min":1,"x_max":1041.40625,"ha":1215,"o":"m 1 347 l 1 520 l 174 520 l 174 868 l 867 868 l 867 695 l 1041 695 l 1041 173 l 867 173 l 867 0 l 174 0 l 174 347 l 1 347 m 347 173 l 861 173 l 861 695 l 347 695 l 347 520 l 520 520 l 520 347 l 347 347 l 347 173 "},"3":{"x_min":0.5,"x_max":868.625,"ha":1042,"o":"m 0 0 l 0 173 l 695 173 l 695 347 l 174 347 l 174 521 l 695 521 l 695 695 l 0 695 l 0 868 l 695 868 l 695 695 l 868 695 l 868 521 l 695 521 l 695 347 l 868 347 l 868 173 l 695 173 l 695 0 l 0 0 "},"Ǿ":{"x_min":0,"x_max":868.40625,"ha":1042,"o":"m 0 173 l 0 694 l 173 694 l 173 868 l 694 868 l 694 694 l 868 694 l 868 173 l 694 173 l 694 0 l 173 0 l 173 173 l 0 173 m 173 347 l 347 347 l 347 520 l 521 520 l 521 688 l 173 688 l 173 347 m 347 1042 l 347 1215 l 521 1215 l 521 1388 l 694 1388 l 694 1215 l 520 1215 l 520 1042 l 347 1042 m 353 173 l 688 173 l 688 520 l 527 520 l 527 347 l 353 347 l 353 173 "},"4":{"x_min":0,"x_max":867.625,"ha":1042,"o":"m 0 347 l 0 868 l 173 868 l 173 520 l 694 520 l 694 868 l 867 868 l 867 0 l 694 0 l 694 347 l 0 347 "},"Ǝ":{"x_min":1,"x_max":868.625,"ha":1042,"o":"m 1 0 l 1 173 l 695 173 l 695 347 l 175 347 l 175 520 l 695 520 l 695 695 l 1 695 l 1 868 l 868 868 l 868 0 l 1 0 "},"ψ":{"x_min":0,"x_max":868.625,"ha":1042,"o":"m 0 173 l 0 695 l 173 695 l 173 173 l 0 173 m 174 0 l 174 173 l 347 173 l 347 695 l 520 695 l 520 173 l 695 173 l 695 695 l 868 695 l 868 173 l 695 173 l 695 0 l 520 0 l 520 -173 l 347 -173 l 347 0 l 174 0 "},"Ť":{"x_min":0,"x_max":867.625,"ha":1042,"o":"m 0 695 l 0 868 l 867 868 l 867 695 l 520 695 l 520 0 l 347 0 l 347 695 l 0 695 m 174 1215 l 174 1388 l 347 1388 l 347 1215 l 521 1215 l 521 1388 l 694 1388 l 694 1215 l 520 1215 l 520 1042 l 347 1042 l 347 1215 l 174 1215 "},"ơ":{"x_min":0,"x_max":867.625,"ha":1042,"o":"m 0 173 l 0 521 l 174 521 l 174 694 l 521 694 l 521 521 l 694 521 l 694 694 l 867 694 l 867 520 l 694 520 l 694 173 l 521 173 l 521 0 l 174 0 l 174 173 l 0 173 m 173 180 l 521 180 l 521 514 l 173 514 l 173 180 "},"Ѻ":{"x_min":0,"x_max":1215.625,"ha":1389,"o":"m 0 173 l 0 694 l 173 694 l 173 868 l 521 868 l 521 1041 l 694 1041 l 694 868 l 1042 868 l 1042 694 l 1215 694 l 1215 173 l 1042 173 l 1042 0 l 694 0 l 694 -173 l 521 -173 l 521 0 l 173 0 l 173 173 l 0 173 m 173 180 l 1042 180 l 1042 688 l 173 688 l 173 180 "},"ŗ":{"x_min":0,"x_max":520.625,"ha":695,"o":"m 0 0 l 0 694 l 173 694 l 173 520 l 347 520 l 347 694 l 520 694 l 520 521 l 347 521 l 347 347 l 173 347 l 173 0 l 347 0 l 347 -173 l 173 -173 l 173 -347 l 0 -347 l 0 -173 l 174 -173 l 174 0 l 0 0 "},"\r":{"x_min":0,"x_max":0,"ha":521}}}
